<?xml version="1.0" encoding="utf-8"?>
<!-- Generator: Adobe Illustrator 16.0.0, SVG Export Plug-In . SVG Version: 6.00 Build 0)  -->
<!DOCTYPE svg PUBLIC "-//W3C//DTD SVG 1.1//EN" "http://www.w3.org/Graphics/SVG/1.1/DTD/svg11.dtd">
<svg version="1.1" id="Layer_1" xmlns="http://www.w3.org/2000/svg" xmlns:xlink="http://www.w3.org/1999/xlink" x="0px" y="0px"
	 width="1280px" height="800px" viewBox="0 0 1280 800" enable-background="new 0 0 1280 800" xml:space="preserve">
<g id="XMLID_3972_">
	<g id="XMLID_3974_">
		<g>
			<polygon fill="#032740" points="616.034,453.2 614.803,453.898 610.025,445.406 597.462,423.073 597.405,422.979 
				595.803,420.129 594.338,417.524 594.175,417.241 594.018,416.958 592.408,414.09 591.12,411.8 590.479,410.661 590.158,410.095 
				588.543,407.232 588.229,406.66 584.27,399.627 583.679,398.576 583.088,397.525 582.497,396.481 581.107,394.009 
				582.34,393.317 584.118,396.481 584.709,397.525 585.891,399.627 589.266,405.622 589.586,406.188 591.195,409.057 
				591.516,409.623 593.125,412.485 593.445,413.052 594.834,415.524 595.218,416.197 595.375,416.486 596.84,419.091 
				598.442,421.94 598.499,422.035 610.535,443.424 			"/>
		</g>
		<g id="XMLID_3975_">
			
				<rect x="682.429" y="389.251" transform="matrix(0.8712 0.4909 -0.4909 0.8712 295.8862 -280.7762)" fill="#032740" width="1.415" height="68.713"/>
		</g>
	</g>
	<g id="XMLID_3973_">
		<g>
			<rect x="581.146" y="397.525" fill="#2D384F" width="119.417" height="2.102"/>
		</g>
		<g>
			<rect x="581.146" y="396.481" fill="#676C6D" width="119.417" height="2.095"/>
		</g>
	</g>
</g>
<g id="XMLID_3927_">
	<g id="XMLID_3971_">
		<path fill="#050805" d="M615.469,404.768c1.319,0,50.771,0,50.771,0l-4.204,3.029h-42.362L615.469,404.768z"/>
	</g>
	<g id="XMLID_3930_">
		<g id="XMLID_3947_">
			<g>
				<path fill="#0D0B07" d="M681.657,484.239l-0.006,0.007l-4.029,3.139h-73.536l-4.028-3.139v-0.007h77.564
					C680.181,484.239,681.657,484.239,681.657,484.239z"/>
			</g>
			<g id="XMLID_3969_">
				<g>
					<polygon fill="#A8A096" points="681.657,484.239 681.657,484.246 600.058,484.246 600.058,484.239 610.025,445.406 
						610.535,443.424 619.674,407.799 620.453,404.767 661.256,404.767 661.395,405.301 661.406,405.339 661.582,406.05 
						662.035,407.799 662.619,410.069 662.802,410.774 662.94,411.328 663.248,412.529 663.833,414.801 664.015,415.505 
						664.794,418.55 665.228,420.236 666.259,424.262 666.441,424.967 666.648,425.766 666.956,426.967 671.18,443.418 
						671.689,445.399 					"/>
				</g>
				<g id="XMLID_3970_">
					<polygon fill="#B2A89B" points="648.406,404.768 640.854,404.768 633.302,404.768 625.749,484.242 640.854,484.242 
						655.959,484.242 					"/>
				</g>
			</g>
			<g>
				<rect x="604.086" y="484.239" fill="#39673D" width="73.536" height="19.849"/>
			</g>
			<g id="XMLID_3968_">
				<rect x="604.086" y="484.242" fill="#0D0B07" width="73.536" height="0.943"/>
			</g>
			<g id="XMLID_3963_">
				<g id="XMLID_3967_">
					<rect x="614.247" y="485.815" fill="#786450" width="8.484" height="18.086"/>
				</g>
				<g id="XMLID_3966_">
					<rect x="615.538" y="485.815" fill="#B59960" width="7.193" height="18.086"/>
				</g>
				<g id="XMLID_3965_">
					<rect x="616.341" y="486.429" fill="#11170B" width="5.589" height="17.473"/>
				</g>
				<g id="XMLID_3964_">
					<rect x="616.76" y="486.792" fill="#2E6126" width="4.859" height="17.109"/>
				</g>
			</g>
			<g id="XMLID_3948_">
				<g id="XMLID_3956_">
					<g id="XMLID_3962_">
						<rect x="635.669" y="489.32" fill="#E6BE67" width="8.839" height="7.719"/>
					</g>
					<g id="XMLID_3961_">
						<rect x="636.448" y="490.017" fill="#11170B" width="7.28" height="6.277"/>
					</g>
					<g id="XMLID_3960_">
						<rect x="636.923" y="490.568" fill="#2E6126" width="6.331" height="5.205"/>
					</g>
					<g id="XMLID_3959_">
						<rect x="637.278" y="490.95" fill="#D9D2C3" width="5.62" height="4.429"/>
					</g>
					<g id="XMLID_3958_">
						<rect x="637.603" y="491.287" fill="#435241" width="4.972" height="3.73"/>
					</g>
					<g id="XMLID_3957_">
						<rect x="639.968" y="490.95" fill="#D9D2C3" width="0.241" height="4.429"/>
					</g>
				</g>
				<g id="XMLID_3949_">
					<g id="XMLID_3955_">
						<rect x="657.562" y="489.32" fill="#E6BE67" width="8.84" height="7.719"/>
					</g>
					<g id="XMLID_3954_">
						<rect x="658.342" y="490.017" fill="#11170B" width="7.279" height="6.277"/>
					</g>
					<g id="XMLID_3953_">
						<rect x="658.815" y="490.568" fill="#2E6126" width="6.332" height="5.205"/>
					</g>
					<g id="XMLID_3952_">
						<rect x="659.172" y="490.95" fill="#D9D2C3" width="5.619" height="4.429"/>
					</g>
					<g id="XMLID_3951_">
						<rect x="659.495" y="491.287" fill="#435241" width="4.973" height="3.73"/>
					</g>
					<g id="XMLID_3950_">
						<rect x="661.86" y="490.95" fill="#D9D2C3" width="0.242" height="4.429"/>
					</g>
				</g>
			</g>
		</g>
		<g id="XMLID_3931_">
			<g id="XMLID_3942_">
				<g id="XMLID_3946_">
					<rect x="637.733" y="442.767" fill="#FFDD80" width="3.98" height="7.863"/>
				</g>
				<g id="XMLID_3945_">
					<rect x="638.127" y="443.103" fill="#896842" width="3.194" height="3.155"/>
				</g>
				<g id="XMLID_3944_">
					<rect x="638.35" y="443.322" fill="#64605F" width="2.749" height="2.716"/>
				</g>
				<g id="XMLID_3943_">
					<rect x="636.066" y="442.294" fill="#51392E" width="7.314" height="0.473"/>
				</g>
			</g>
			<g id="XMLID_3937_">
				<g id="XMLID_3941_">
					<rect x="613.64" y="456.449" fill="#FFDD80" width="3.98" height="7.863"/>
				</g>
				<g id="XMLID_3940_">
					<rect x="614.032" y="456.785" fill="#896842" width="3.195" height="3.155"/>
				</g>
				<g id="XMLID_3939_">
					<rect x="614.255" y="457.005" fill="#64605F" width="2.749" height="2.716"/>
				</g>
				<g id="XMLID_3938_">
					<rect x="611.973" y="455.978" fill="#51392E" width="7.314" height="0.472"/>
				</g>
			</g>
			<g id="XMLID_3932_">
				<g id="XMLID_3936_">
					<rect x="664.088" y="468.087" fill="#FFDD80" width="3.98" height="7.864"/>
				</g>
				<g id="XMLID_3935_">
					<rect x="664.48" y="468.423" fill="#896842" width="3.195" height="3.156"/>
				</g>
				<g id="XMLID_3934_">
					<rect x="664.703" y="468.643" fill="#64605F" width="2.75" height="2.716"/>
				</g>
				<g id="XMLID_3933_">
					<rect x="662.421" y="467.615" fill="#51392E" width="7.314" height="0.472"/>
				</g>
			</g>
		</g>
	</g>
	<g id="XMLID_3929_">
		<polygon fill="#CB9F60" points="662.035,407.797 619.673,407.797 620.452,404.765 661.256,404.765 		"/>
	</g>
	<g>
		<path fill="#555056" d="M666.24,404.767h-50.771l2.96-5.14l0.609-1.051l0.032-0.057l0.571-0.994l0.604-1.044l1.119-1.938
			l1.339-2.315l4.224-7.322l0.609-1.057l0.604-1.045l1.615-2.793l0.32-0.56l2.332-4.045c0.509-0.881,1.118-1.643,1.804-2.271
			c0.805-0.761,1.71-1.353,2.671-1.774c1.226-0.541,2.539-0.823,3.859-0.83c1.319-0.025,2.64,0.227,3.878,0.742
			c0.98,0.403,1.904,0.976,2.728,1.718c0.754,0.667,1.414,1.472,1.961,2.416l9.704,16.821l1.546,2.68l0.201,0.353l0.704,1.221
			l0.604,1.044l0.572,0.994l0.031,0.057l0.609,1.051L666.24,404.767z"/>
	</g>
	<g id="XMLID_3928_">
		<polygon fill="#737273" points="662.637,398.518 619.067,398.518 622.7,392.228 659.01,392.228 		"/>
	</g>
</g>
</svg>
