<?xml version="1.0" encoding="utf-8"?>
<!-- Generator: Adobe Illustrator 16.0.0, SVG Export Plug-In . SVG Version: 6.00 Build 0)  -->
<!DOCTYPE svg PUBLIC "-//W3C//DTD SVG 1.1//EN" "http://www.w3.org/Graphics/SVG/1.1/DTD/svg11.dtd">
<svg version="1.1" id="Layer_1" xmlns="http://www.w3.org/2000/svg" xmlns:xlink="http://www.w3.org/1999/xlink" x="0px" y="0px"
	 width="1280px" height="800px" viewBox="0 0 1280 800" enable-background="new 0 0 1280 800" xml:space="preserve">
<g id="XMLID_3780_">
	<g id="XMLID_3784_">
		<g id="XMLID_3856_">
			<g id="XMLID_3857_">
				<g id="XMLID_3925_">
					<g>
						<polygon fill="#5D5F61" points="635.562,384.938 628.277,392.229 624.029,396.481 622.985,397.525 621.936,398.576 
							620.887,399.627 615.751,404.767 615.632,404.886 598.499,422.035 597.462,423.073 572.748,447.809 568.191,443.248 
							594.175,417.241 595.218,416.197 611.772,399.627 612.822,398.576 613.872,397.525 614.915,396.481 627.536,383.85 
							631.006,380.377 631.226,380.604 633.262,382.635 635.486,384.862 						"/>
					</g>
					<g id="XMLID_3926_">
						<path fill="#C9C9C9" d="M631.006,380.377l-0.931-0.925l-7.328-7.342l-62.813,62.871l8.484,8.493l25.92-25.95l1.037-1.038
							l16.844-16.859l1.05-1.051l1.05-1.051l1.043-1.044l11.565-11.575l4.299-4.303L631.006,380.377z M629.755,380.012l0.584,0.585
							l-2.199,2.208l-0.327,0.327l-2.237-2.239l2.533-2.529L629.755,380.012z M612.961,397.991l-2.231-2.233l2.526-2.535
							l2.238,2.239l-1.019,1.02l-1.05,1.044L612.961,397.991z M609.994,400.967l-2.237-2.239l1.2-1.202l1.043-1.044l0.283-0.283
							l0.283,0.283l1.043,1.044l0.911,0.912L609.994,400.967z M592.905,413.593l0.54-0.541l1.992-1.988l2.231,2.233l-2.526,2.535
							L592.905,413.593z M591.516,409.623l1.238-1.245l2.237,2.239l-1.866,1.868l-0.66,0.661l-1.345-1.347l-0.893-0.887
							L591.516,409.623z M601.666,399.463l0.164,0.164l2.074,2.069l-2.533,2.535l-2.231-2.239l2.363-2.365L601.666,399.463z
							 M605.079,396.047l2.526-2.528l2.238,2.233l-0.729,0.729l-1.043,1.044l-0.761,0.762l-0.761-0.762l-1.037-1.044
							L605.079,396.047z M616.669,389.813l2.526-2.536l2.238,2.24l-2.533,2.528L616.669,389.813z M618.46,392.486l-2.526,2.535
							l-2.237-2.239l2.533-2.529L618.46,392.486z M619.636,386.838l2.533-2.529l2.23,2.233l-2.526,2.535L619.636,386.838z
							 M622.162,383.422l-2.231-2.24l2.527-2.528l2.237,2.233L622.162,383.422z M621.723,383.862l-2.527,2.528l-2.237-2.233
							l2.526-2.535L621.723,383.862z M618.749,386.838l-2.526,2.528l-2.237-2.239l2.533-2.529L618.749,386.838z M615.783,389.807
							l-2.527,2.529l-2.237-2.233l2.526-2.535L615.783,389.807z M612.81,392.782l-2.526,2.529l-2.237-2.24l2.533-2.528
							L612.81,392.782z M598.851,407.647l2.526-2.528l2.231,2.233l-2.526,2.535L598.851,407.647z M600.642,410.328l-2.526,2.528
							l-2.237-2.239l2.526-2.529L600.642,410.328z M601.817,404.672l2.526-2.528l2.237,2.239l-2.526,2.529L601.817,404.672z
							 M604.79,401.703l2.068-2.076l0.458-0.459l2.238,2.239l-2.533,2.529L604.79,401.703z M605.677,397.525l1.043,1.051l0.15,0.151
							l-2.526,2.528l-1.628-1.629l-0.609-0.61l0.439-0.44l1.057-1.051l1.037-1.038L605.677,397.525z M600.931,404.672l-2.526,2.529
							l-2.237-2.233l2.526-2.535L600.931,404.672z M597.965,407.642l-2.533,2.535l-2.231-2.239l2.526-2.529L597.965,407.642z
							 M592.019,413.593l-2.526,2.528l-2.237-2.239l2.532-2.528L592.019,413.593z M589.052,416.562l-2.526,2.528l-2.237-2.233
							l2.526-2.535L589.052,416.562z M586.079,419.537l-2.526,2.529l-2.237-2.239l2.532-2.529L586.079,419.537z M583.112,422.507
							l-2.532,2.535l-2.231-2.239l2.526-2.529L583.112,422.507z M580.14,425.482l-2.526,2.529l-2.237-2.24l2.532-2.528
							L580.14,425.482z M577.173,428.452l-2.532,2.535l-2.231-2.24l2.526-2.528L577.173,428.452z M574.2,431.428l-2.526,2.528
							l-2.237-2.233l2.532-2.535L574.2,431.428z M571.233,434.396l-2.532,2.535l-2.231-2.239l2.526-2.529L571.233,434.396z
							 M571.674,434.844l2.237,2.239l-2.526,2.529l-2.237-2.24L571.674,434.844z M572.12,434.403l2.526-2.529l2.237,2.233
							l-2.532,2.535L572.12,434.403z M575.087,431.428l2.526-2.529l2.237,2.239l-2.526,2.529L575.087,431.428z M578.06,428.458
							l2.526-2.535l2.237,2.239l-2.532,2.529L578.06,428.458z M581.026,425.482l2.532-2.529l2.231,2.24l-2.526,2.528
							L581.026,425.482z M583.999,422.514l2.526-2.535l2.237,2.239l-2.532,2.528L583.999,422.514z M586.966,419.537l2.532-2.528
							l2.231,2.233l-2.526,2.535L586.966,419.537z M589.938,416.568l2.47-2.479l0.057-0.057l2.237,2.239l-0.685,0.686l-1.848,1.844
							L589.938,416.568z M624.846,386.102l-2.237-2.239l2.526-2.529l2.238,2.239L624.846,386.102z M627.662,377.917l-2.527,2.529
							l-2.237-2.233l2.526-2.535L627.662,377.917z M622.747,372.997l2.237,2.24l-2.533,2.528l-2.231-2.239L622.747,372.997z
							 M619.78,375.967l2.231,2.239l-2.527,2.529l-2.237-2.233L619.78,375.967z M616.808,378.942l2.237,2.239l-2.533,2.529
							l-2.231-2.239L616.808,378.942z M613.834,381.918l2.238,2.233l-2.527,2.535l-2.237-2.239L613.834,381.918z M610.868,384.888
							l2.237,2.239l-2.533,2.529l-2.231-2.24L610.868,384.888z M607.895,387.863l2.238,2.232l-2.527,2.536l-2.237-2.24
							L607.895,387.863z M604.929,390.832l2.23,2.239l-2.526,2.529l-2.237-2.233L604.929,390.832z M599.429,396.337l2.526-2.529
							l2.238,2.233l-0.44,0.44l-1.037,1.044l-1.05,1.051l-1.049-1.051l-1.044-1.044L599.429,396.337z M596.456,399.312l0.735-0.736
							l1.798-1.799l0.748,0.748l1.043,1.051l0.439,0.44l-0.609,0.61l-1.917,1.919l-1.923-1.919L596.456,399.312z M596.016,399.753
							l2.238,2.239l-2.533,2.529l-2.231-2.24L596.016,399.753z M593.05,402.722l2.23,2.24l-2.526,2.528l-2.237-2.233L593.05,402.722
							z M588.543,407.232l1.043-1.044l0.49-0.491l2.238,2.24l-2.156,2.157l-0.377,0.371l-2.231-2.239L588.543,407.232z
							 M587.104,408.673l2.237,2.233l-2.526,2.529l-2.237-2.233L587.104,408.673z M584.137,411.643l2.238,2.239l-2.533,2.529
							l-2.231-2.239L584.137,411.643z M581.164,414.618l2.237,2.233l-2.526,2.535l-2.237-2.239L581.164,414.618z M578.197,417.588
							l2.231,2.239l-2.526,2.528l-2.237-2.232L578.197,417.588z M575.225,420.563l2.237,2.232l-2.526,2.535l-2.237-2.239
							L575.225,420.563z M572.258,423.532l2.231,2.239l-2.526,2.529l-2.237-2.233L572.258,423.532z M569.285,426.508l2.238,2.233
							l-2.533,2.535l-2.231-2.239L569.285,426.508z M566.318,429.478l2.231,2.239l-2.526,2.529l-2.237-2.233L566.318,429.478z
							 M560.819,434.981l2.526-2.528l2.237,2.239l-2.532,2.529L560.819,434.981z M563.497,437.668l2.526-2.535l2.237,2.239
							l-2.526,2.529L563.497,437.668z M566.174,440.348l2.533-2.528l2.231,2.232l-2.526,2.536L566.174,440.348z"/>
					</g>
				</g>
				<g id="XMLID_3858_">
					<g id="XMLID_3924_">
						<polygon fill="#5D5F61" points="713.515,311.721 650.703,374.591 646.148,370.032 708.961,307.163 						"/>
					</g>
					<g id="XMLID_3859_">
						<path fill="#C9C9C9" d="M650.48,374.368l8.483,8.491l62.812-62.87l-8.483-8.491L650.48,374.368z M715.531,314.622
							l-2.529,2.531l-2.234-2.237l2.528-2.531L715.531,314.622z M657.016,374.081l2.528-2.531l2.235,2.237l-2.528,2.531
							L657.016,374.081z M658.81,376.76l-2.528,2.531l-2.235-2.237l2.528-2.531L658.81,376.76z M709.591,320.567l-2.528,2.531
							l-2.235-2.237l2.528-2.531L709.591,320.567z M707.797,317.889l2.529-2.531l2.234,2.237l-2.528,2.531L707.797,317.889z
							 M662.956,368.135l2.528-2.531l2.235,2.238l-2.528,2.531L662.956,368.135z M664.75,370.814l-2.529,2.531l-2.235-2.237
							l2.529-2.531L664.75,370.814z M665.926,365.163l2.528-2.531l2.235,2.238l-2.528,2.531L665.926,365.163z M668.896,362.189
							l2.529-2.531l2.235,2.237l-2.529,2.531L668.896,362.189z M671.866,359.217l2.528-2.531l2.235,2.238l-2.528,2.531
							L671.866,359.217z M674.836,356.244l2.529-2.531l2.235,2.237l-2.529,2.531L674.836,356.244z M677.807,353.271l2.528-2.531
							l2.235,2.237l-2.529,2.531L677.807,353.271z M680.776,350.298l2.528-2.531l2.235,2.237l-2.528,2.531L680.776,350.298z
							 M683.746,347.326l2.529-2.531l2.235,2.238l-2.529,2.531L683.746,347.326z M686.716,344.353l2.529-2.531l2.235,2.237
							l-2.529,2.531L686.716,344.353z M689.687,341.38l2.528-2.531l2.235,2.237l-2.528,2.531L689.687,341.38z M692.656,338.407
							l2.529-2.531l2.234,2.237l-2.528,2.531L692.656,338.407z M695.626,335.435l2.529-2.531l2.235,2.238l-2.529,2.531
							L695.626,335.435z M698.597,332.462l2.528-2.531l2.235,2.237l-2.528,2.531L698.597,332.462z M701.566,329.489l2.529-2.531
							l2.235,2.237l-2.529,2.531L701.566,329.489z M704.536,326.516l2.529-2.531l2.235,2.237l-2.529,2.531L704.536,326.516z
							 M707.507,323.543l2.528-2.531l2.235,2.238l-2.528,2.531L707.507,323.543z M706.621,323.541l-2.529,2.531l-2.234-2.237
							l2.528-2.531L706.621,323.541z M703.65,326.513l-2.528,2.531l-2.235-2.237l2.529-2.531L703.65,326.513z M700.681,329.486
							l-2.528,2.531l-2.235-2.237l2.528-2.531L700.681,329.486z M697.711,332.459l-2.529,2.531l-2.234-2.237l2.528-2.531
							L697.711,332.459z M694.74,335.432l-2.528,2.531l-2.235-2.237l2.529-2.531L694.74,335.432z M691.771,338.404l-2.528,2.531
							l-2.235-2.237l2.528-2.531L691.771,338.404z M688.801,341.377l-2.529,2.531l-2.234-2.237l2.528-2.531L688.801,341.377z
							 M685.83,344.35l-2.528,2.531l-2.235-2.237l2.529-2.531L685.83,344.35z M682.86,347.323l-2.528,2.531l-2.235-2.237
							l2.528-2.531L682.86,347.323z M679.891,350.295l-2.529,2.531l-2.234-2.237l2.528-2.531L679.891,350.295z M676.92,353.268
							l-2.528,2.531l-2.235-2.237l2.529-2.531L676.92,353.268z M673.95,356.241l-2.528,2.531l-2.235-2.237l2.528-2.531
							L673.95,356.241z M670.98,359.214l-2.529,2.531l-2.235-2.237l2.529-2.531L670.98,359.214z M668.01,362.187l-2.528,2.531
							l-2.235-2.237l2.529-2.531L668.01,362.187z M665.04,365.159l-2.528,2.531l-2.235-2.237l2.528-2.531L665.04,365.159z
							 M662.07,368.132l-2.529,2.531l-2.235-2.237l2.529-2.531L662.07,368.132z M659.1,371.104l-2.528,2.531l-2.235-2.237
							l2.529-2.531L659.1,371.104z M662.225,374.232l2.234,2.236L661.931,379l-2.235-2.237L662.225,374.232z M662.665,373.79
							l2.529-2.531l2.235,2.237l-2.529,2.531L662.665,373.79z M665.636,370.817l2.528-2.531l2.235,2.237l-2.528,2.531
							L665.636,370.817z M668.605,367.845l2.528-2.531l2.235,2.237l-2.528,2.531L668.605,367.845z M671.575,364.872l2.529-2.531
							l2.235,2.237l-2.529,2.531L671.575,364.872z M674.546,361.899l2.528-2.531l2.235,2.237l-2.528,2.531L674.546,361.899z
							 M677.516,358.926l2.529-2.531l2.234,2.237l-2.528,2.531L677.516,358.926z M680.486,355.954l2.528-2.531l2.235,2.237
							l-2.529,2.531L680.486,355.954z M683.456,352.981l2.528-2.531l2.235,2.237l-2.528,2.531L683.456,352.981z M686.426,350.008
							l2.529-2.531l2.234,2.237l-2.528,2.531L686.426,350.008z M689.396,347.035l2.528-2.531l2.235,2.237l-2.529,2.531
							L689.396,347.035z M692.366,344.062l2.528-2.531l2.235,2.237l-2.528,2.531L692.366,344.062z M695.336,341.09l2.529-2.531
							l2.234,2.237l-2.528,2.531L695.336,341.09z M698.307,338.117l2.528-2.531l2.235,2.237l-2.529,2.531L698.307,338.117z
							 M701.276,335.144l2.528-2.531l2.235,2.237l-2.528,2.531L701.276,335.144z M704.246,332.171l2.529-2.531l2.234,2.237
							l-2.528,2.531L704.246,332.171z M707.217,329.198l2.528-2.531l2.235,2.237l-2.529,2.531L707.217,329.198z M710.187,326.226
							l2.528-2.531l2.235,2.237l-2.528,2.531L710.187,326.226z M713.156,323.253l2.529-2.531l2.234,2.237l-2.528,2.531
							L713.156,323.253z M712.712,322.808l-2.235-2.237l2.528-2.531l2.235,2.238L712.712,322.808z M713.446,317.598l2.529-2.531
							l2.235,2.237l-2.529,2.531L713.446,317.598z M653.895,371.841l2.235,2.236l-2.528,2.531l-2.235-2.237L653.895,371.841z
							 M656.726,379.735l2.528-2.53l2.235,2.236l-2.528,2.531L656.726,379.735z M718.361,322.518l-2.235-2.237l2.529-2.531
							l2.235,2.237L718.361,322.518z"/>
					</g>
				</g>
			</g>
			<g>
				<polygon fill="#787777" points="711.034,309.239 648.221,372.11 647.347,372.991 643.601,376.74 642.929,377.414 
					642.589,377.753 641.193,379.144 640.741,379.603 640.703,379.635 640.182,380.163 635.486,384.862 628.127,392.229 
					623.878,396.481 622.835,397.525 621.842,398.52 621.785,398.576 620.735,399.627 615.601,404.767 615.544,404.823 
					598.442,421.94 597.405,422.979 572.673,447.733 570.448,445.507 595.803,420.129 596.84,419.091 616.285,399.627 
					617.335,398.576 618.385,397.525 619.428,396.481 621.364,394.544 638.058,377.835 638.484,377.414 639.283,376.615 
					640.068,375.828 640.703,375.187 640.741,375.155 641.275,374.614 644.619,371.273 708.815,307.019 				"/>
			</g>
		</g>
		<g id="XMLID_3785_">
			<g id="XMLID_3786_">
				<g id="XMLID_3789_">
					<g id="XMLID_3855_">
						<polygon fill="#5D5F61" points="643.818,387.27 706.631,450.14 711.186,445.581 648.373,382.711 						"/>
					</g>
					<g id="XMLID_3790_">
						<path fill="#C9C9C9" d="M644.041,387.047l-8.483,8.491l62.812,62.87l8.483-8.491L644.041,387.047z M644.038,387.934
							l2.528,2.531l-2.235,2.236l-2.528-2.53L644.038,387.934z M698.082,451.867l-2.528-2.531l2.235-2.237l2.529,2.53
							L698.082,451.867z M700.759,450.071l2.529,2.53l-2.235,2.238l-2.529-2.531L700.759,450.071z M649.978,393.879l2.529,2.531
							l-2.235,2.237l-2.529-2.531L649.978,393.879z M647.302,395.675l-2.529-2.531l2.235-2.237l2.528,2.531L647.302,395.675z
							 M692.143,445.921l-2.529-2.531l2.236-2.237l2.528,2.531L692.143,445.921z M694.819,444.125l2.528,2.531l-2.235,2.238
							l-2.528-2.531L694.819,444.125z M689.173,442.948l-2.529-2.531l2.235-2.237l2.529,2.531L689.173,442.948z M686.202,439.976
							l-2.528-2.531l2.235-2.237l2.528,2.531L686.202,439.976z M683.232,437.003l-2.529-2.531l2.235-2.237l2.529,2.531
							L683.232,437.003z M680.263,434.03l-2.529-2.531l2.235-2.237l2.529,2.531L680.263,434.03z M677.292,431.058l-2.528-2.531
							l2.235-2.237l2.528,2.53L677.292,431.058z M674.322,428.084l-2.529-2.53l2.236-2.237l2.528,2.53L674.322,428.084z
							 M671.353,425.111l-2.529-2.531l2.235-2.237l2.529,2.531L671.353,425.111z M668.382,422.139l-2.528-2.531l2.235-2.237
							l2.528,2.531L668.382,422.139z M665.412,419.166l-2.528-2.531l2.235-2.237l2.528,2.531L665.412,419.166z M662.442,416.193
							l-2.529-2.531l2.235-2.237l2.529,2.531L662.442,416.193z M659.472,413.221l-2.528-2.531l2.235-2.237l2.528,2.531
							L659.472,413.221z M656.502,410.248l-2.529-2.531l2.235-2.237l2.529,2.531L656.502,410.248z M653.531,407.275l-2.528-2.531
							l2.235-2.237l2.529,2.53L653.531,407.275z M650.562,404.302l-2.528-2.53l2.235-2.237l2.528,2.53L650.562,404.302z
							 M647.592,401.329l-2.529-2.531l2.235-2.237l2.529,2.531L647.592,401.329z M652.948,396.852l2.528,2.531l-2.235,2.237
							l-2.528-2.531L652.948,396.852z M655.918,399.824l2.528,2.531l-2.234,2.237l-2.529-2.531L655.918,399.824z M658.888,402.797
							l2.529,2.531l-2.235,2.237l-2.529-2.531L658.888,402.797z M661.858,405.771l2.528,2.53l-2.235,2.237l-2.528-2.531
							L661.858,405.771z M664.828,408.743l2.529,2.531l-2.235,2.236l-2.529-2.53L664.828,408.743z M667.799,411.716l2.528,2.531
							l-2.235,2.237l-2.528-2.531L667.799,411.716z M670.769,414.688l2.528,2.531l-2.235,2.237l-2.528-2.531L670.769,414.688z
							 M673.738,417.661l2.529,2.531l-2.235,2.237l-2.529-2.531L673.738,417.661z M676.708,420.634l2.529,2.531l-2.235,2.237
							l-2.528-2.531L676.708,420.634z M679.679,423.606l2.528,2.531l-2.235,2.237l-2.528-2.531L679.679,423.606z M682.648,426.579
							l2.529,2.531l-2.235,2.237l-2.529-2.531L682.648,426.579z M685.618,429.553l2.529,2.53l-2.235,2.237l-2.528-2.53
							L685.618,429.553z M688.589,432.525l2.528,2.531l-2.235,2.236l-2.528-2.53L688.589,432.525z M691.559,435.498l2.528,2.531
							l-2.234,2.237l-2.529-2.531L691.559,435.498z M694.528,438.471l2.529,2.531l-2.235,2.237l-2.528-2.531L694.528,438.471z
							 M697.499,441.443l2.528,2.531l-2.235,2.237l-2.528-2.531L697.499,441.443z M700.469,444.416l2.529,2.531l-2.235,2.237
							l-2.529-2.531L700.469,444.416z M697.638,452.312l-2.234,2.237l-2.529-2.531l2.235-2.237L697.638,452.312z M692.433,451.576
							l-2.528-2.531l2.235-2.237l2.528,2.531L692.433,451.576z M689.463,448.604l-2.528-2.531l2.234-2.237l2.529,2.531
							L689.463,448.604z M686.493,445.631l-2.529-2.531l2.235-2.237l2.529,2.531L686.493,445.631z M683.523,442.658l-2.529-2.531
							l2.235-2.237l2.528,2.531L683.523,442.658z M680.553,439.685l-2.528-2.53l2.234-2.237l2.529,2.53L680.553,439.685z
							 M677.583,436.712l-2.529-2.531l2.235-2.237l2.528,2.531L677.583,436.712z M674.612,433.739l-2.528-2.531l2.235-2.237
							l2.528,2.531L674.612,433.739z M671.643,430.767l-2.528-2.531l2.234-2.237l2.529,2.531L671.643,430.767z M668.673,427.794
							l-2.529-2.531l2.235-2.237l2.529,2.531L668.673,427.794z M665.702,424.821l-2.528-2.531l2.235-2.237l2.528,2.531
							L665.702,424.821z M662.732,421.849l-2.528-2.531l2.234-2.237l2.529,2.531L662.732,421.849z M659.763,418.875l-2.529-2.53
							l2.235-2.237l2.529,2.531L659.763,418.875z M656.792,415.902l-2.528-2.531l2.235-2.236l2.528,2.53L656.792,415.902z
							 M653.822,412.93l-2.529-2.531l2.235-2.237l2.529,2.531L653.822,412.93z M650.853,409.957l-2.529-2.531l2.235-2.237
							l2.528,2.531L650.853,409.957z M647.882,406.984l-2.528-2.531l2.235-2.237l2.528,2.531L647.882,406.984z M644.912,404.012
							l-2.528-2.531l2.234-2.237l2.529,2.531L644.912,404.012z M641.942,401.039l-2.529-2.531l2.235-2.237l2.528,2.531
							L641.942,401.039z M642.093,395.825l2.235-2.237l2.529,2.531l-2.236,2.237L642.093,395.825z M641.651,395.384l-2.528-2.531
							l2.235-2.237l2.528,2.531L641.651,395.384z M705.968,449.92l-2.235,2.237l-2.529-2.531l2.235-2.237L705.968,449.92z
							 M698.373,457.521l-2.528-2.531l2.234-2.237l2.529,2.531L698.373,457.521z M636.443,395.535l2.235-2.237l2.528,2.531
							l-2.235,2.237L636.443,395.535z"/>
					</g>
				</g>
				<g id="XMLID_3787_">
					<g>
						<polygon fill="#5D5F61" points="638.038,367.556 637.812,367.776 635.556,370.034 633.481,372.11 570.668,309.246 
							572.748,307.169 575.005,304.911 575.225,304.685 						"/>
					</g>
					<g id="XMLID_3788_">
						<path fill="#C9C9C9" d="M640.741,353.722l-57.258-57.304l-8.259,8.267l-0.227,0.22l62.814,62.871l0.226-0.22l2.703-2.711
							l5.556-5.561L640.741,353.722z M642.438,356.314l-1.697,1.705l-0.534,0.535l-2.526-2.529l2.23-2.239L642.438,356.314z
							 M631.584,355.289l-2.527-2.529l2.238-2.24l2.526,2.529L631.584,355.289z M634.261,353.496l2.533,2.529l-2.237,2.24
							l-2.526-2.535L634.261,353.496z M628.617,352.319l-2.526-2.535l2.23-2.233l2.527,2.529L628.617,352.319z M625.645,349.344
							l-2.527-2.529l2.238-2.239l2.526,2.529L625.645,349.344z M622.678,346.368l-2.533-2.529l2.237-2.233l2.527,2.529
							L622.678,346.368z M619.705,343.398l-2.527-2.529l2.231-2.239l2.533,2.529L619.705,343.398z M616.738,340.423l-2.533-2.529
							l2.237-2.239l2.527,2.535L616.738,340.423z M613.766,337.454l-2.527-2.529l2.231-2.239l2.533,2.529L613.766,337.454z
							 M610.799,334.478l-2.533-2.529l2.237-2.239l2.527,2.535L610.799,334.478z M607.826,331.509l-2.527-2.535l2.231-2.233
							l2.533,2.529L607.826,331.509z M604.853,328.533l-2.526-2.529l2.237-2.24l2.527,2.535L604.853,328.533z M601.887,325.564
							l-2.527-2.535l2.231-2.233l2.533,2.529L601.887,325.564z M598.913,322.588l-2.526-2.529l2.237-2.24l2.527,2.529
							L598.913,322.588z M595.947,319.619l-2.533-2.535l2.237-2.233l2.526,2.529L595.947,319.619z M592.974,316.644l-2.526-2.529
							l2.237-2.24l2.527,2.529L592.974,316.644z M590.008,313.668l-2.533-2.529l2.237-2.24l2.526,2.535L590.008,313.668z
							 M587.034,310.699l-2.526-2.529l2.231-2.239l2.533,2.529L587.034,310.699z M584.068,307.723l-2.533-2.529l2.237-2.24
							l2.526,2.535L584.068,307.723z M583.622,308.169l-2.238,2.24l-2.526-2.535l2.237-2.233L583.622,308.169z M584.062,308.61
							l2.526,2.536l-2.23,2.233l-2.533-2.529L584.062,308.61z M587.034,311.585l2.527,2.529l-2.237,2.239l-2.527-2.535
							L587.034,311.585z M590.001,314.555l2.526,2.536l-2.23,2.233l-2.527-2.529L590.001,314.555z M592.974,317.53l2.527,2.529
							l-2.237,2.239l-2.527-2.529L592.974,317.53z M595.94,320.5l2.533,2.535l-2.237,2.233l-2.527-2.529L595.94,320.5z
							 M598.913,323.476l2.527,2.529l-2.231,2.24l-2.533-2.529L598.913,323.476z M601.88,326.451l2.533,2.529l-2.237,2.24
							l-2.527-2.536L601.88,326.451z M604.853,329.42l2.527,2.529l-2.231,2.24l-2.533-2.529L604.853,329.42z M607.819,332.396
							l2.533,2.529l-2.237,2.24l-2.527-2.535L607.819,332.396z M610.792,335.365l2.527,2.535l-2.231,2.233l-2.533-2.529
							L610.792,335.365z M613.766,338.341l2.526,2.529l-2.237,2.24l-2.527-2.535L613.766,338.341z M616.731,341.31l2.527,2.535
							l-2.231,2.233l-2.533-2.529L616.731,341.31z M619.705,344.286l2.526,2.529l-2.237,2.24l-2.527-2.529L619.705,344.286z
							 M622.671,347.255l2.533,2.535l-2.237,2.233l-2.526-2.529L622.671,347.255z M625.645,350.23l2.526,2.529l-2.231,2.239
							l-2.533-2.529L625.645,350.23z M628.61,353.206l2.533,2.529l-2.237,2.233l-2.526-2.529L628.61,353.206z M631.584,356.176
							l2.526,2.529l-2.231,2.24l-2.533-2.529L631.584,356.176z M634.55,359.151l2.533,2.529l-2.237,2.24l-2.526-2.536
							L634.55,359.151z M634.996,358.705l2.238-2.24l2.526,2.535l-2.237,2.233L634.996,358.705z M639.472,353.345l-2.237,2.233
							l-2.527-2.529l2.238-2.239L639.472,353.345z M636.499,350.369l-2.231,2.239l-2.533-2.535l2.237-2.233L636.499,350.369z
							 M633.532,347.4l-2.237,2.233l-2.527-2.529l2.238-2.24L633.532,347.4z M630.56,344.424l-2.231,2.24l-2.533-2.535l2.237-2.233
							L630.56,344.424z M627.593,341.449l-2.237,2.239l-2.527-2.529l2.231-2.24L627.593,341.449z M624.62,338.479l-2.231,2.239
							l-2.533-2.535l2.237-2.233L624.62,338.479z M621.653,335.503l-2.237,2.24l-2.527-2.529l2.231-2.24L621.653,335.503z
							 M618.681,332.534l-2.238,2.233l-2.526-2.529l2.237-2.233L618.681,332.534z M615.714,329.559l-2.237,2.24l-2.527-2.529
							l2.231-2.24L615.714,329.559z M612.741,326.589l-2.238,2.233l-2.526-2.529l2.237-2.24L612.741,326.589z M609.768,323.614
							l-2.23,2.24l-2.533-2.535l2.237-2.233L609.768,323.614z M606.802,320.645l-2.238,2.233l-2.526-2.529l2.237-2.239
							L606.802,320.645z M603.828,317.669l-2.23,2.24l-2.533-2.536l2.237-2.233L603.828,317.669z M600.862,314.7l-2.238,2.233
							l-2.526-2.529l2.231-2.239L600.862,314.7z M597.889,311.724l-2.23,2.239l-2.533-2.535l2.237-2.233L597.889,311.724z
							 M594.923,308.749l-2.238,2.24l-2.526-2.529l2.231-2.239L594.923,308.749z M591.949,305.779l-2.237,2.239l-2.526-2.535
							l2.237-2.233L591.949,305.779z M588.983,302.804l-2.238,2.239l-2.526-2.529l2.231-2.24L588.983,302.804z M583.483,297.299
							l2.526,2.535l-2.237,2.233l-2.526-2.529L583.483,297.299z M580.8,299.985l2.533,2.529l-2.238,2.24l-2.526-2.536L580.8,299.985
							z M578.122,302.665l2.526,2.529l-2.23,2.239l-2.533-2.529L578.122,302.665z M637.818,366.889l-2.533-2.529l2.238-2.239
							l2.526,2.535L637.818,366.889z M640.496,364.209l-2.526-2.535l2.23-2.233l0.541,0.541l1.992,1.988L640.496,364.209z
							 M640.741,359.088l-0.095-0.094l2.238-2.24l2.526,2.535l-2.237,2.233L640.741,359.088z"/>
					</g>
				</g>
			</g>
			<g>
				<polygon fill="#787777" points="711.109,445.657 708.885,447.878 570.523,309.39 570.668,309.246 572.742,307.163 
					648.296,382.786 657.729,392.229 660.759,395.261 665.121,399.627 684.756,419.279 685.799,420.324 				"/>
			</g>
		</g>
	</g>
	<g id="XMLID_3781_">
		<g id="XMLID_3783_">
			<circle fill="#FEFEFE" cx="640.854" cy="377.412" r="2.829"/>
		</g>
		<g id="XMLID_3782_">
			<circle fill="#A8383B" cx="640.854" cy="377.412" r="1.768"/>
		</g>
	</g>
</g>
</svg>
