<?xml version="1.0" encoding="utf-8"?>
<!-- Generator: Adobe Illustrator 16.0.0, SVG Export Plug-In . SVG Version: 6.00 Build 0)  -->
<!DOCTYPE svg PUBLIC "-//W3C//DTD SVG 1.1//EN" "http://www.w3.org/Graphics/SVG/1.1/DTD/svg11.dtd">
<svg version="1.1" id="Layer_1" xmlns="http://www.w3.org/2000/svg" xmlns:xlink="http://www.w3.org/1999/xlink" x="0px" y="0px"
	 width="1280px" height="800px" viewBox="0 0 1280 800" enable-background="new 0 0 1280 800" xml:space="preserve">
<g id="XMLID_3330_">
	<g id="XMLID_3571_">
		<rect x="606.391" y="330.393" fill="#038B98" width="69.128" height="188.71"/>
	</g>
	<g id="XMLID_3570_">
		<polygon fill="#33394F" points="610.511,327.147 640.955,299.689 671.399,327.147 		"/>
	</g>
	<g id="XMLID_3569_">
		<polygon fill="#0A7075" points="612.693,327.147 640.955,301.658 669.217,327.147 		"/>
	</g>
	<g id="XMLID_3568_">
		<rect x="606.391" y="327.147" fill="#AD9076" width="69.128" height="3.246"/>
	</g>
	<g id="XMLID_3567_">
		<rect x="606.391" y="330.393" fill="#24140D" width="69.128" height="0.998"/>
	</g>
	<g id="XMLID_3535_">
		<g id="XMLID_3566_">
			<path fill="#26140C" d="M641.824,288.075h-1.738v-4.9c0-0.48,0.389-0.87,0.869-0.87l0,0c0.479,0,0.869,0.389,0.869,0.87V288.075z
				"/>
		</g>
		<g id="XMLID_3565_">
			<rect x="639.738" y="285.83" fill="#601F26" width="2.434" height="5.77"/>
		</g>
		<g id="XMLID_3555_">
			<g id="XMLID_3562_">
				<g id="XMLID_3564_">
					<polygon fill="#614C44" points="640.953,288.417 625.044,316.2 625.044,328.463 656.862,328.463 656.862,316.2 					"/>
				</g>
				<g id="XMLID_3563_">
					<g>
						<rect x="625.044" y="322.106" fill="#614C44" width="31.818" height="6.357"/>
					</g>
				</g>
			</g>
			<g id="XMLID_3559_">
				<g id="XMLID_3561_">
					<polygon fill="#191816" points="656.866,319.382 656.866,331.641 625.048,331.641 625.048,319.382 640.949,291.599 					"/>
				</g>
				<g id="XMLID_3560_">
					<g>
						<rect x="625.048" y="325.282" fill="#191816" width="31.818" height="6.358"/>
					</g>
				</g>
			</g>
			<g id="XMLID_3556_">
				<g id="XMLID_3558_">
					<polygon fill="#4B3628" points="656.866,321.358 656.866,331.641 625.048,331.641 625.048,321.358 640.949,293.576 					"/>
				</g>
				<g id="XMLID_3557_">
					<rect x="625.048" y="325.762" fill="#8C8B97" width="31.818" height="5.879"/>
				</g>
			</g>
		</g>
		<g id="XMLID_3536_">
			<g id="XMLID_3538_">
				<g id="XMLID_3544_">
					<g id="XMLID_3550_">
						<g id="XMLID_3554_">
							<path fill="#0F0803" d="M638.293,330.501h-5.452v-8.412c0-1.506,1.221-2.727,2.727-2.727l0,0
								c1.506,0,2.726,1.221,2.726,2.727V330.501z"/>
						</g>
						<g id="XMLID_3553_">
							<path fill="#FDF3F1" d="M638.293,330.501h-5.452v-6.975c0-1.486,1.204-2.69,2.69-2.69h0.072c1.485,0,2.689,1.205,2.689,2.69
								V330.501z"/>
						</g>
						<g id="XMLID_3552_">
							<path fill="#110A0C" d="M637.779,330.501h-4.424v-6.768c0-1.222,0.99-2.212,2.212-2.212l0,0c1.222,0,2.212,0.991,2.212,2.212
								V330.501z"/>
						</g>
						<g id="XMLID_3551_">
							<path fill="#81868E" d="M637.395,330.501h-3.654v-6.52c0-1.009,0.818-1.827,1.827-1.827l0,0c1.009,0,1.827,0.818,1.827,1.827
								V330.501z"/>
						</g>
					</g>
					<g id="XMLID_3545_">
						<g id="XMLID_3549_">
							<path fill="#0F0803" d="M649.069,330.501h-5.453v-8.412c0-1.506,1.221-2.727,2.727-2.727l0,0
								c1.506,0,2.727,1.221,2.727,2.727V330.501z"/>
						</g>
						<g id="XMLID_3548_">
							<path fill="#FDF3F1" d="M649.069,330.501h-5.453v-6.975c0-1.486,1.204-2.69,2.69-2.69h0.072c1.485,0,2.69,1.205,2.69,2.69
								V330.501z"/>
						</g>
						<g id="XMLID_3547_">
							<path fill="#110A0C" d="M648.555,330.501h-4.424v-6.768c0-1.222,0.99-2.212,2.212-2.212l0,0c1.222,0,2.212,0.991,2.212,2.212
								V330.501z"/>
						</g>
						<g id="XMLID_3546_">
							<path fill="#81868E" d="M648.17,330.501h-3.654v-6.52c0-1.009,0.818-1.827,1.827-1.827l0,0c1.009,0,1.827,0.818,1.827,1.827
								V330.501z"/>
						</g>
					</g>
				</g>
				<g id="XMLID_3539_">
					<g id="XMLID_3543_">
						<path fill="#0F0803" d="M645.728,330.501h-9.546v-14.727c0-2.637,2.138-4.774,4.773-4.774l0,0
							c2.636,0,4.772,2.137,4.772,4.774V330.501z"/>
					</g>
					<g id="XMLID_3542_">
						<path fill="#FDF3F1" d="M645.728,330.501h-9.546V318.29c0-2.602,2.109-4.71,4.71-4.71h0.127c2.601,0,4.709,2.109,4.709,4.71
							V330.501z"/>
					</g>
					<g id="XMLID_3541_">
						<path fill="#110A0C" d="M644.827,330.501h-7.745v-11.848c0-2.14,1.734-3.874,3.873-3.874l0,0c2.139,0,3.872,1.734,3.872,3.874
							V330.501z"/>
					</g>
					<g id="XMLID_3540_">
						<path fill="#81868E" d="M644.153,330.501h-6.396v-11.414c0-1.767,1.432-3.199,3.198-3.199l0,0
							c1.767,0,3.198,1.432,3.198,3.199V330.501z"/>
					</g>
				</g>
			</g>
			<g id="XMLID_3537_">
				<rect x="632.841" y="330.501" fill="#FDF3F1" width="16.229" height="1.14"/>
			</g>
		</g>
	</g>
	<g id="XMLID_3470_">
		<g id="XMLID_3503_">
			<g id="XMLID_3527_">
				<g id="XMLID_3528_">
					<g id="XMLID_3534_">
						<path fill="#190000" d="M621.67,356.899h-10.731v-14.603c0-2.964,2.402-5.367,5.365-5.367l0,0
							c2.964,0,5.366,2.403,5.366,5.367V356.899z"/>
					</g>
					<g id="XMLID_3533_">
						<path fill="#4C3937" d="M621.67,356.899h-10.731v-13.443c0-2.964,2.402-5.366,5.365-5.366l0,0
							c2.964,0,5.366,2.402,5.366,5.366V356.899z"/>
					</g>
					<g id="XMLID_3532_">
						<path fill="#E1E0E2" d="M620.833,356.088h-9.059v-12.657c0-2.502,2.028-4.53,4.529-4.53l0,0c2.502,0,4.529,2.028,4.529,4.53
							V356.088z"/>
					</g>
					<g id="XMLID_3531_">
						<path fill="#040704" d="M620.3,355.337h-7.992v-11.428c0-2.207,1.789-3.997,3.996-3.997l0,0c2.207,0,3.996,1.79,3.996,3.997
							V355.337z"/>
					</g>
					<g id="XMLID_3530_">
						<path fill="#5C6074" d="M619.821,354.805h-7.035v-10.838c0-1.943,1.575-3.519,3.518-3.519l0,0
							c1.943,0,3.518,1.575,3.518,3.519V354.805z"/>
					</g>
					<g id="XMLID_3529_">
						<rect x="612.308" y="344.505" fill="#040704" width="7.992" height="0.437"/>
					</g>
				</g>
			</g>
			<g id="XMLID_3522_">
				<g id="XMLID_3526_">
					<rect x="610.973" y="367.933" fill="#FDF3EF" width="10.662" height="20.126"/>
				</g>
				<g id="XMLID_3525_">
					<rect x="611.887" y="368.796" fill="#080004" width="8.794" height="18.399"/>
				</g>
				<g id="XMLID_3524_">
					<rect x="612.496" y="369.407" fill="#4E5567" width="7.616" height="17.134"/>
				</g>
				<g id="XMLID_3523_">
					<rect x="611.887" y="373.924" fill="#080004" width="8.794" height="0.468"/>
				</g>
			</g>
			<g id="XMLID_3513_">
				<g id="XMLID_3515_">
					<g id="XMLID_3521_">
						<rect x="611.187" y="396.248" fill="#FDF3EF" width="10.662" height="20.125"/>
					</g>
					<g id="XMLID_3520_">
						<rect x="612.101" y="397.11" fill="#080004" width="8.794" height="18.4"/>
					</g>
					<g id="XMLID_3519_">
						<rect x="612.71" y="397.723" fill="#F0EDDF" width="7.616" height="17.133"/>
					</g>
					<g id="XMLID_3518_">
						<rect x="612.101" y="402.238" fill="#080004" width="8.794" height="0.469"/>
					</g>
					<g id="XMLID_3517_">
						<rect x="612.12" y="406.778" fill="#080004" width="8.795" height="0.468"/>
					</g>
					<g id="XMLID_3516_">
						<rect x="612.101" y="411.038" fill="#080004" width="8.794" height="0.468"/>
					</g>
				</g>
				<g id="XMLID_3514_">
					<rect x="616.264" y="397.11" fill="#080004" width="0.468" height="18.4"/>
				</g>
			</g>
			<g id="XMLID_3504_">
				<g id="XMLID_3506_">
					<g id="XMLID_3512_">
						<rect x="610.973" y="424.376" fill="#FDF3EF" width="10.662" height="20.125"/>
					</g>
					<g id="XMLID_3511_">
						<rect x="611.887" y="425.238" fill="#080004" width="8.794" height="18.4"/>
					</g>
					<g id="XMLID_3510_">
						<rect x="612.496" y="425.85" fill="#F0EDDF" width="7.616" height="17.134"/>
					</g>
					<g id="XMLID_3509_">
						<rect x="611.887" y="430.366" fill="#080004" width="8.794" height="0.468"/>
					</g>
					<g id="XMLID_3508_">
						<rect x="611.906" y="434.906" fill="#080004" width="8.795" height="0.468"/>
					</g>
					<g id="XMLID_3507_">
						<rect x="611.887" y="439.165" fill="#080004" width="8.794" height="0.469"/>
					</g>
				</g>
				<g id="XMLID_3505_">
					<rect x="616.05" y="425.238" fill="#080004" width="0.468" height="18.4"/>
				</g>
			</g>
		</g>
		<g id="XMLID_3471_">
			<g id="XMLID_3495_">
				<g id="XMLID_3496_">
					<g id="XMLID_3502_">
						<path fill="#190000" d="M671.647,356.899h-10.731v-14.603c0-2.964,2.402-5.367,5.365-5.367l0,0
							c2.964,0,5.366,2.403,5.366,5.367V356.899z"/>
					</g>
					<g id="XMLID_3501_">
						<path fill="#4C3937" d="M671.647,356.899h-10.731v-13.443c0-2.964,2.402-5.366,5.365-5.366l0,0
							c2.964,0,5.366,2.402,5.366,5.366V356.899z"/>
					</g>
					<g id="XMLID_3500_">
						<path fill="#E1E0E2" d="M670.811,356.088h-9.058v-12.657c0-2.502,2.027-4.53,4.528-4.53l0,0c2.502,0,4.529,2.028,4.529,4.53
							V356.088z"/>
					</g>
					<g id="XMLID_3499_">
						<path fill="#040704" d="M670.277,355.337h-7.991v-11.428c0-2.207,1.788-3.997,3.995-3.997l0,0c2.207,0,3.996,1.79,3.996,3.997
							V355.337z"/>
					</g>
					<g id="XMLID_3498_">
						<path fill="#5C6074" d="M669.799,354.805h-7.035v-10.838c0-1.943,1.575-3.519,3.518-3.519l0,0
							c1.943,0,3.518,1.575,3.518,3.519V354.805z"/>
					</g>
					<g id="XMLID_3497_">
						<rect x="662.286" y="344.505" fill="#040704" width="7.991" height="0.437"/>
					</g>
				</g>
			</g>
			<g id="XMLID_3490_">
				<g id="XMLID_3494_">
					<rect x="660.95" y="367.933" fill="#FDF3EF" width="10.663" height="20.126"/>
				</g>
				<g id="XMLID_3493_">
					<rect x="661.864" y="368.796" fill="#080004" width="8.794" height="18.399"/>
				</g>
				<g id="XMLID_3492_">
					<rect x="662.474" y="369.407" fill="#4E5567" width="7.616" height="17.134"/>
				</g>
				<g id="XMLID_3491_">
					<rect x="661.864" y="373.924" fill="#080004" width="8.794" height="0.468"/>
				</g>
			</g>
			<g id="XMLID_3481_">
				<g id="XMLID_3483_">
					<g id="XMLID_3489_">
						<rect x="661.164" y="396.248" fill="#FDF3EF" width="10.663" height="20.125"/>
					</g>
					<g id="XMLID_3488_">
						<rect x="662.078" y="397.11" fill="#080004" width="8.794" height="18.4"/>
					</g>
					<g id="XMLID_3487_">
						<rect x="662.688" y="397.723" fill="#F0EDDF" width="7.616" height="17.133"/>
					</g>
					<g id="XMLID_3486_">
						<rect x="662.078" y="402.238" fill="#080004" width="8.794" height="0.469"/>
					</g>
					<g id="XMLID_3485_">
						<rect x="662.099" y="406.778" fill="#080004" width="8.794" height="0.468"/>
					</g>
					<g id="XMLID_3484_">
						<rect x="662.078" y="411.038" fill="#080004" width="8.794" height="0.468"/>
					</g>
				</g>
				<g id="XMLID_3482_">
					<rect x="666.241" y="397.11" fill="#080004" width="0.468" height="18.4"/>
				</g>
			</g>
			<g id="XMLID_3472_">
				<g id="XMLID_3474_">
					<g id="XMLID_3480_">
						<rect x="660.95" y="424.376" fill="#FDF3EF" width="10.663" height="20.125"/>
					</g>
					<g id="XMLID_3479_">
						<rect x="661.864" y="425.238" fill="#080004" width="8.794" height="18.4"/>
					</g>
					<g id="XMLID_3478_">
						<rect x="662.474" y="425.85" fill="#F0EDDF" width="7.616" height="17.134"/>
					</g>
					<g id="XMLID_3477_">
						<rect x="661.864" y="430.366" fill="#080004" width="8.794" height="0.468"/>
					</g>
					<g id="XMLID_3476_">
						<rect x="661.885" y="434.906" fill="#080004" width="8.794" height="0.468"/>
					</g>
					<g id="XMLID_3475_">
						<rect x="661.864" y="439.165" fill="#080004" width="8.794" height="0.469"/>
					</g>
				</g>
				<g id="XMLID_3473_">
					<rect x="666.027" y="425.238" fill="#080004" width="0.468" height="18.4"/>
				</g>
			</g>
		</g>
	</g>
	<g id="XMLID_3469_">
		<rect x="625.048" y="331.641" fill="#8C8B97" width="31.814" height="1.622"/>
	</g>
	<g id="XMLID_3466_">
		<g id="XMLID_3468_">
			<rect x="606.344" y="362.026" fill="#D3D4D3" width="69.128" height="2.098"/>
		</g>
		<g id="XMLID_3467_">
			<rect x="606.344" y="364.124" fill="#131219" width="69.128" height="0.794"/>
		</g>
	</g>
	<g id="XMLID_3463_">
		<g id="XMLID_3465_">
			<rect x="606.344" y="418.607" fill="#D3D4D3" width="69.225" height="2.099"/>
		</g>
		<g id="XMLID_3464_">
			<rect x="606.344" y="420.706" fill="#131219" width="69.225" height="0.794"/>
		</g>
	</g>
	<g id="XMLID_3460_">
		<g id="XMLID_3462_">
			<rect x="606.344" y="390.386" fill="#D3D4D3" width="69.225" height="2.099"/>
		</g>
		<g id="XMLID_3461_">
			<rect x="606.344" y="392.484" fill="#131219" width="69.225" height="0.794"/>
		</g>
	</g>
	<g id="XMLID_3457_">
		<g id="XMLID_3459_">
			<rect x="606.344" y="446.721" fill="#D3D4D3" width="69.225" height="2.099"/>
		</g>
		<g id="XMLID_3458_">
			<rect x="606.344" y="448.819" fill="#131219" width="69.225" height="0.794"/>
		</g>
	</g>
	<g id="XMLID_3456_">
		<rect x="625.048" y="333.263" fill="#0A7075" width="31.814" height="185.84"/>
	</g>
	<g id="XMLID_3403_">
		<g id="XMLID_3443_">
			<g id="XMLID_3446_">
				<g id="XMLID_3455_">
					<path fill="#080004" d="M649.592,359.936h-17.554v-22.42c0.83-0.83,1.296-1.296,2.126-2.126h13.301
						c0.83,0.831,1.296,1.297,2.127,2.128V359.936z"/>
				</g>
				<g id="XMLID_3454_">
					<path fill="#EFF1E9" d="M648.917,358.954h-16.204v-20.966c0.771-0.771,1.204-1.204,1.976-1.976h12.253
						c0.771,0.771,1.204,1.204,1.976,1.976V358.954z"/>
				</g>
				<g id="XMLID_3453_">
					<path fill="#42403F" d="M648.148,358.091h-14.666v-19.354c0.704-0.704,1.1-1.1,1.804-1.805h11.057
						c0.705,0.705,1.101,1.101,1.806,1.805V358.091z"/>
				</g>
				<g id="XMLID_3452_">
					<path fill="#4C618C" d="M647.405,357.109h-13.181V339.49c0.638-0.638,0.995-0.995,1.632-1.633h9.917
						c0.637,0.638,0.994,0.995,1.632,1.633V357.109z"/>
				</g>
				<g id="XMLID_3451_">
					<rect x="640.531" y="337.158" fill="#42403F" width="0.567" height="20.933"/>
				</g>
				<g id="XMLID_3450_">
					<rect x="637.104" y="337.158" fill="#42403F" width="0.567" height="20.933"/>
				</g>
				<g id="XMLID_3449_">
					<rect x="643.915" y="337.158" fill="#42403F" width="0.567" height="20.933"/>
				</g>
				<g id="XMLID_3448_">
					<rect x="633.482" y="342.705" fill="#42403F" width="14.666" height="0.438"/>
				</g>
				<g id="XMLID_3447_">
					<rect x="633.482" y="351.179" fill="#42403F" width="14.666" height="0.437"/>
				</g>
			</g>
			<g id="XMLID_3445_">
				<rect x="625.048" y="359.936" fill="#ABACA9" width="31.818" height="2.121"/>
			</g>
			<g id="XMLID_3444_">
				<rect x="625.048" y="362.057" fill="#131219" width="31.818" height="1.049"/>
			</g>
		</g>
		<g id="XMLID_3430_">
			<g id="XMLID_3433_">
				<g id="XMLID_3442_">
					<path fill="#080004" d="M649.687,388.157h-17.554v-22.419c0.83-0.831,1.296-1.297,2.126-2.127h13.301
						c0.831,0.83,1.296,1.296,2.127,2.127V388.157z"/>
				</g>
				<g id="XMLID_3441_">
					<path fill="#EFF1E9" d="M649.012,387.176h-16.204V366.21c0.771-0.771,1.204-1.204,1.975-1.976h12.254
						c0.771,0.771,1.204,1.204,1.976,1.976V387.176z"/>
				</g>
				<g id="XMLID_3440_">
					<path fill="#42403F" d="M648.242,386.312h-14.666v-19.354c0.705-0.705,1.101-1.101,1.805-1.805h11.057
						c0.705,0.704,1.101,1.1,1.805,1.805V386.312z"/>
				</g>
				<g id="XMLID_3439_">
					<path fill="#4C618C" d="M647.499,385.33h-13.18v-17.619c0.638-0.637,0.995-0.994,1.632-1.632h9.916
						c0.638,0.638,0.995,0.995,1.632,1.632V385.33z"/>
				</g>
				<g id="XMLID_3438_">
					<rect x="640.626" y="365.38" fill="#42403F" width="0.567" height="20.933"/>
				</g>
				<g id="XMLID_3437_">
					<rect x="637.198" y="365.38" fill="#42403F" width="0.567" height="20.933"/>
				</g>
				<g id="XMLID_3436_">
					<rect x="644.01" y="365.38" fill="#42403F" width="0.567" height="20.933"/>
				</g>
				<g id="XMLID_3435_">
					<rect x="633.576" y="370.927" fill="#42403F" width="14.666" height="0.437"/>
				</g>
				<g id="XMLID_3434_">
					<rect x="633.576" y="379.4" fill="#42403F" width="14.666" height="0.437"/>
				</g>
			</g>
			<g id="XMLID_3432_">
				<rect x="625.044" y="388.157" fill="#ABACA9" width="31.728" height="2.121"/>
			</g>
			<g id="XMLID_3431_">
				<rect x="625.044" y="390.278" fill="#131219" width="31.728" height="1.048"/>
			</g>
		</g>
		<g id="XMLID_3417_">
			<g id="XMLID_3420_">
				<g id="XMLID_3429_">
					<path fill="#080004" d="M649.781,416.378h-17.554v-22.419c0.83-0.83,1.296-1.296,2.126-2.127h13.301
						c0.831,0.831,1.296,1.297,2.127,2.127V416.378z"/>
				</g>
				<g id="XMLID_3428_">
					<path fill="#EFF1E9" d="M649.106,415.396h-16.204v-20.965c0.771-0.771,1.203-1.204,1.975-1.976h12.254
						c0.771,0.771,1.204,1.204,1.976,1.976V415.396z"/>
				</g>
				<g id="XMLID_3427_">
					<path fill="#42403F" d="M648.337,414.533h-14.666V395.18c0.705-0.705,1.101-1.101,1.805-1.806h11.057
						c0.705,0.705,1.101,1.101,1.805,1.806V414.533z"/>
				</g>
				<g id="XMLID_3426_">
					<path fill="#4C618C" d="M647.594,413.552h-13.18v-17.619c0.638-0.638,0.995-0.995,1.632-1.632h9.916
						c0.638,0.637,0.995,0.994,1.632,1.632V413.552z"/>
				</g>
				<g id="XMLID_3425_">
					<rect x="640.721" y="393.602" fill="#42403F" width="0.567" height="20.932"/>
				</g>
				<g id="XMLID_3424_">
					<rect x="637.293" y="393.602" fill="#42403F" width="0.567" height="20.932"/>
				</g>
				<g id="XMLID_3423_">
					<rect x="644.104" y="393.602" fill="#42403F" width="0.567" height="20.932"/>
				</g>
				<g id="XMLID_3422_">
					<rect x="633.671" y="399.148" fill="#42403F" width="14.666" height="0.437"/>
				</g>
				<g id="XMLID_3421_">
					<rect x="633.671" y="407.621" fill="#42403F" width="14.666" height="0.437"/>
				</g>
			</g>
			<g id="XMLID_3419_">
				<rect x="625.048" y="416.378" fill="#ABACA9" width="31.818" height="2.122"/>
			</g>
			<g id="XMLID_3418_">
				<rect x="625.048" y="418.5" fill="#131219" width="31.818" height="1.048"/>
			</g>
		</g>
		<g id="XMLID_3404_">
			<g id="XMLID_3407_">
				<g id="XMLID_3416_">
					<path fill="#080004" d="M649.876,444.6h-17.554v-22.42c0.83-0.83,1.295-1.296,2.126-2.126h13.3
						c0.831,0.831,1.297,1.297,2.128,2.127V444.6z"/>
				</g>
				<g id="XMLID_3415_">
					<path fill="#EFF1E9" d="M649.201,443.618h-16.204v-20.966c0.771-0.771,1.203-1.204,1.975-1.976h12.254
						c0.771,0.771,1.204,1.204,1.976,1.976V443.618z"/>
				</g>
				<g id="XMLID_3414_">
					<path fill="#42403F" d="M648.432,442.755h-14.666V423.4c0.705-0.705,1.1-1.1,1.805-1.805h11.057
						c0.705,0.705,1.1,1.1,1.805,1.805V442.755z"/>
				</g>
				<g id="XMLID_3413_">
					<path fill="#4C618C" d="M647.688,441.773h-13.18v-17.619c0.638-0.638,0.994-0.995,1.632-1.633h9.916
						c0.638,0.638,0.995,0.995,1.632,1.633V441.773z"/>
				</g>
				<g id="XMLID_3412_">
					<rect x="640.814" y="421.822" fill="#42403F" width="0.568" height="20.933"/>
				</g>
				<g id="XMLID_3411_">
					<rect x="637.387" y="421.822" fill="#42403F" width="0.568" height="20.933"/>
				</g>
				<g id="XMLID_3410_">
					<rect x="644.199" y="421.822" fill="#42403F" width="0.567" height="20.933"/>
				</g>
				<g id="XMLID_3409_">
					<rect x="633.766" y="427.369" fill="#42403F" width="14.666" height="0.437"/>
				</g>
				<g id="XMLID_3408_">
					<rect x="633.766" y="435.843" fill="#42403F" width="14.666" height="0.437"/>
				</g>
			</g>
			<g id="XMLID_3406_">
				<rect x="625.048" y="444.6" fill="#ABACA9" width="31.724" height="2.121"/>
			</g>
			<g id="XMLID_3405_">
				<rect x="625.048" y="446.721" fill="#131219" width="31.724" height="1.049"/>
			</g>
		</g>
	</g>
	<g id="XMLID_3402_">
		<rect x="606.344" y="449.613" fill="#038B98" width="69.175" height="69.489"/>
	</g>
	<g id="XMLID_3401_" opacity="0.4">
		<g>
			<rect x="623.38" y="327.147" fill="#150F0F" width="1.668" height="191.956"/>
		</g>
	</g>
	<g id="XMLID_3400_" opacity="0.4">
		<g>
			<rect x="656.862" y="327.147" fill="#150F0F" width="1.668" height="191.956"/>
		</g>
	</g>
	<g id="XMLID_3399_">
		<rect x="625.048" y="447.77" fill="#150F0F" width="31.814" height="71.333"/>
	</g>
	<g id="XMLID_3376_">
		<g id="XMLID_3391_">
			<g id="XMLID_3398_">
				<path fill="#33394F" d="M651.731,483.755h-21.087V460.9c0-5.824,4.721-10.546,10.543-10.546l0,0
					c5.823,0,10.544,4.722,10.544,10.546V483.755z"/>
			</g>
			<g id="XMLID_3395_">
				<g id="XMLID_3397_">
					<path fill="#262625" d="M650.386,481.623H631.99v-19.939c0-5.08,4.118-9.198,9.197-9.198l0,0c5.08,0,9.198,4.118,9.198,9.198
						V481.623z"/>
				</g>
				<g id="XMLID_3396_">
					<path fill="#FDF3EF" d="M650.386,481.623H631.99V462.63c0-4.981,4.037-9.021,9.019-9.021h0.358c4.98,0,9.019,4.039,9.019,9.021
						V481.623z"/>
				</g>
			</g>
			<g id="XMLID_3394_">
				<path fill="#534C3E" d="M649.474,480.234h-16.571v-16.948c0-4.577,3.71-8.287,8.285-8.287l0,0c4.576,0,8.286,3.71,8.286,8.287
					V480.234z"/>
			</g>
			<g id="XMLID_3393_">
				<rect x="631.99" y="463.356" fill="#FDF3EF" width="18.396" height="1.453"/>
			</g>
			<g id="XMLID_3392_">
				<rect x="640.506" y="453.609" fill="#FDF3EF" width="1.364" height="28.014"/>
			</g>
		</g>
		<g id="XMLID_3384_">
			<g id="XMLID_3385_">
				<g id="XMLID_3390_">
					<path fill="#33394F" d="M620.486,481.555h-10.731v-23.634c0-2.964,2.402-5.367,5.366-5.367l0,0
						c2.963,0,5.365,2.403,5.365,5.367V481.555z"/>
				</g>
				<g id="XMLID_3389_">
					<path fill="#E1E0E2" d="M619.649,480.305h-9.058v-21.97c0-2.502,2.027-4.53,4.529-4.53l0,0c2.501,0,4.528,2.028,4.528,4.53
						V480.305z"/>
				</g>
				<g id="XMLID_3388_">
					<path fill="#040704" d="M619.116,479.146h-7.991v-19.784c0-2.207,1.789-3.997,3.996-3.997l0,0c2.207,0,3.995,1.79,3.995,3.997
						V479.146z"/>
				</g>
				<g id="XMLID_3387_">
					<path fill="#5C6074" d="M618.639,478.326h-7.035v-18.617c0-1.943,1.574-3.519,3.518-3.519l0,0c1.942,0,3.518,1.575,3.518,3.519
						V478.326z"/>
				</g>
				<g id="XMLID_3386_">
					<rect x="611.125" y="462.445" fill="#040704" width="7.991" height="0.674"/>
				</g>
			</g>
		</g>
		<g id="XMLID_3377_">
			<g id="XMLID_3378_">
				<g id="XMLID_3383_">
					<path fill="#33394F" d="M673.01,481.555h-10.73v-23.634c0-2.964,2.402-5.367,5.365-5.367l0,0c2.963,0,5.365,2.403,5.365,5.367
						V481.555z"/>
				</g>
				<g id="XMLID_3382_">
					<path fill="#E1E0E2" d="M672.174,480.305h-9.059v-21.97c0-2.502,2.027-4.53,4.529-4.53l0,0c2.501,0,4.529,2.028,4.529,4.53
						V480.305z"/>
				</g>
				<g id="XMLID_3381_">
					<path fill="#040704" d="M671.641,479.146h-7.992v-19.784c0-2.207,1.789-3.997,3.996-3.997l0,0c2.207,0,3.996,1.79,3.996,3.997
						V479.146z"/>
				</g>
				<g id="XMLID_3380_">
					<path fill="#5C6074" d="M671.162,478.326h-7.035v-18.617c0-1.943,1.575-3.519,3.518-3.519l0,0c1.942,0,3.518,1.575,3.518,3.519
						V478.326z"/>
				</g>
				<g id="XMLID_3379_">
					<rect x="663.648" y="462.445" fill="#040704" width="7.992" height="0.674"/>
				</g>
			</g>
		</g>
	</g>
	<g id="XMLID_3375_">
		<rect x="606.391" y="483.755" fill="#FBF3F8" width="69.128" height="2.647"/>
	</g>
	<g id="XMLID_3374_">
		<rect x="606.391" y="486.402" fill="#2D2F3D" width="69.128" height="1.248"/>
	</g>
	<g id="XMLID_3353_">
		<g id="XMLID_3357_">
			<g id="XMLID_3373_">
				<rect x="630.437" y="492.705" fill="#33394F" width="21.503" height="26.522"/>
			</g>
			<g id="XMLID_3366_">
				<g id="XMLID_3370_">
					<g id="XMLID_3372_">
						<rect x="631.855" y="493.891" fill="#FAD0AB" width="3.136" height="3.62"/>
					</g>
					<g id="XMLID_3371_">
						<rect x="631.855" y="498.384" fill="#FAD0AB" width="3.136" height="9.493"/>
					</g>
				</g>
				<g id="XMLID_3367_">
					<g id="XMLID_3369_">
						<rect x="635.962" y="493.891" fill="#FAD0AB" width="3.136" height="3.62"/>
					</g>
					<g id="XMLID_3368_">
						<rect x="635.962" y="498.384" fill="#FAD0AB" width="3.136" height="9.493"/>
					</g>
				</g>
			</g>
			<g id="XMLID_3359_">
				<g id="XMLID_3363_">
					<g id="XMLID_3365_">
						<rect x="643.129" y="493.891" fill="#FAD0AB" width="3.136" height="3.62"/>
					</g>
					<g id="XMLID_3364_">
						<rect x="643.129" y="498.384" fill="#FAD0AB" width="3.136" height="9.493"/>
					</g>
				</g>
				<g id="XMLID_3360_">
					<g id="XMLID_3362_">
						<rect x="647.235" y="493.891" fill="#FAD0AB" width="3.136" height="3.62"/>
					</g>
					<g id="XMLID_3361_">
						<rect x="647.235" y="498.384" fill="#FAD0AB" width="3.136" height="9.493"/>
					</g>
				</g>
			</g>
			<g id="XMLID_3358_">
				<rect x="641.001" y="492.705" fill="#21283A" width="0.374" height="26.522"/>
			</g>
		</g>
		<g id="XMLID_3356_">
			<rect x="630.437" y="491.645" fill="#473F4D" width="21.503" height="1.061"/>
		</g>
		<g id="XMLID_3355_">
			<rect x="630.437" y="492.705" fill="#000600" width="21.503" height="0.312"/>
		</g>
		<g id="XMLID_3354_">
			<rect x="630.437" y="487.65" fill="#C29E70" width="21.503" height="3.994"/>
		</g>
	</g>
	<g id="XMLID_3339_">
		<g id="XMLID_3347_">
			<g>
				<path fill="#33394F" d="M609.994,492.996v26.106h10.253v-26.106H609.994z M614.549,507.797h-3.136v-9.455h3.136V507.797z
					 M614.549,497.472h-3.136v-3.605h3.136V497.472z M618.655,507.797h-3.136v-9.455h3.136V507.797z M618.655,497.472h-3.136v-3.605
					h3.136V497.472z"/>
			</g>
		</g>
		<g id="XMLID_3346_">
			<rect x="611.413" y="493.866" fill="#FAD0AB" width="3.136" height="3.605"/>
		</g>
		<g id="XMLID_3345_">
			<rect x="611.413" y="498.342" fill="#FAD0AB" width="3.136" height="9.455"/>
		</g>
		<g id="XMLID_3344_">
			<rect x="615.52" y="493.866" fill="#FAD0AB" width="3.136" height="3.605"/>
		</g>
		<g id="XMLID_3343_">
			<rect x="615.52" y="498.342" fill="#FAD0AB" width="3.136" height="9.455"/>
		</g>
		<g id="XMLID_3342_">
			<rect x="609.994" y="491.629" fill="#473F4D" width="10.253" height="1.057"/>
		</g>
		<g id="XMLID_3341_">
			<rect x="609.994" y="492.686" fill="#000600" width="10.253" height="0.311"/>
		</g>
		<g id="XMLID_3340_">
			<rect x="609.994" y="487.65" fill="#C29E70" width="10.253" height="3.979"/>
		</g>
	</g>
	<g id="XMLID_3331_">
		<g id="XMLID_3338_">
			<rect x="663.937" y="493.866" fill="#FAD0AB" width="3.136" height="3.605"/>
		</g>
		<g id="XMLID_3337_">
			<rect x="663.937" y="498.342" fill="#FAD0AB" width="3.136" height="9.455"/>
		</g>
		<g id="XMLID_3336_">
			<rect x="668.043" y="493.866" fill="#FAD0AB" width="3.136" height="3.605"/>
		</g>
		<g id="XMLID_3335_">
			<rect x="668.043" y="498.342" fill="#FAD0AB" width="3.136" height="9.455"/>
		</g>
		<g id="XMLID_3334_">
			<rect x="662.519" y="491.629" fill="#473F4D" width="10.252" height="1.057"/>
		</g>
		<g id="XMLID_3333_">
			<rect x="662.519" y="492.686" fill="#000600" width="10.252" height="0.311"/>
		</g>
		<g id="XMLID_3332_">
			<rect x="662.519" y="487.65" fill="#C29E70" width="10.252" height="3.979"/>
		</g>
	</g>
</g>
</svg>
