<?xml version="1.0" encoding="utf-8"?>
<!-- Generator: Adobe Illustrator 16.0.0, SVG Export Plug-In . SVG Version: 6.00 Build 0)  -->
<!DOCTYPE svg PUBLIC "-//W3C//DTD SVG 1.1//EN" "http://www.w3.org/Graphics/SVG/1.1/DTD/svg11.dtd">
<svg version="1.1" id="Layer_1" xmlns="http://www.w3.org/2000/svg" xmlns:xlink="http://www.w3.org/1999/xlink" x="0px" y="0px"
	 width="1280px" height="800px" viewBox="0 0 1280 800" enable-background="new 0 0 1280 800" xml:space="preserve">
<g id="XMLID_1_">
	<g id="XMLID_188_">
		<g id="XMLID_207_">
			<rect x="716.59" y="339.867" fill="#FFF4E7" width="4.268" height="1.67"/>
		</g>
		<g id="XMLID_206_">
			<rect x="679.161" y="339.867" fill="#FFF4E7" width="4.268" height="1.67"/>
		</g>
		<g id="XMLID_205_">
			<rect x="716.59" y="341.537" fill="#281912" width="4.268" height="0.98"/>
		</g>
		<g id="XMLID_204_">
			<rect x="679.161" y="341.537" fill="#281912" width="4.268" height="0.98"/>
		</g>
		<g id="XMLID_203_">
			<polygon fill="#A06D1A" points="716.59,341.537 716.59,339.867 716.59,334.429 713.602,334.429 713.602,333.448 713.602,331.778 
				713.602,327.496 708.305,327.496 708.305,326.516 708.305,324.846 708.305,319.111 702.492,319.111 702.492,318.131 
				702.492,316.461 702.492,312.358 697.526,312.358 697.526,316.461 697.526,318.131 697.526,319.111 691.714,319.111 
				691.714,324.846 691.714,326.516 691.714,327.496 686.417,327.496 686.417,331.778 686.417,333.448 686.417,334.429 
				683.429,334.429 683.429,339.867 683.429,341.537 683.429,342.518 679.161,342.518 679.161,353.373 720.857,353.373 
				720.857,342.518 716.59,342.518 			"/>
		</g>
		<g id="XMLID_202_">
			<rect x="713.602" y="331.778" fill="#FFF4E7" width="2.988" height="1.67"/>
		</g>
		<g id="XMLID_201_">
			<rect x="683.429" y="331.778" fill="#FFF4E7" width="2.988" height="1.67"/>
		</g>
		<g id="XMLID_200_">
			<rect x="683.429" y="333.448" fill="#281912" width="2.988" height="0.98"/>
		</g>
		<g id="XMLID_199_">
			<rect x="713.602" y="333.448" fill="#281912" width="2.988" height="0.98"/>
		</g>
		<g id="XMLID_198_">
			<rect x="708.305" y="324.846" fill="#FFF4E7" width="5.297" height="1.67"/>
		</g>
		<g id="XMLID_197_">
			<rect x="686.417" y="324.846" fill="#FFF4E7" width="5.297" height="1.67"/>
		</g>
		<g id="XMLID_196_">
			<rect x="708.305" y="326.516" fill="#281912" width="5.297" height="0.98"/>
		</g>
		<g id="XMLID_195_">
			<rect x="686.417" y="326.516" fill="#281912" width="5.297" height="0.98"/>
		</g>
		<g id="XMLID_194_">
			<rect x="691.714" y="316.461" fill="#FFF4E7" width="5.812" height="1.67"/>
		</g>
		<g id="XMLID_193_">
			<rect x="702.492" y="316.461" fill="#FFF4E7" width="5.812" height="1.67"/>
		</g>
		<g id="XMLID_192_">
			<rect x="691.714" y="318.131" fill="#281912" width="5.812" height="0.98"/>
		</g>
		<g id="XMLID_191_">
			<rect x="702.492" y="318.131" fill="#281912" width="5.812" height="0.98"/>
		</g>
		<g id="XMLID_190_">
			<polygon fill="#FFF4E7" points="702.492,311.377 702.492,309.707 697.526,309.707 697.526,309.707 697.526,311.377 			"/>
		</g>
		<g id="XMLID_189_">
			<polygon fill="#281912" points="702.492,311.377 697.526,311.377 697.526,312.358 697.526,312.358 702.492,312.358 			"/>
		</g>
	</g>
	<g id="XMLID_187_">
		<rect x="670.062" y="352.189" fill="#FFF4E7" width="59.896" height="1.67"/>
	</g>
	<g id="XMLID_186_">
		<rect x="670.062" y="353.859" fill="#281912" width="59.896" height="0.98"/>
	</g>
	<g id="XMLID_17_">
		<g id="XMLID_185_">
			<rect x="670.062" y="353.859" fill="#FBB22B" width="59.896" height="136.62"/>
		</g>
		<g id="XMLID_184_">
			<rect x="670.062" y="360.11" fill="#FAF3E4" width="59.896" height="1.866"/>
		</g>
		<g id="XMLID_129_">
			<g id="XMLID_166_">
				<g id="XMLID_183_">
					<rect x="675.358" y="361.977" fill="#827A78" width="12.835" height="52.636"/>
				</g>
				<g id="XMLID_175_">
					<g id="XMLID_177_">
						<g id="XMLID_182_">
							<rect x="675.358" y="362.914" fill="#FAF3E4" width="12.835" height="21.717"/>
						</g>
						<g id="XMLID_181_">
							<rect x="676.291" y="364.137" fill="#262500" width="10.971" height="19.271"/>
						</g>
						<g id="XMLID_180_">
							<rect x="676.938" y="364.826" fill="#D6E2F0" width="9.678" height="17.893"/>
						</g>
						<g id="XMLID_179_">
							<rect x="681.521" y="364.548" fill="#262500" width="0.509" height="18.171"/>
						</g>
						<g id="XMLID_178_">
							<rect x="676.291" y="373.378" fill="#262500" width="10.971" height="0.511"/>
						</g>
					</g>
					<g id="XMLID_176_">
						<rect x="675.358" y="361.977" fill="#281912" width="12.835" height="0.938"/>
					</g>
				</g>
				<g id="XMLID_167_">
					<g id="XMLID_169_">
						<g id="XMLID_174_">
							<rect x="675.358" y="392.896" fill="#FAF3E4" width="12.835" height="21.717"/>
						</g>
						<g id="XMLID_173_">
							<rect x="676.291" y="394.119" fill="#262500" width="10.971" height="19.27"/>
						</g>
						<g id="XMLID_172_">
							<rect x="676.938" y="394.808" fill="#D6E2F0" width="9.678" height="17.893"/>
						</g>
						<g id="XMLID_171_">
							<rect x="681.521" y="394.529" fill="#262500" width="0.509" height="18.171"/>
						</g>
						<g id="XMLID_170_">
							<rect x="676.291" y="403.36" fill="#262500" width="10.971" height="0.51"/>
						</g>
					</g>
					<g id="XMLID_168_">
						<rect x="675.358" y="391.959" fill="#281912" width="12.835" height="0.937"/>
					</g>
				</g>
			</g>
			<g id="XMLID_148_">
				<g id="XMLID_165_">
					<rect x="711.825" y="361.977" fill="#827A78" width="12.835" height="52.636"/>
				</g>
				<g id="XMLID_157_">
					<g id="XMLID_159_">
						<g id="XMLID_164_">
							<rect x="711.825" y="362.914" fill="#FAF3E4" width="12.835" height="21.717"/>
						</g>
						<g id="XMLID_163_">
							<rect x="712.757" y="364.137" fill="#262500" width="10.971" height="19.271"/>
						</g>
						<g id="XMLID_162_">
							<rect x="713.403" y="364.826" fill="#D6E2F0" width="9.678" height="17.893"/>
						</g>
						<g id="XMLID_161_">
							<rect x="717.988" y="364.548" fill="#262500" width="0.509" height="18.171"/>
						</g>
						<g id="XMLID_160_">
							<rect x="712.757" y="373.378" fill="#262500" width="10.971" height="0.511"/>
						</g>
					</g>
					<g id="XMLID_158_">
						<rect x="711.825" y="361.977" fill="#281912" width="12.835" height="0.938"/>
					</g>
				</g>
				<g id="XMLID_149_">
					<g id="XMLID_151_">
						<g id="XMLID_156_">
							<rect x="711.825" y="392.896" fill="#FAF3E4" width="12.835" height="21.717"/>
						</g>
						<g id="XMLID_155_">
							<rect x="712.757" y="394.119" fill="#262500" width="10.971" height="19.27"/>
						</g>
						<g id="XMLID_154_">
							<rect x="713.403" y="394.808" fill="#D6E2F0" width="9.678" height="17.893"/>
						</g>
						<g id="XMLID_153_">
							<rect x="717.988" y="394.529" fill="#262500" width="0.509" height="18.171"/>
						</g>
						<g id="XMLID_152_">
							<rect x="712.757" y="403.36" fill="#262500" width="10.971" height="0.51"/>
						</g>
					</g>
					<g id="XMLID_150_">
						<rect x="711.825" y="391.959" fill="#281912" width="12.835" height="0.937"/>
					</g>
				</g>
			</g>
			<g id="XMLID_130_">
				<g id="XMLID_147_">
					<rect x="694" y="361.977" fill="#827A78" width="12.834" height="52.636"/>
				</g>
				<g id="XMLID_139_">
					<g id="XMLID_141_">
						<g id="XMLID_146_">
							<rect x="694" y="362.914" fill="#FAF3E4" width="12.834" height="21.717"/>
						</g>
						<g id="XMLID_145_">
							<rect x="694.932" y="364.137" fill="#262500" width="10.971" height="19.271"/>
						</g>
						<g id="XMLID_144_">
							<rect x="695.578" y="364.826" fill="#D6E2F0" width="9.678" height="17.893"/>
						</g>
						<g id="XMLID_143_">
							<rect x="700.162" y="364.548" fill="#262500" width="0.509" height="18.171"/>
						</g>
						<g id="XMLID_142_">
							<rect x="694.932" y="373.378" fill="#262500" width="10.971" height="0.511"/>
						</g>
					</g>
					<g id="XMLID_140_">
						<rect x="694" y="361.977" fill="#281912" width="12.834" height="0.938"/>
					</g>
				</g>
				<g id="XMLID_131_">
					<g id="XMLID_133_">
						<g id="XMLID_138_">
							<rect x="694" y="392.896" fill="#FAF3E4" width="12.834" height="21.717"/>
						</g>
						<g id="XMLID_137_">
							<rect x="694.932" y="394.119" fill="#262500" width="10.971" height="19.27"/>
						</g>
						<g id="XMLID_136_">
							<rect x="695.578" y="394.808" fill="#D6E2F0" width="9.678" height="17.893"/>
						</g>
						<g id="XMLID_135_">
							<rect x="700.162" y="394.529" fill="#262500" width="0.509" height="18.171"/>
						</g>
						<g id="XMLID_134_">
							<rect x="694.932" y="403.36" fill="#262500" width="10.971" height="0.51"/>
						</g>
					</g>
					<g id="XMLID_132_">
						<rect x="694" y="391.959" fill="#281912" width="12.834" height="0.937"/>
					</g>
				</g>
			</g>
		</g>
		<g id="XMLID_128_">
			<rect x="670.062" y="417.645" fill="#FFF7E7" width="59.896" height="6.253"/>
		</g>
		<g id="XMLID_127_">
			<rect x="670.062" y="419.819" fill="#F1DDAE" width="59.896" height="2.35"/>
		</g>
		<g id="XMLID_126_">
			<rect x="670.062" y="422.169" fill="#C4B67D" width="59.896" height="0.777"/>
		</g>
		<g id="XMLID_64_">
			<g id="XMLID_85_">
				<g id="XMLID_106_">
					<g id="XMLID_108_">
						<g id="XMLID_125_">
							<rect x="676.147" y="423.897" fill="#827A78" width="11.767" height="48.256"/>
						</g>
						<g id="XMLID_117_">
							<g id="XMLID_119_">
								<g id="XMLID_124_">
									<rect x="676.147" y="424.757" fill="#FAF3E4" width="11.767" height="19.909"/>
								</g>
								<g id="XMLID_123_">
									<rect x="677.002" y="425.878" fill="#262500" width="10.058" height="17.667"/>
								</g>
								<g id="XMLID_122_">
									<rect x="677.595" y="426.51" fill="#D6E2F0" width="8.872" height="16.403"/>
								</g>
								<g id="XMLID_121_">
									<rect x="681.797" y="426.255" fill="#262500" width="0.468" height="16.658"/>
								</g>
								<g id="XMLID_120_">
									<rect x="677.002" y="434.351" fill="#262500" width="10.058" height="0.468"/>
								</g>
							</g>
							<g id="XMLID_118_">
								<rect x="676.147" y="423.897" fill="#281912" width="11.767" height="0.859"/>
							</g>
						</g>
						<g id="XMLID_109_">
							<g id="XMLID_111_">
								<g id="XMLID_116_">
									<rect x="676.147" y="452.244" fill="#FAF3E4" width="11.767" height="19.909"/>
								</g>
								<g id="XMLID_115_">
									<rect x="677.002" y="453.365" fill="#262500" width="10.058" height="17.667"/>
								</g>
								<g id="XMLID_114_">
									<rect x="677.595" y="453.997" fill="#D6E2F0" width="8.872" height="16.403"/>
								</g>
								<g id="XMLID_113_">
									<rect x="681.797" y="453.742" fill="#262500" width="0.468" height="16.658"/>
								</g>
								<g id="XMLID_112_">
									<rect x="677.002" y="461.838" fill="#262500" width="10.058" height="0.467"/>
								</g>
							</g>
							<g id="XMLID_110_">
								<rect x="676.147" y="451.385" fill="#281912" width="11.767" height="0.859"/>
							</g>
						</g>
					</g>
					<g id="XMLID_107_">
						<rect x="676.147" y="444.666" fill="#37464A" width="11.767" height="7.578"/>
					</g>
				</g>
				<g id="XMLID_86_">
					<g id="XMLID_88_">
						<g id="XMLID_105_">
							<rect x="712.104" y="423.897" fill="#827A78" width="11.767" height="48.256"/>
						</g>
						<g id="XMLID_97_">
							<g id="XMLID_99_">
								<g id="XMLID_104_">
									<rect x="712.104" y="424.757" fill="#FAF3E4" width="11.767" height="19.909"/>
								</g>
								<g id="XMLID_103_">
									<rect x="712.959" y="425.878" fill="#262500" width="10.058" height="17.667"/>
								</g>
								<g id="XMLID_102_">
									<rect x="713.552" y="426.51" fill="#D6E2F0" width="8.872" height="16.403"/>
								</g>
								<g id="XMLID_101_">
									<rect x="717.755" y="426.255" fill="#262500" width="0.467" height="16.658"/>
								</g>
								<g id="XMLID_100_">
									<rect x="712.959" y="434.351" fill="#262500" width="10.058" height="0.468"/>
								</g>
							</g>
							<g id="XMLID_98_">
								<rect x="712.104" y="423.897" fill="#281912" width="11.767" height="0.859"/>
							</g>
						</g>
						<g id="XMLID_89_">
							<g id="XMLID_91_">
								<g id="XMLID_96_">
									<rect x="712.104" y="452.244" fill="#FAF3E4" width="11.767" height="19.909"/>
								</g>
								<g id="XMLID_95_">
									<rect x="712.959" y="453.365" fill="#262500" width="10.058" height="17.667"/>
								</g>
								<g id="XMLID_94_">
									<rect x="713.552" y="453.997" fill="#D6E2F0" width="8.872" height="16.403"/>
								</g>
								<g id="XMLID_93_">
									<rect x="717.755" y="453.742" fill="#262500" width="0.467" height="16.658"/>
								</g>
								<g id="XMLID_92_">
									<rect x="712.959" y="461.838" fill="#262500" width="10.058" height="0.467"/>
								</g>
							</g>
							<g id="XMLID_90_">
								<rect x="712.104" y="451.385" fill="#281912" width="11.767" height="0.859"/>
							</g>
						</g>
					</g>
					<g id="XMLID_87_">
						<rect x="712.104" y="444.666" fill="#37464A" width="11.767" height="7.578"/>
					</g>
				</g>
			</g>
			<g id="XMLID_65_">
				<g id="XMLID_67_">
					<g id="XMLID_84_">
						<rect x="694.126" y="423.897" fill="#827A78" width="11.767" height="48.256"/>
					</g>
					<g id="XMLID_76_">
						<g id="XMLID_78_">
							<g id="XMLID_83_">
								<rect x="694.126" y="424.757" fill="#FAF3E4" width="11.767" height="19.909"/>
							</g>
							<g id="XMLID_82_">
								<rect x="694.98" y="425.878" fill="#262500" width="10.058" height="17.667"/>
							</g>
							<g id="XMLID_81_">
								<rect x="695.573" y="426.51" fill="#D6E2F0" width="8.872" height="16.403"/>
							</g>
							<g id="XMLID_80_">
								<rect x="699.775" y="426.255" fill="#262500" width="0.468" height="16.658"/>
							</g>
							<g id="XMLID_79_">
								<rect x="694.98" y="434.351" fill="#262500" width="10.058" height="0.468"/>
							</g>
						</g>
						<g id="XMLID_77_">
							<rect x="694.126" y="423.897" fill="#281912" width="11.767" height="0.859"/>
						</g>
					</g>
					<g id="XMLID_68_">
						<g id="XMLID_70_">
							<g id="XMLID_75_">
								<rect x="694.126" y="452.244" fill="#FAF3E4" width="11.767" height="19.909"/>
							</g>
							<g id="XMLID_74_">
								<rect x="694.98" y="453.365" fill="#262500" width="10.058" height="17.667"/>
							</g>
							<g id="XMLID_73_">
								<rect x="695.573" y="453.997" fill="#D6E2F0" width="8.872" height="16.403"/>
							</g>
							<g id="XMLID_72_">
								<rect x="699.775" y="453.742" fill="#262500" width="0.468" height="16.658"/>
							</g>
							<g id="XMLID_71_">
								<rect x="694.98" y="461.838" fill="#262500" width="10.058" height="0.467"/>
							</g>
						</g>
						<g id="XMLID_69_">
							<rect x="694.126" y="451.385" fill="#281912" width="11.767" height="0.859"/>
						</g>
					</g>
				</g>
				<g id="XMLID_66_">
					<rect x="694.126" y="444.666" fill="#37464A" width="11.767" height="7.578"/>
				</g>
			</g>
		</g>
		<g id="XMLID_63_">
			<rect x="670.062" y="472.153" fill="#FDF9FF" width="59.896" height="18.326"/>
		</g>
		<g id="XMLID_62_">
			<rect x="670.062" y="472.153" fill="#FDFFFC" width="59.896" height="1.11"/>
		</g>
		<g id="XMLID_61_">
			<rect x="670.062" y="473.264" fill="#939698" width="59.896" height="0.611"/>
		</g>
		<g id="XMLID_55_">
			<g id="XMLID_60_">
				<rect x="693.948" y="475.356" fill="#1C0C07" width="12.122" height="15.123"/>
			</g>
			<g id="XMLID_59_">
				<rect x="694.769" y="476.082" fill="#FFFFF2" width="10.481" height="14.397"/>
			</g>
			<g id="XMLID_58_">
				<rect x="695.225" y="477.334" fill="#200B0A" width="9.569" height="13.146"/>
			</g>
			<g id="XMLID_57_">
				<rect x="696.076" y="478.227" fill="#624925" width="7.866" height="4.691"/>
			</g>
			<g id="XMLID_56_">
				<rect x="696.076" y="483.906" fill="#FFF4FF" width="7.866" height="5.507"/>
			</g>
		</g>
		<g id="XMLID_49_">
			<g id="XMLID_54_">
				<rect x="711.927" y="475.356" fill="#1C0C07" width="12.122" height="15.123"/>
			</g>
			<g id="XMLID_53_">
				<rect x="712.747" y="476.082" fill="#FFFFF2" width="10.481" height="14.397"/>
			</g>
			<g id="XMLID_52_">
				<rect x="713.203" y="477.334" fill="#200B0A" width="9.569" height="13.146"/>
			</g>
			<g id="XMLID_51_">
				<rect x="714.055" y="478.227" fill="#624925" width="7.866" height="4.691"/>
			</g>
			<g id="XMLID_50_">
				<rect x="714.055" y="483.906" fill="#FFF4FF" width="7.866" height="5.507"/>
			</g>
		</g>
		<g id="XMLID_39_">
			<g id="XMLID_45_">
				<g id="XMLID_46_">
					<path fill="#0F0908" d="M688.805,476.618h-18.743v-10.274h18.743V476.618z M670.615,476.048h17.637v-9.133h-17.637V476.048z"/>
				</g>
			</g>
			<g id="XMLID_40_">
				<g id="XMLID_43_">
					<g id="XMLID_44_">
						<rect x="672.111" y="466.344" fill="#0F0908" width="0.475" height="10.274"/>
					</g>
				</g>
				<g id="XMLID_41_">
					<g id="XMLID_42_">
						<rect x="682.232" y="466.344" fill="#0F0908" width="0.475" height="10.274"/>
					</g>
				</g>
			</g>
		</g>
		<g id="XMLID_25_">
			<g id="XMLID_28_">
				<g id="XMLID_38_">
					<rect x="700.831" y="482.369" fill="#0F0908" width="0.554" height="8.111"/>
				</g>
				<g id="XMLID_37_">
					<rect x="699.434" y="480.622" fill="#0F0908" width="0.553" height="9.858"/>
				</g>
				<g id="XMLID_36_">
					<rect x="698.036" y="478.876" fill="#0F0908" width="0.553" height="11.591"/>
				</g>
				<g id="XMLID_35_">
					<rect x="696.638" y="477.129" fill="#0F0908" width="0.554" height="11.592"/>
				</g>
				<g id="XMLID_34_">
					<rect x="695.24" y="475.383" fill="#0F0908" width="0.553" height="11.591"/>
				</g>
				<g id="XMLID_33_">
					<rect x="693.843" y="473.636" fill="#0F0908" width="0.553" height="11.592"/>
				</g>
				<g id="XMLID_32_">
					<rect x="692.444" y="471.89" fill="#0F0908" width="0.554" height="11.591"/>
				</g>
				<g id="XMLID_31_">
					<rect x="691.047" y="470.143" fill="#0F0908" width="0.554" height="11.592"/>
				</g>
				<g id="XMLID_30_">
					<rect x="689.649" y="468.396" fill="#0F0908" width="0.553" height="11.591"/>
				</g>
				<g id="XMLID_29_">
					<rect x="688.252" y="466.649" fill="#0F0908" width="0.553" height="11.592"/>
				</g>
			</g>
			<g id="XMLID_26_">
				<g id="XMLID_27_">
					<polygon fill="#0F0908" points="700.999,482.694 688.288,466.656 688.674,466.344 701.385,482.383 					"/>
				</g>
			</g>
		</g>
		<g id="XMLID_18_">
			<g id="XMLID_24_">
				<rect x="670.062" y="475.354" fill="#D7DBE7" width="18.743" height="15.126"/>
			</g>
			<g id="XMLID_19_">
				<g id="XMLID_23_">
					<rect x="688.041" y="479.846" fill="#D7DBE7" width="3.769" height="10.635"/>
				</g>
				<g id="XMLID_22_">
					<rect x="691.232" y="482.292" fill="#D7DBE7" width="3.769" height="8.188"/>
				</g>
				<g id="XMLID_21_">
					<rect x="694.424" y="484.739" fill="#D7DBE7" width="3.769" height="5.741"/>
				</g>
				<g id="XMLID_20_">
					<rect x="697.615" y="487.187" fill="#D7DBE7" width="3.77" height="3.294"/>
				</g>
			</g>
		</g>
	</g>
	<g id="XMLID_10_">
		<g id="XMLID_12_">
			<g id="XMLID_16_">
				<rect x="693.592" y="336.705" fill="#FAF3E4" width="12.835" height="21.717"/>
			</g>
			<g id="XMLID_15_">
				<rect x="694.524" y="337.929" fill="#262500" width="10.97" height="19.271"/>
			</g>
			<g id="XMLID_14_">
				<rect x="695.171" y="338.617" fill="#D6E2F0" width="9.678" height="17.893"/>
			</g>
			<g id="XMLID_13_">
				<rect x="699.755" y="338.34" fill="#262500" width="0.509" height="18.17"/>
			</g>
			<rect x="694.524" y="347.17" fill="#262500" width="10.97" height="0.51"/>
		</g>
		<g id="XMLID_11_">
			<rect x="693.592" y="335.769" fill="#281912" width="12.835" height="0.937"/>
		</g>
	</g>
	<g id="XMLID_2_">
		<g id="XMLID_4_">
			<g id="XMLID_9_">
				<rect x="696.673" y="323.14" fill="#FAF3E4" width="6.673" height="11.289"/>
			</g>
			<g id="XMLID_8_">
				<rect x="697.158" y="323.775" fill="#262500" width="5.702" height="10.018"/>
			</g>
			<g id="XMLID_7_">
				<rect x="697.494" y="324.134" fill="#D6E2F0" width="5.03" height="9.302"/>
			</g>
			<g id="XMLID_6_">
				<rect x="699.877" y="323.989" fill="#262500" width="0.265" height="9.446"/>
			</g>
			<g id="XMLID_5_">
				<rect x="697.158" y="328.58" fill="#262500" width="5.702" height="0.265"/>
			</g>
		</g>
		<g id="XMLID_3_">
			<rect x="696.673" y="322.652" fill="#281912" width="6.673" height="0.487"/>
		</g>
	</g>
</g>
</svg>
