<?xml version="1.0" encoding="utf-8"?>
<!-- Generator: Adobe Illustrator 16.0.0, SVG Export Plug-In . SVG Version: 6.00 Build 0)  -->
<!DOCTYPE svg PUBLIC "-//W3C//DTD SVG 1.1//EN" "http://www.w3.org/Graphics/SVG/1.1/DTD/svg11.dtd">
<svg version="1.1" id="Layer_1" xmlns="http://www.w3.org/2000/svg" xmlns:xlink="http://www.w3.org/1999/xlink" x="0px" y="0px"
	 width="1280px" height="800px" viewBox="0 0 1280 800" enable-background="new 0 0 1280 800" xml:space="preserve">
<g>
	<polygon fill="#4C1E13" points="689.104,350.471 592.147,350.471 600.018,324.24 682.752,324.24 	"/>
	<rect x="591.752" y="349.174" fill="#E26161" width="97.157" height="146.873"/>
	<rect x="591.752" y="347.715" fill="#80807E" width="5.111" height="139.777"/>
	<rect x="684.16" y="347.715" fill="#80807E" width="5.112" height="139.777"/>
	<rect x="591.752" y="487.974" fill="#B29B9B" width="97.157" height="8.073"/>
	<g>
		<path fill="#B29B9B" d="M596.542,478.692c0,1.524-1.233,2.761-2.757,2.761h-1.31c-1.284,0-1.156-1.236-1.156-2.761v-1.845
			c0-1.523,0.046-2.76,1.156-2.76h1.31c1.523,0,2.757,1.236,2.757,2.76V478.692z"/>
		<path fill="#C0C0C0" d="M595.761,476.99l-0.711-1.273c-0.589-1.055-1.915-1.431-2.97-0.845l-0.679,0.378
			c-0.074,0.454-0.082,1.001-0.082,1.598v1.845c0,0.74-0.027,1.405,0.087,1.9c0.657,0.418,1.507,0.483,2.236,0.077l1.274-0.713
			C595.97,479.371,596.345,478.043,595.761,476.99z"/>
		<path fill="#B29B9B" d="M596.542,471.029c0,1.525-1.233,2.76-2.757,2.76h-1.31c-1.284,0-1.156-1.234-1.156-2.76v-1.844
			c0-1.525,0.046-2.762,1.156-2.762h1.31c1.523,0,2.757,1.236,2.757,2.762V471.029z"/>
		<path fill="#C0C0C0" d="M595.254,468.294l-1.14-0.913c-0.788-0.635-1.879-0.624-2.657-0.05c-0.125,0.49-0.138,1.136-0.138,1.854
			v1.844c0,0.6-0.017,1.152,0.039,1.603l0.251,0.202c0.938,0.755,2.309,0.605,3.062-0.334l0.917-1.139
			C596.344,470.422,596.19,469.05,595.254,468.294z"/>
		<path fill="#B29B9B" d="M596.542,463.369c0,1.521-1.233,2.756-2.757,2.756h-1.31c-1.284,0-1.156-1.234-1.156-2.756v-1.85
			c0-1.521,0.046-2.76,1.156-2.76h1.31c1.523,0,2.757,1.238,2.757,2.76V463.369z"/>
		<path fill="#C0C0C0" d="M594.118,459.717l-1.438-0.27c-0.419-0.082-0.831-0.029-1.201,0.119c-0.151,0.498-0.159,1.191-0.159,1.953
			v1.85c0,0.66-0.017,1.26,0.061,1.736c0.074,0.021,0.146,0.051,0.226,0.066l1.437,0.268c1.182,0.223,2.323-0.559,2.547-1.742
			l0.268-1.435C596.083,461.08,595.299,459.937,594.118,459.717z"/>
	</g>
	<g>
		<path fill="#B29B9B" d="M596.508,456.413c0,1.511-1.223,2.741-2.74,2.741h-1.302c-1.274,0-1.146-1.23-1.146-2.741v-1.837
			c0-1.516,0.045-2.744,1.146-2.744h1.302c1.518,0,2.74,1.229,2.74,2.744V456.413z"/>
		<path fill="#C0C0C0" d="M595.732,454.719l-0.708-1.271c-0.581-1.044-1.903-1.419-2.946-0.837l-0.677,0.376
			c-0.074,0.45-0.082,0.995-0.082,1.589v1.837c0,0.732-0.027,1.392,0.084,1.885c0.656,0.415,1.504,0.48,2.225,0.076l1.269-0.706
			C595.939,457.086,596.315,455.764,595.732,454.719z"/>
		<path fill="#B29B9B" d="M596.508,448.795c0,1.514-1.223,2.741-2.74,2.741h-1.302c-1.274,0-1.146-1.228-1.146-2.741v-1.836
			c0-1.516,0.045-2.742,1.146-2.742h1.302c1.518,0,2.74,1.227,2.74,2.742V448.795z"/>
		<path fill="#C0C0C0" d="M595.232,446.074l-1.137-0.91c-0.787-0.631-1.866-0.618-2.639-0.049c-0.125,0.489-0.138,1.132-0.138,1.844
			v1.836c0,0.594-0.017,1.141,0.039,1.593l0.247,0.2c0.934,0.748,2.298,0.602,3.05-0.333l0.906-1.135
			C596.313,448.188,596.161,446.823,595.232,446.074z"/>
		<path fill="#B29B9B" d="M596.508,441.177c0,1.515-1.223,2.743-2.74,2.743h-1.302c-1.274,0-1.146-1.229-1.146-2.743v-1.837
			c0-1.512,0.045-2.742,1.146-2.742h1.302c1.518,0,2.74,1.23,2.74,2.742V441.177z"/>
		<path fill="#C0C0C0" d="M594.098,437.547l-1.425-0.268c-0.417-0.078-0.827-0.025-1.194,0.12c-0.151,0.495-0.159,1.183-0.159,1.94
			v1.837c0,0.658-0.017,1.253,0.059,1.727c0.076,0.022,0.148,0.054,0.226,0.066l1.431,0.267c1.17,0.221,2.308-0.555,2.527-1.729
			l0.269-1.427C596.052,438.903,595.275,437.768,594.098,437.547z"/>
	</g>
	<g>
		<path fill="#B29B9B" d="M596.542,424.695c0,1.525-1.233,2.76-2.757,2.76h-1.31c-1.284,0-1.156-1.234-1.156-2.76v-1.848
			c0-1.524,0.046-2.758,1.156-2.758h1.31c1.523,0,2.757,1.233,2.757,2.758V424.695z"/>
		<path fill="#C0C0C0" d="M595.761,422.99l-0.711-1.271c-0.589-1.053-1.915-1.432-2.97-0.844l-0.679,0.376
			c-0.074,0.451-0.082,1.001-0.082,1.597v1.848c0,0.738-0.027,1.404,0.087,1.896c0.657,0.42,1.507,0.486,2.236,0.078l1.274-0.71
			C595.97,425.373,596.345,424.043,595.761,422.99z"/>
		<path fill="#B29B9B" d="M596.542,417.031c0,1.525-1.233,2.76-2.757,2.76h-1.31c-1.284,0-1.156-1.234-1.156-2.76v-1.846
			c0-1.523,0.046-2.76,1.156-2.76h1.31c1.523,0,2.757,1.236,2.757,2.76V417.031z"/>
		<path fill="#C0C0C0" d="M595.254,414.297l-1.14-0.916c-0.788-0.635-1.879-0.623-2.657-0.05c-0.125,0.491-0.138,1.138-0.138,1.854
			v1.846c0,0.6-0.017,1.15,0.039,1.604l0.251,0.201c0.938,0.754,2.309,0.604,3.062-0.334l0.917-1.141
			C596.344,416.422,596.19,415.05,595.254,414.297z"/>
		<path fill="#B29B9B" d="M596.542,409.368c0,1.523-1.233,2.759-2.757,2.759h-1.31c-1.284,0-1.156-1.235-1.156-2.759v-1.847
			c0-1.521,0.046-2.758,1.156-2.758h1.31c1.523,0,2.757,1.236,2.757,2.758V409.368z"/>
		<path fill="#C0C0C0" d="M594.118,405.719l-1.438-0.271c-0.419-0.081-0.831-0.028-1.201,0.12c-0.151,0.498-0.159,1.188-0.159,1.953
			v1.847c0,0.661-0.017,1.263,0.061,1.737c0.074,0.021,0.146,0.053,0.226,0.068l1.437,0.268c1.182,0.222,2.323-0.559,2.547-1.742
			l0.268-1.434C596.083,407.079,595.299,405.94,594.118,405.719z"/>
	</g>
	<g>
		<path fill="#B29B9B" d="M596.542,402.303c0,1.525-1.233,2.76-2.757,2.76h-1.31c-1.284,0-1.156-1.234-1.156-2.76v-1.85
			c0-1.521,0.046-2.756,1.156-2.756h1.31c1.523,0,2.757,1.234,2.757,2.756V402.303z"/>
		<path fill="#C0C0C0" d="M595.761,400.598l-0.711-1.274c-0.589-1.052-1.915-1.431-2.97-0.844l-0.679,0.38
			c-0.074,0.451-0.082,1-0.082,1.594v1.85c0,0.738-0.027,1.402,0.087,1.896c0.657,0.418,1.507,0.484,2.236,0.078l1.274-0.711
			C595.97,402.981,596.345,401.649,595.761,400.598z"/>
		<path fill="#B29B9B" d="M596.542,394.639c0,1.525-1.233,2.759-2.757,2.759h-1.31c-1.284,0-1.156-1.233-1.156-2.759v-1.848
			c0-1.521,0.046-2.758,1.156-2.758h1.31c1.523,0,2.757,1.236,2.757,2.758V394.639z"/>
		<path fill="#C0C0C0" d="M595.254,391.902l-1.14-0.914c-0.788-0.635-1.879-0.622-2.657-0.05c-0.125,0.491-0.138,1.139-0.138,1.853
			v1.848c0,0.599-0.017,1.149,0.039,1.602l0.251,0.2c0.938,0.755,2.309,0.607,3.062-0.335l0.917-1.136
			C596.344,394.031,596.19,392.657,595.254,391.902z"/>
	</g>
	<g>
		<path fill="#B29B9B" d="M596.542,378.23c0,1.521-1.233,2.758-2.757,2.758h-1.31c-1.284,0-1.156-1.237-1.156-2.758v-1.849
			c0-1.524,0.046-2.757,1.156-2.757h1.31c1.523,0,2.757,1.232,2.757,2.757V378.23z"/>
		<path fill="#C0C0C0" d="M595.761,376.523l-0.711-1.271c-0.589-1.055-1.915-1.434-2.97-0.846l-0.679,0.381
			c-0.074,0.449-0.082,0.998-0.082,1.595v1.849c0,0.734-0.027,1.402,0.087,1.898c0.657,0.418,1.507,0.481,2.236,0.076l1.274-0.711
			C595.97,378.907,596.345,377.578,595.761,376.523z"/>
	</g>
	<g>
		<path fill="#B29B9B" d="M596.542,385.97c0,1.524-1.233,2.761-2.757,2.761h-1.31c-1.284,0-1.156-1.236-1.156-2.761v-1.849
			c0-1.523,0.046-2.756,1.156-2.756h1.31c1.523,0,2.757,1.232,2.757,2.756V385.97z"/>
		<path fill="#C0C0C0" d="M595.761,384.265l-0.711-1.273c-0.589-1.054-1.915-1.432-2.97-0.845l-0.679,0.379
			c-0.074,0.452-0.082,1.002-0.082,1.596v1.849c0,0.735-0.027,1.403,0.087,1.897c0.657,0.42,1.507,0.485,2.236,0.077l1.274-0.71
			C595.97,386.646,596.345,385.317,595.761,384.265z"/>
	</g>
	<g>
		<path fill="#B29B9B" d="M596.542,431.661c0,1.523-1.233,2.761-2.757,2.761h-1.31c-1.284,0-1.156-1.237-1.156-2.761v-1.849
			c0-1.523,0.046-2.756,1.156-2.756h1.31c1.523,0,2.757,1.232,2.757,2.756V431.661z"/>
		<path fill="#C0C0C0" d="M595.761,429.959l-0.711-1.275c-0.589-1.055-1.915-1.432-2.97-0.845l-0.679,0.38
			c-0.074,0.45-0.082,1-0.082,1.594v1.849c0,0.735-0.027,1.403,0.087,1.898c0.657,0.421,1.507,0.483,2.236,0.078l1.274-0.712
			C595.97,432.339,596.345,431.01,595.761,429.959z"/>
	</g>
	<g>
		<path fill="#B29B9B" d="M596.542,486.092c0,1.524-1.233,2.761-2.757,2.761h-1.31c-1.284,0-1.156-1.236-1.156-2.761v-1.848
			c0-1.522,0.046-2.755,1.156-2.755h1.31c1.523,0,2.757,1.232,2.757,2.755V486.092z"/>
		<path fill="#C0C0C0" d="M595.761,484.389l-0.711-1.274c-0.589-1.053-1.915-1.431-2.97-0.845l-0.679,0.379
			c-0.074,0.453-0.082,1.001-0.082,1.596v1.848c0,0.738-0.027,1.406,0.087,1.898c0.657,0.42,1.507,0.484,2.236,0.078l1.274-0.713
			C595.97,486.771,596.345,485.439,595.761,484.389z"/>
	</g>
	<path fill="#B29B9B" d="M596.542,370.566c0,1.523-1.233,2.76-2.757,2.76h-1.31c-1.284,0-1.156-1.236-1.156-2.76v-1.848
		c0-1.522,0.046-2.758,1.156-2.758h1.31c1.523,0,2.757,1.235,2.757,2.758V370.566z"/>
	<path fill="#C0C0C0" d="M595.254,367.83l-1.14-0.916c-0.788-0.634-1.879-0.622-2.657-0.051c-0.125,0.491-0.138,1.141-0.138,1.855
		v1.848c0,0.6-0.017,1.148,0.039,1.604l0.251,0.201c0.938,0.752,2.309,0.604,3.062-0.336l0.917-1.139
		C596.344,369.957,596.19,368.584,595.254,367.83z"/>
	<g>
		<g>
			<path fill="#C0C0C0" d="M589.212,347.306l102.785-0.052v1.773c0,1.102-0.895,2.039-1.99,2.039h-98.801
				c-1.099,0-1.994-0.891-1.994-1.988V347.306z"/>
		</g>
		<path fill="#B29B9B" d="M591.206,351.066h98.801c0.973,0,1.782-0.696,1.952-1.623h-102.71
			C589.423,350.366,590.233,351.066,591.206,351.066z"/>
	</g>
	<g>
		<path fill="#B29B9B" d="M596.542,363.585c0,1.522-1.233,2.759-2.757,2.759h-1.31c-1.284,0-1.156-1.236-1.156-2.759v-1.847
			c0-1.526,0.046-2.76,1.156-2.76h1.31c1.523,0,2.757,1.233,2.757,2.76V363.585z"/>
		<path fill="#C0C0C0" d="M595.761,361.881l-0.711-1.275c-0.589-1.053-1.915-1.43-2.97-0.842l-0.679,0.377
			c-0.074,0.451-0.082,1.002-0.082,1.598v1.847c0,0.736-0.027,1.401,0.087,1.898c0.657,0.419,1.507,0.481,2.236,0.077l1.274-0.712
			C595.97,364.262,596.345,362.935,595.761,361.881z"/>
		<path fill="#B29B9B" d="M596.542,355.92c0,1.522-1.233,2.759-2.757,2.759h-1.31c-1.284,0-1.156-1.236-1.156-2.759v-1.846
			c0-1.525,0.046-2.76,1.156-2.76h1.31c1.523,0,2.757,1.234,2.757,2.76V355.92z"/>
		<path fill="#C0C0C0" d="M595.254,353.184l-1.14-0.914c-0.788-0.635-1.879-0.619-2.657-0.051c-0.125,0.492-0.138,1.141-0.138,1.855
			v1.846c0,0.6-0.017,1.149,0.039,1.605l0.251,0.199c0.938,0.754,2.309,0.606,3.062-0.334l0.917-1.139
			C596.344,355.312,596.19,353.939,595.254,353.184z"/>
	</g>
	<g>
		<path fill="#B29B9B" d="M684.423,478.416c0,1.523,1.233,2.76,2.758,2.76h1.31c1.285,0,1.155-1.236,1.155-2.76v-1.848
			c0-1.522-0.043-2.76-1.155-2.76h-1.31c-1.524,0-2.758,1.237-2.758,2.76V478.416z"/>
		<path fill="#C0C0C0" d="M685.205,476.712l0.712-1.274c0.586-1.053,1.917-1.43,2.967-0.843l0.676,0.377
			c0.076,0.455,0.086,1.001,0.086,1.597v1.848c0,0.736,0.027,1.402-0.089,1.898c-0.656,0.42-1.507,0.482-2.232,0.077l-1.277-0.712
			C684.998,479.094,684.617,477.766,685.205,476.712z"/>
	</g>
	<g>
		<path fill="#B29B9B" d="M684.423,485.656c0,1.523,1.233,2.761,2.758,2.761h1.31c1.285,0,1.155-1.237,1.155-2.761v-1.847
			c0-1.523-0.043-2.759-1.155-2.759h-1.31c-1.524,0-2.758,1.235-2.758,2.759V485.656z"/>
		<path fill="#C0C0C0" d="M685.205,483.953l0.712-1.275c0.586-1.053,1.917-1.429,2.967-0.843l0.676,0.377
			c0.076,0.454,0.086,1.002,0.086,1.598v1.847c0,0.738,0.027,1.403-0.089,1.899c-0.656,0.419-1.507,0.483-2.232,0.077l-1.277-0.713
			C684.998,486.334,684.617,485.007,685.205,483.953z"/>
	</g>
	<path fill="#B29B9B" d="M684.423,470.752c0,1.523,1.233,2.76,2.758,2.76h1.31c1.285,0,1.155-1.236,1.155-2.76v-1.844
		c0-1.525-0.043-2.762-1.155-2.762h-1.31c-1.524,0-2.758,1.236-2.758,2.762V470.752z"/>
	<path fill="#C0C0C0" d="M685.711,468.016l1.139-0.912c0.788-0.637,1.878-0.625,2.656-0.051c0.126,0.49,0.14,1.137,0.14,1.855v1.844
		c0,0.6,0.019,1.15-0.036,1.601l-0.253,0.202c-0.939,0.754-2.31,0.607-3.063-0.332l-0.917-1.139
		C684.623,470.144,684.772,468.771,685.711,468.016z"/>
	<path fill="#B29B9B" d="M684.423,463.091c0,1.521,1.233,2.757,2.758,2.757h1.31c1.285,0,1.155-1.235,1.155-2.757v-1.848
		c0-1.524-0.043-2.761-1.155-2.761h-1.31c-1.524,0-2.758,1.236-2.758,2.761V463.091z"/>
	<path fill="#C0C0C0" d="M686.85,459.438l1.435-0.27c0.417-0.078,0.831-0.029,1.199,0.121c0.152,0.498,0.162,1.189,0.162,1.954
		v1.848c0,0.66,0.019,1.261-0.06,1.735c-0.076,0.021-0.147,0.052-0.228,0.068l-1.433,0.266c-1.187,0.225-2.325-0.559-2.55-1.74
		l-0.269-1.436C684.882,460.801,685.667,459.658,686.85,459.438z"/>
	<g>
		<path fill="#B29B9B" d="M684.455,456.413c0,1.511,1.226,2.741,2.742,2.741h1.301c1.275,0,1.147-1.23,1.147-2.741v-1.837
			c0-1.516-0.041-2.744-1.147-2.744h-1.301c-1.517,0-2.742,1.229-2.742,2.744V456.413z"/>
		<path fill="#C0C0C0" d="M685.231,454.719l0.707-1.271c0.586-1.044,1.905-1.419,2.949-0.837l0.674,0.376
			c0.074,0.45,0.084,0.995,0.084,1.589v1.837c0,0.732,0.027,1.392-0.087,1.885c-0.651,0.415-1.499,0.48-2.222,0.076l-1.27-0.706
			C685.024,457.086,684.651,455.764,685.231,454.719z"/>
		<path fill="#B29B9B" d="M684.455,448.795c0,1.514,1.226,2.741,2.742,2.741h1.301c1.275,0,1.147-1.228,1.147-2.741v-1.836
			c0-1.516-0.041-2.742-1.147-2.742h-1.301c-1.517,0-2.742,1.227-2.742,2.742V448.795z"/>
		<path fill="#C0C0C0" d="M685.735,446.074l1.132-0.91c0.784-0.631,1.867-0.618,2.641-0.049c0.124,0.489,0.138,1.132,0.138,1.844
			v1.836c0,0.594,0.019,1.141-0.036,1.593l-0.251,0.2c-0.934,0.748-2.299,0.602-3.047-0.333l-0.91-1.135
			C684.655,448.188,684.802,446.823,685.735,446.074z"/>
		<path fill="#B29B9B" d="M684.455,441.177c0,1.515,1.226,2.743,2.742,2.743h1.301c1.275,0,1.147-1.229,1.147-2.743v-1.837
			c0-1.512-0.041-2.742-1.147-2.742h-1.301c-1.517,0-2.742,1.23-2.742,2.742V441.177z"/>
		<path fill="#C0C0C0" d="M686.866,437.547l1.429-0.268c0.414-0.078,0.821-0.025,1.188,0.12c0.152,0.495,0.162,1.183,0.162,1.94
			v1.837c0,0.658,0.019,1.253-0.058,1.727c-0.078,0.022-0.149,0.054-0.227,0.066l-1.427,0.267c-1.179,0.221-2.309-0.555-2.533-1.729
			l-0.267-1.427C684.918,438.903,685.688,437.768,686.866,437.547z"/>
	</g>
	<g>
		<path fill="#B29B9B" d="M684.423,424.168c0,1.525,1.233,2.759,2.758,2.759h1.31c1.285,0,1.155-1.233,1.155-2.759v-1.85
			c0-1.522-0.043-2.756-1.155-2.756h-1.31c-1.524,0-2.758,1.233-2.758,2.756V424.168z"/>
		<path fill="#C0C0C0" d="M685.205,422.465l0.712-1.275c0.586-1.051,1.917-1.432,2.967-0.844l0.676,0.379
			c0.076,0.451,0.086,1,0.086,1.594v1.85c0,0.738,0.027,1.402-0.089,1.896c-0.656,0.422-1.507,0.486-2.232,0.078l-1.277-0.711
			C684.998,424.843,684.617,423.516,685.205,422.465z"/>
		<path fill="#B29B9B" d="M684.423,416.504c0,1.525,1.233,2.76,2.758,2.76h1.31c1.285,0,1.155-1.234,1.155-2.76v-1.846
			c0-1.523-0.043-2.76-1.155-2.76h-1.31c-1.524,0-2.758,1.236-2.758,2.76V416.504z"/>
		<path fill="#C0C0C0" d="M685.711,413.77l1.139-0.915c0.788-0.636,1.878-0.624,2.656-0.052c0.126,0.49,0.14,1.139,0.14,1.855v1.846
			c0,0.6,0.019,1.15-0.036,1.603l-0.253,0.202c-0.939,0.754-2.31,0.605-3.063-0.336l-0.917-1.139
			C684.623,415.896,684.772,414.523,685.711,413.77z"/>
		<path fill="#B29B9B" d="M684.423,408.842c0,1.523,1.233,2.757,2.758,2.757h1.31c1.285,0,1.155-1.233,1.155-2.757v-1.849
			c0-1.522-0.043-2.759-1.155-2.759h-1.31c-1.524,0-2.758,1.236-2.758,2.759V408.842z"/>
		<path fill="#C0C0C0" d="M686.85,405.19l1.435-0.271c0.417-0.08,0.831-0.027,1.199,0.121c0.152,0.498,0.162,1.188,0.162,1.952
			v1.849c0,0.659,0.019,1.262-0.06,1.736c-0.076,0.022-0.147,0.053-0.228,0.066l-1.433,0.27c-1.187,0.223-2.325-0.559-2.55-1.742
			l-0.269-1.435C684.882,406.552,685.667,405.41,686.85,405.19z"/>
	</g>
	<path fill="#B29B9B" d="M684.423,402.303c0,1.525,1.233,2.76,2.758,2.76h1.31c1.285,0,1.155-1.234,1.155-2.76v-1.85
		c0-1.521-0.043-2.756-1.155-2.756h-1.31c-1.524,0-2.758,1.234-2.758,2.756V402.303z"/>
	<path fill="#C0C0C0" d="M685.205,400.598l0.712-1.274c0.586-1.052,1.917-1.431,2.967-0.844l0.676,0.38
		c0.076,0.451,0.086,1,0.086,1.594v1.85c0,0.738,0.027,1.402-0.089,1.896c-0.656,0.418-1.507,0.484-2.232,0.078l-1.277-0.711
		C684.998,402.981,684.617,401.649,685.205,400.598z"/>
	<path fill="#B29B9B" d="M684.423,394.639c0,1.525,1.233,2.759,2.758,2.759h1.31c1.285,0,1.155-1.233,1.155-2.759v-1.848
		c0-1.521-0.043-2.758-1.155-2.758h-1.31c-1.524,0-2.758,1.236-2.758,2.758V394.639z"/>
	<path fill="#C0C0C0" d="M685.711,391.902l1.139-0.914c0.788-0.635,1.878-0.622,2.656-0.05c0.126,0.491,0.14,1.139,0.14,1.853v1.848
		c0,0.599,0.019,1.149-0.036,1.602l-0.253,0.2c-0.939,0.755-2.31,0.607-3.063-0.335l-0.917-1.136
		C684.623,394.031,684.772,392.657,685.711,391.902z"/>
	<g>
		<path fill="#B29B9B" d="M684.423,385.361c0,1.524,1.233,2.756,2.758,2.756h1.31c1.285,0,1.155-1.231,1.155-2.756v-1.849
			c0-1.524-0.043-2.758-1.155-2.758h-1.31c-1.524,0-2.758,1.233-2.758,2.758V385.361z"/>
		<path fill="#C0C0C0" d="M685.711,382.623l1.139-0.914c0.788-0.635,1.878-0.623,2.656-0.049c0.126,0.49,0.14,1.137,0.14,1.853
			v1.849c0,0.598,0.019,1.148-0.036,1.602l-0.253,0.2c-0.939,0.753-2.31,0.606-3.063-0.335l-0.917-1.138
			C684.623,384.751,684.772,383.377,685.711,382.623z"/>
	</g>
	<g>
		<path fill="#B29B9B" d="M684.423,431.054c0,1.522,1.233,2.757,2.758,2.757h1.31c1.285,0,1.155-1.234,1.155-2.757v-1.849
			c0-1.523-0.043-2.759-1.155-2.759h-1.31c-1.524,0-2.758,1.235-2.758,2.759V431.054z"/>
		<path fill="#C0C0C0" d="M685.711,428.314l1.139-0.912c0.788-0.636,1.878-0.623,2.656-0.051c0.126,0.49,0.14,1.139,0.14,1.854
			v1.849c0,0.597,0.019,1.149-0.036,1.6l-0.253,0.2c-0.939,0.757-2.31,0.608-3.063-0.334l-0.917-1.137
			C684.623,430.443,684.772,429.07,685.711,428.314z"/>
	</g>
	<g>
		<path fill="#B29B9B" d="M684.423,378.45c0,1.522,1.233,2.759,2.758,2.759h1.31c1.285,0,1.155-1.236,1.155-2.759v-1.848
			c0-1.524-0.043-2.758-1.155-2.758h-1.31c-1.524,0-2.758,1.233-2.758,2.758V378.45z"/>
		<path fill="#C0C0C0" d="M685.205,376.746l0.712-1.274c0.586-1.054,1.917-1.433,2.967-0.846l0.676,0.381
			c0.076,0.451,0.086,0.999,0.086,1.596v1.848c0,0.734,0.027,1.403-0.089,1.897c-0.656,0.419-1.507,0.482-2.232,0.076l-1.277-0.711
			C684.998,379.127,684.617,377.797,685.205,376.746z"/>
		<path fill="#B29B9B" d="M684.423,370.785c0,1.523,1.233,2.762,2.758,2.762h1.31c1.285,0,1.155-1.238,1.155-2.762v-1.846
			c0-1.523-0.043-2.758-1.155-2.758h-1.31c-1.524,0-2.758,1.234-2.758,2.758V370.785z"/>
		<path fill="#C0C0C0" d="M685.711,368.049l1.139-0.915c0.788-0.634,1.878-0.622,2.656-0.05c0.126,0.49,0.14,1.139,0.14,1.855v1.846
			c0,0.6,0.019,1.148-0.036,1.603l-0.253,0.203c-0.939,0.751-2.31,0.604-3.063-0.337l-0.917-1.14
			C684.623,370.176,684.772,368.803,685.711,368.049z"/>
	</g>
	<g>
		<path fill="#B29B9B" d="M684.423,363.585c0,1.522,1.233,2.759,2.758,2.759h1.31c1.285,0,1.155-1.236,1.155-2.759v-1.847
			c0-1.526-0.043-2.76-1.155-2.76h-1.31c-1.524,0-2.758,1.233-2.758,2.76V363.585z"/>
		<path fill="#C0C0C0" d="M685.205,361.881l0.712-1.275c0.586-1.053,1.917-1.43,2.967-0.842l0.676,0.377
			c0.076,0.451,0.086,1.002,0.086,1.598v1.847c0,0.736,0.027,1.401-0.089,1.898c-0.656,0.419-1.507,0.481-2.232,0.077l-1.277-0.712
			C684.998,364.262,684.617,362.935,685.205,361.881z"/>
		<path fill="#B29B9B" d="M684.423,355.92c0,1.522,1.233,2.759,2.758,2.759h1.31c1.285,0,1.155-1.236,1.155-2.759v-1.846
			c0-1.525-0.043-2.76-1.155-2.76h-1.31c-1.524,0-2.758,1.234-2.758,2.76V355.92z"/>
		<path fill="#C0C0C0" d="M685.711,353.184l1.139-0.914c0.788-0.635,1.878-0.619,2.656-0.051c0.126,0.492,0.14,1.141,0.14,1.855
			v1.846c0,0.6,0.019,1.149-0.036,1.605l-0.253,0.199c-0.939,0.754-2.31,0.606-3.063-0.334l-0.917-1.139
			C684.623,355.312,684.772,353.939,685.711,353.184z"/>
	</g>
	<g>
		<path fill="#B29B9B" d="M622.046,356.83l-2.121-2.123v-38.221c0-0.961,0.384-1.885,1.062-2.564
			c0.677-0.679,1.602-1.062,2.561-1.062h4.407c2.493-4.792,7.411-7.815,12.895-7.815c5.486,0,10.401,3.024,12.896,7.815h4.818
			c0.958,0,1.886,0.384,2.563,1.062c0.679,0.68,1.061,1.604,1.061,2.564v38.221l-2.123,2.123H622.046z"/>
		<path fill="#E26161" d="M652.388,314.983c-1.836-4.577-6.304-7.814-11.538-7.814s-9.701,3.237-11.538,7.814h-5.016
			c-2.068,0-2.25,0.928-2.25,2.995l0.249,33.25h-15.854l37.826,31.272l29.775-31.46h-14.046l0.067-33.062
			c0-2.067-0.18-2.995-2.25-2.995H652.388z"/>
	</g>
	<g>
		<g>
			<g>
				<rect x="606.039" y="358.104" fill="#43403D" width="14.607" height="18.358"/>
				<path fill="#B29B9B" d="M603.594,376.439c0,0.021-0.006,0.035-0.006,0.06c0,1.897,1.537,3.429,3.428,3.429h12.331
					c1.896,0,3.429-1.531,3.429-3.429c0-0.024-0.004-0.039-0.004-0.06H603.594z"/>
			</g>
			<rect x="612.631" y="357.838" fill="#B29B9B" width="1.103" height="21.808"/>
		</g>
		<g>
			<g>
				<rect x="660.968" y="358.104" fill="#43403D" width="14.612" height="18.358"/>
				<path fill="#B29B9B" d="M658.523,376.439c0,0.021-0.003,0.035-0.003,0.06c0,1.897,1.533,3.429,3.428,3.429h12.333
					c1.894,0,3.426-1.531,3.426-3.429c0-0.024-0.006-0.039-0.006-0.06H658.523z"/>
			</g>
			<rect x="667.564" y="357.838" fill="#B29B9B" width="1.102" height="21.808"/>
		</g>
	</g>
	<g>
		<path fill="#43403D" d="M645.618,343.871h-9.906v-16.886c0-2.736,2.217-4.954,4.953-4.954c2.734,0,4.953,2.218,4.953,4.954
			V343.871z"/>
		<path fill="#B29B9B" d="M634.053,343.854c0,0.015-0.002,0.025-0.002,0.042c0,1.284,1.042,2.323,2.321,2.323h8.363
			c1.285,0,2.321-1.039,2.321-2.323c0-0.017-0.002-0.027-0.002-0.042H634.053z"/>
		<path fill="#B29B9B" d="M640.182,322.056v21.815h0.749v-21.826c-0.09-0.005-0.178-0.014-0.266-0.014
			C640.499,322.031,640.343,322.041,640.182,322.056z"/>
	</g>
	<g>
		<path fill="#43403D" d="M645.618,377.828h-9.906v-16.887c0-2.736,2.217-4.953,4.953-4.953c2.734,0,4.953,2.217,4.953,4.953
			V377.828z"/>
		<path fill="#B29B9B" d="M634.053,377.812c0,0.013-0.002,0.023-0.002,0.039c0,1.287,1.042,2.324,2.321,2.324h8.363
			c1.285,0,2.321-1.037,2.321-2.324c0-0.016-0.002-0.026-0.002-0.039H634.053z"/>
		<path fill="#B29B9B" d="M640.182,356.012v21.816h0.749v-21.826c-0.09-0.006-0.178-0.014-0.266-0.014
			C640.499,355.988,640.343,355.998,640.182,356.012z"/>
	</g>
	<g>
		<path fill="#43403D" d="M645.618,422.771h-9.906v-16.886c0-2.735,2.217-4.953,4.953-4.953c2.734,0,4.953,2.218,4.953,4.953
			V422.771z"/>
		<path fill="#B29B9B" d="M634.053,422.756c0,0.014-0.002,0.023-0.002,0.039c0,1.287,1.042,2.326,2.321,2.326h8.363
			c1.285,0,2.321-1.039,2.321-2.326c0-0.016-0.002-0.025-0.002-0.039H634.053z"/>
		<path fill="#B29B9B" d="M640.182,400.956v21.814h0.749v-21.825c-0.09-0.006-0.178-0.014-0.266-0.014
			C640.499,400.932,640.343,400.94,640.182,400.956z"/>
	</g>
	<g>
		<g>
			<g>
				<rect x="606.039" y="401.801" fill="#43403D" width="14.607" height="18.357"/>
				<path fill="#B29B9B" d="M603.594,420.135c0,0.021-0.006,0.036-0.006,0.061c0,1.895,1.537,3.428,3.428,3.428h12.331
					c1.896,0,3.429-1.533,3.429-3.428c0-0.024-0.004-0.039-0.004-0.061H603.594z"/>
			</g>
			<rect x="612.631" y="401.535" fill="#B29B9B" width="1.103" height="21.807"/>
		</g>
		<g>
			<g>
				<rect x="660.968" y="401.801" fill="#43403D" width="14.612" height="18.357"/>
				<path fill="#B29B9B" d="M658.523,420.135c0,0.021-0.003,0.036-0.003,0.061c0,1.895,1.533,3.428,3.428,3.428h12.333
					c1.894,0,3.426-1.533,3.426-3.428c0-0.024-0.006-0.039-0.006-0.061H658.523z"/>
			</g>
			<rect x="667.564" y="401.535" fill="#B29B9B" width="1.102" height="21.807"/>
		</g>
	</g>
	<g>
		<g>
			<g>
				<rect x="606.039" y="447.492" fill="#43403D" width="14.607" height="18.359"/>
				<path fill="#B29B9B" d="M603.594,465.827c0,0.021-0.006,0.036-0.006,0.061c0,1.896,1.537,3.428,3.428,3.428h12.331
					c1.896,0,3.429-1.532,3.429-3.428c0-0.024-0.004-0.04-0.004-0.061H603.594z"/>
			</g>
			<rect x="612.631" y="447.226" fill="#B29B9B" width="1.103" height="21.808"/>
		</g>
		<g>
			<g>
				<rect x="660.968" y="447.492" fill="#43403D" width="14.612" height="18.359"/>
				<path fill="#B29B9B" d="M658.523,465.827c0,0.021-0.003,0.036-0.003,0.061c0,1.896,1.533,3.428,3.428,3.428h12.333
					c1.894,0,3.426-1.532,3.426-3.428c0-0.024-0.006-0.04-0.006-0.061H658.523z"/>
			</g>
			<rect x="667.564" y="447.226" fill="#B29B9B" width="1.102" height="21.808"/>
		</g>
	</g>
	<g>
		<g>
			<path fill="#C0C0C0" d="M589.212,386.023l102.785-0.052v1.774c0,1.1-0.895,2.04-1.99,2.04h-98.801
				c-1.099,0-1.994-0.892-1.994-1.991V386.023z"/>
		</g>
		<path fill="#B29B9B" d="M591.206,389.786h98.801c0.973,0,1.782-0.7,1.952-1.626h-102.71
			C589.423,389.082,590.233,389.786,591.206,389.786z"/>
	</g>
	<g>
		<g>
			<path fill="#C0C0C0" d="M589.212,486.468l102.785-0.052v1.775c0,1.1-0.895,2.037-1.99,2.037h-98.801
				c-1.099,0-1.994-0.89-1.994-1.986V486.468z"/>
		</g>
		<path fill="#B29B9B" d="M591.206,490.229h98.801c0.973,0,1.782-0.695,1.952-1.623h-102.71
			C589.423,489.531,590.233,490.229,591.206,490.229z"/>
	</g>
	<g>
		<path fill="#17282D" d="M650.251,486.582v-31.553c0-5.416-4.392-9.809-9.81-9.809c-5.412,0-9.806,4.393-9.806,9.809v31.553
			H650.251z"/>
		<rect x="630.579" y="454.862" fill="#724520" width="19.584" height="31.72"/>
		<rect x="639.993" y="453.955" fill="#512D13" width="0.898" height="32.627"/>
		<rect x="630.698" y="453.885" fill="#80807E" width="19.489" height="0.899"/>
		<rect x="639.995" y="444.849" fill="#80807E" width="0.896" height="9.458"/>
		
			<rect x="632.277" y="450.6" transform="matrix(0.7231 0.6908 -0.6908 0.7231 487.9627 -315.114)" fill="#80807E" width="9.455" height="0.901"/>
		
			<rect x="639.264" y="450.6" transform="matrix(-0.7231 0.6908 -0.6908 -0.7231 1421.2191 332.357)" fill="#80807E" width="9.455" height="0.901"/>
	</g>
	<rect x="627.42" y="485.59" fill="#D1CBC7" width="25.33" height="2.916"/>
	<rect x="625.488" y="488.506" fill="#E0DAD5" width="29.196" height="3.063"/>
	<rect x="622.626" y="491.63" fill="#F5F5F5" width="34.921" height="4.417"/>
	<g>
		<g>
			<path fill="#C0C0C0" d="M589.212,432.409l102.785-0.05v1.773c0,1.103-0.895,2.039-1.99,2.039h-98.801
				c-1.099,0-1.994-0.893-1.994-1.988V432.409z"/>
		</g>
		<path fill="#B29B9B" d="M591.206,436.172h98.801c0.973,0,1.782-0.699,1.952-1.623h-102.71
			C589.423,435.471,590.233,436.172,591.206,436.172z"/>
	</g>
</g>
</svg>
