<?xml version="1.0" encoding="utf-8"?>
<!-- Generator: Adobe Illustrator 16.0.0, SVG Export Plug-In . SVG Version: 6.00 Build 0)  -->
<!DOCTYPE svg PUBLIC "-//W3C//DTD SVG 1.1//EN" "http://www.w3.org/Graphics/SVG/1.1/DTD/svg11.dtd">
<svg version="1.1" id="Layer_1" xmlns="http://www.w3.org/2000/svg" xmlns:xlink="http://www.w3.org/1999/xlink" x="0px" y="0px"
	 width="1280px" height="800px" viewBox="0 0 1280 800" enable-background="new 0 0 1280 800" xml:space="preserve">
<g>
	<path fill="#30A599" d="M674.376,327.691c-8.834-13.254-8.736-33.588-8.736-33.588v-7.531h-5.354
		c-3.727-7.102-11.166-11.948-19.745-11.948c-8.576,0-16.015,4.847-19.742,11.948h-5.354v7.531c0,0,0.097,20.334-8.737,33.588
		c-8.868,13.307-21.855,11.717-21.855,11.717v188.248h54.986h1.408h54.988V339.408C696.234,339.408,683.248,340.998,674.376,327.691
		z"/>
	<path fill="#C1A476" d="M584.852,341.098h33.031v-48.989l-2.474-0.208c-0.184,5.748-1.34,23.842-8.702,34.528
		c-8.102,11.765-19.631,11.501-21.566,11.368l-0.289,0.436V341.098z"/>
	<path fill="#C1A476" d="M674.376,326.429c-7.18-10.429-8.459-27.921-8.686-34.102l-2.733-0.219v48.866l33.109,1.015v-8.808
		l-0.594-0.91C692.576,332.367,681.971,337.459,674.376,326.429z"/>
	<circle fill="#E2C188" cx="691.792" cy="329.023" r="6.268"/>
	<path fill="#F7DDA9" d="M617.732,342.996h-31.918c-3.28,0-3.218-2.658-3.218-5.938l0,0h35.136V342.996z"/>
	<path fill="#F7DDA9" d="M640.541,474.707h-1.118h-56.826c0,3.28-0.062,5.939,3.218,5.939h53.608h1.118h54.816
		c3.278,0,3.218-2.659,3.218-5.939H640.541z"/>
	<path fill="#F7DDA9" d="M662.886,342.996h31.353c3.227,0,3.163-2.658,3.163-5.938l0,0h-34.516V342.996z"/>
	<path fill="#E2C188" d="M692.286,331.201c-2.475,3.299-11.405,2.693-16.347-4.719c-8.306-12.461-8.32-31.97-8.32-32.217v-10.004
		h-6.385c-4.458-7.373-12.392-11.902-21.07-11.943v4.949c7.34,0.043,14.015,4.101,17.436,10.619l0.697,1.322h4.375v5.047
		c-0.007,1.022-0.351,21.488,9.15,34.971c3.302,4.686,5.291,6.758,11.765,8.58c5.164,1.455,12.166-0.502,13.814-7.266
		L692.286,331.201z"/>
	<circle fill="#E2C188" cx="588.699" cy="329.023" r="6.268"/>
	<path fill="#E2C188" d="M588.206,331.201c2.474,3.299,11.405,2.693,16.346-4.719c8.307-12.461,8.32-31.97,8.32-32.217v-10.004
		h6.386c4.458-7.373,12.394-11.902,21.07-11.943v4.949c-7.341,0.043-14.013,4.101-17.436,10.619l-0.695,1.322h-4.378v5.047
		c0.006,1.022,0.353,21.488-9.149,34.971c-3.3,4.686-5.288,6.758-11.767,8.58c-5.163,1.455-12.162-0.502-13.812-7.266
		L588.206,331.201z"/>
	<g>
		<g>
			<g>
				<g>
					<rect x="594.972" y="350.641" fill="#43403D" width="18.34" height="26.199"/>
					<path fill="#B29B9B" d="M591.903,376.811c0,0.027-0.006,0.047-0.006,0.077c0,2.38,1.929,3.252,4.301,3.252h15.482
						c2.381,0,4.304-0.872,4.304-3.252c0-0.03-0.002-0.05-0.002-0.077H591.903z"/>
				</g>
				<rect x="603.247" y="350.641" fill="#B29B9B" width="1.385" height="29.146"/>
			</g>
			<rect x="594.99" y="359.047" fill="#B29B9B" width="18.382" height="1.312"/>
		</g>
		<g>
			<g>
				<g>
					<rect x="630.684" y="350.465" fill="#43403D" width="18.34" height="26.2"/>
					<path fill="#B29B9B" d="M627.612,376.635c0,0.027-0.005,0.045-0.005,0.075c0,2.382,1.931,3.254,4.302,3.254h15.482
						c2.382,0,4.304-0.872,4.304-3.254c0-0.03-0.004-0.048-0.004-0.075H627.612z"/>
				</g>
				<rect x="638.958" y="350.465" fill="#B29B9B" width="1.389" height="29.145"/>
			</g>
			<rect x="630.701" y="358.87" fill="#B29B9B" width="18.384" height="1.313"/>
		</g>
		<g>
			<g>
				<g>
					<rect x="665.475" y="350.465" fill="#43403D" width="18.337" height="26.2"/>
					<path fill="#B29B9B" d="M662.401,376.635c0,0.027-0.007,0.045-0.007,0.075c0,2.382,1.93,3.254,4.305,3.254h15.48
						c2.383,0,4.303-0.872,4.303-3.254c0-0.03-0.002-0.048-0.002-0.075H662.401z"/>
				</g>
				<rect x="673.747" y="350.465" fill="#B29B9B" width="1.387" height="29.145"/>
			</g>
			<rect x="665.491" y="358.87" fill="#B29B9B" width="18.381" height="1.313"/>
		</g>
	</g>
	<g>
		<g>
			<g>
				<rect x="631.681" y="305.911" fill="#43403D" width="14.415" height="20.595"/>
				<path fill="#B29B9B" d="M629.263,326.484c0,0.021-0.004,0.035-0.004,0.06c0,1.87,1.52,2.556,3.387,2.556h12.168
					c1.872,0,3.385-0.686,3.385-2.556c0-0.024-0.006-0.038-0.006-0.06H629.263z"/>
			</g>
			<rect x="638.183" y="305.911" fill="#B29B9B" width="1.093" height="22.912"/>
		</g>
		<rect x="631.692" y="312.518" fill="#B29B9B" width="14.451" height="1.035"/>
	</g>
	<g>
		<g>
			<g>
				<g>
					<rect x="594.972" y="394.871" fill="#43403D" width="18.34" height="26.199"/>
					<path fill="#D6BC8E" d="M591.903,421.039c0,0.029-0.006,0.047-0.006,0.078c0,2.379,1.929,3.251,4.301,3.251h15.482
						c2.381,0,4.304-0.872,4.304-3.251c0-0.031-0.002-0.049-0.002-0.078H591.903z"/>
				</g>
				<rect x="603.247" y="394.871" fill="#D6BC8E" width="1.385" height="29.146"/>
			</g>
			<rect x="594.99" y="403.275" fill="#D6BC8E" width="18.382" height="1.312"/>
		</g>
		<g>
			<g>
				<g>
					<rect x="630.684" y="394.694" fill="#43403D" width="18.34" height="26.198"/>
					<path fill="#D6BC8E" d="M627.612,420.864c0,0.027-0.005,0.046-0.005,0.075c0,2.381,1.931,3.254,4.302,3.254h15.482
						c2.382,0,4.304-0.873,4.304-3.254c0-0.029-0.004-0.048-0.004-0.075H627.612z"/>
				</g>
				<rect x="638.958" y="394.694" fill="#D6BC8E" width="1.389" height="29.146"/>
			</g>
			<rect x="630.701" y="403.1" fill="#D6BC8E" width="18.384" height="1.312"/>
		</g>
		<g>
			<g>
				<g>
					<rect x="665.475" y="394.694" fill="#43403D" width="18.337" height="26.198"/>
					<path fill="#D6BC8E" d="M662.401,420.864c0,0.027-0.007,0.046-0.007,0.075c0,2.381,1.93,3.254,4.305,3.254h15.48
						c2.383,0,4.303-0.873,4.303-3.254c0-0.029-0.002-0.048-0.002-0.075H662.401z"/>
				</g>
				<rect x="673.747" y="394.694" fill="#D6BC8E" width="1.387" height="29.146"/>
			</g>
			<rect x="665.491" y="403.1" fill="#D6BC8E" width="18.381" height="1.312"/>
		</g>
	</g>
	<g>
		<g>
			<g>
				<g>
					<rect x="594.972" y="439.1" fill="#43403D" width="18.34" height="26.2"/>
					<path fill="#B29B9B" d="M591.903,465.27c0,0.028-0.006,0.047-0.006,0.076c0,2.381,1.929,3.252,4.301,3.252h15.482
						c2.381,0,4.304-0.871,4.304-3.252c0-0.029-0.002-0.048-0.002-0.076H591.903z"/>
				</g>
				<rect x="603.247" y="439.1" fill="#D6BC8E" width="1.385" height="29.146"/>
			</g>
			<rect x="594.99" y="447.506" fill="#B29B9B" width="18.382" height="1.312"/>
		</g>
		<g>
			<g>
				<g>
					<rect x="630.684" y="438.924" fill="#43403D" width="18.34" height="26.198"/>
					<path fill="#D6BC8E" d="M627.612,465.094c0,0.025-0.005,0.045-0.005,0.075c0,2.382,1.931,3.254,4.302,3.254h15.482
						c2.382,0,4.304-0.872,4.304-3.254c0-0.03-0.004-0.05-0.004-0.075H627.612z"/>
				</g>
				<rect x="638.958" y="438.924" fill="#D6BC8E" width="1.389" height="29.145"/>
			</g>
			<rect x="630.701" y="447.328" fill="#D6BC8E" width="18.384" height="1.312"/>
		</g>
		<g>
			<g>
				<g>
					<rect x="665.475" y="438.924" fill="#43403D" width="18.337" height="26.198"/>
					<path fill="#D6BC8E" d="M662.401,465.094c0,0.025-0.007,0.045-0.007,0.075c0,2.382,1.93,3.254,4.305,3.254h15.48
						c2.383,0,4.303-0.872,4.303-3.254c0-0.03-0.002-0.05-0.002-0.075H662.401z"/>
				</g>
				<rect x="673.747" y="438.924" fill="#D6BC8E" width="1.387" height="29.145"/>
			</g>
			<rect x="665.491" y="447.328" fill="#D6BC8E" width="18.381" height="1.312"/>
		</g>
	</g>
	<g>
		<g>
			<g>
				<rect x="594.972" y="483.297" fill="#43403D" width="18.34" height="26.199"/>
				<path fill="#B29B9B" d="M591.903,509.467c0,0.027-0.006,0.045-0.006,0.075c0,2.381,1.929,3.252,4.301,3.252h15.482
					c2.381,0,4.304-0.871,4.304-3.252c0-0.03-0.002-0.048-0.002-0.075H591.903z"/>
			</g>
			<rect x="603.247" y="483.297" fill="#B29B9B" width="1.385" height="29.145"/>
		</g>
		<rect x="594.99" y="491.7" fill="#B29B9B" width="18.382" height="1.313"/>
	</g>
	<g>
		<g>
			<g>
				<rect x="629.762" y="483.119" fill="#43403D" width="18.338" height="26.199"/>
				<path fill="#B29B9B" d="M626.691,509.289c0,0.027-0.007,0.047-0.007,0.076c0,2.381,1.931,3.253,4.302,3.253h15.483
					c2.381,0,4.303-0.872,4.303-3.253c0-0.029-0.005-0.049-0.005-0.076H626.691z"/>
			</g>
			<rect x="638.035" y="483.119" fill="#B29B9B" width="1.388" height="29.146"/>
		</g>
		<rect x="629.778" y="491.524" fill="#B29B9B" width="18.385" height="1.313"/>
	</g>
	<rect x="612.872" y="284.262" fill="#E2C188" width="52.768" height="4.921"/>
	<rect x="663.876" y="483.297" fill="#405B59" width="20.002" height="44.359"/>
	<rect x="673.531" y="483.297" fill="#364D4B" width="10.347" height="38.342"/>
	<path fill="#C1B093" d="M684.87,528.646h-21.984v-46.341h21.984V528.646z M664.867,526.667h18.021v-42.382h-18.021V526.667z"/>
	<rect x="661.093" y="518.59" fill="#D1CBC7" width="25.33" height="2.916"/>
	<rect x="659.159" y="521.506" fill="#E0DAD5" width="29.198" height="3.063"/>
	<rect x="656.296" y="524.63" fill="#F5F5F5" width="34.921" height="4.417"/>
</g>
</svg>
