<?xml version="1.0" encoding="utf-8"?>
<!-- Generator: Adobe Illustrator 16.0.0, SVG Export Plug-In . SVG Version: 6.00 Build 0)  -->
<!DOCTYPE svg PUBLIC "-//W3C//DTD SVG 1.1//EN" "http://www.w3.org/Graphics/SVG/1.1/DTD/svg11.dtd">
<svg version="1.1" id="Layer_1" xmlns="http://www.w3.org/2000/svg" xmlns:xlink="http://www.w3.org/1999/xlink" x="0px" y="0px"
	 width="1280px" height="800px" viewBox="0 0 1280 800" enable-background="new 0 0 1280 800" xml:space="preserve">
<g>
	<path fill="#4E6B6D" d="M643.668,298.029l-0.419-0.434c-1.915-1.972-2.705-2.789-2.623-6.595c0.061-2.915,0-14.179,0-14.192
		l-0.401,0.019l-0.401-0.019c0,0.014-0.062,11.277,0,14.192c0.083,3.806-0.714,4.623-2.627,6.595l-0.419,0.434
		c-1.417,1.472-1.638,2.783-1.572,3.623c0.064,0.89,0.487,1.695,1.156,2.211c0.399,0.309,0.944,0.469,1.504,0.469
		c0.419,0,0.853-0.089,1.242-0.271c0.601-0.279,0.993-0.729,1.117-1.258c0.121,0.529,0.516,0.979,1.113,1.258
		c0.393,0.183,0.824,0.271,1.244,0.271c0.56,0,1.099-0.16,1.504-0.469c0.67-0.516,1.089-1.321,1.157-2.211
		C645.307,300.812,645.083,299.501,643.668,298.029z M644.71,301.613c-0.057,0.74-0.4,1.405-0.951,1.826
		c-0.542,0.418-1.467,0.476-2.195,0.135c-0.52-0.242-0.831-0.641-0.851-1.092c-0.024-0.576,0.111-1.003,0.402-1.269
		c0.454-0.415,1.16-0.327,1.168-0.326l0.071-0.531c-0.041-0.005-0.961-0.122-1.599,0.46c-0.284,0.26-0.456,0.617-0.531,1.051
		c-0.075-0.434-0.249-0.791-0.536-1.051c-0.638-0.582-1.558-0.465-1.597-0.46l0.071,0.531c0.007-0.001,0.718-0.089,1.17,0.326
		c0.289,0.266,0.426,0.692,0.401,1.269c-0.018,0.451-0.33,0.85-0.854,1.092c-0.728,0.341-1.652,0.283-2.194-0.135
		c-0.548-0.421-0.895-1.086-0.949-1.826c-0.055-0.732,0.146-1.884,1.427-3.213l0.416-0.432c1.459-1.502,2.326-2.401,2.645-4.404
		c0.317,2.003,1.184,2.902,2.642,4.404l0.42,0.432C644.563,299.729,644.766,300.881,644.71,301.613z"/>
	<g>
		<path fill="#4E6B6D" d="M634.076,272.326c0,0,1.33,0.551,3.872,0.499c2.039-0.043,3.786-1.206,3.786-1.206l1.457,1.622
			c0,0-2.415,4.495-5.036,5.37c-1.148,0.383-2.903-1.394-3.373-2.374C633.91,274.406,634.076,272.326,634.076,272.326z"/>
		<path fill="#4E6B6D" d="M641.526,272.7c0,0-1.123-2.165,0.917-0.291c2.012,1.847,3.497-0.167,3.497-0.167l0.748,0.54
			c-0.415,1.001-1.525,2.167-2.912,2.249c-1.032,0.061-2.074-0.764-2.583-1.041c-1.287-0.709-0.831-0.541-0.831-0.541
			s-0.748-0.666-0.456-0.832c0.289-0.166,1.079,0.249,1.079,0.249L641.526,272.7z"/>
		<path fill="#4E6B6D" d="M639.655,270.119c0,0,1.661,0.166,2.412-0.126c0.423-0.163,0.781-0.344,1.167-0.373
			c0.639-0.048,1.216,0.234,1.289,1.04c0.126,1.332-1.332,2.496-1.332,2.496c-1.33-0.414-1.63-0.242-2.248-0.789
			C639.862,271.408,639.655,270.119,639.655,270.119z"/>
		<path fill="#4E6B6D" d="M649.522,273.699l-0.293-0.441c-0.416-0.633-1.128-1.016-1.882-1.016h-4.032v-0.375h3.991
			c0.753,0,1.458-0.394,1.852-1.035l0.364-0.59V273.699z"/>
		<path fill="#4E6B6D" d="M645.565,272.7c0,0,0.375-1.04,0.708-1.167c0.332-0.125,0.706,0.334,0.706,0.334l-0.623,0.915
			L645.565,272.7z"/>
	</g>
	<polygon fill="#992607" points="678.897,367.882 601.296,367.882 604.843,331.579 675.351,331.579 	"/>
	<polygon fill="#CE9B36" points="670.716,365.865 670.716,351.074 662.842,351.074 662.842,335.904 655.726,335.904 
		655.726,321.494 647.761,321.494 647.761,306.477 632.899,306.477 632.899,321.494 624.933,321.494 624.933,335.904 
		617.819,335.904 617.819,351.074 609.944,351.074 609.944,365.865 601.296,365.865 601.296,531.047 679.364,531.047 
		679.364,365.865 	"/>
	<rect x="633.076" y="344.039" fill="#E5D5B7" width="14.337" height="22.119"/>
	<g>
		<rect x="612.503" y="376.214" fill="#E5D5B7" width="22.694" height="33.492"/>
		<rect x="613.829" y="378.073" fill="#43403D" width="20.042" height="28.175"/>
		<rect x="622.87" y="386.396" fill="#E5D5B7" width="1.517" height="23.019"/>
		<rect x="613.318" y="386.292" fill="#E5D5B7" width="21.147" height="1.411"/>
	</g>
	<g>
		<rect x="645.347" y="376.214" fill="#E5D5B7" width="22.691" height="33.492"/>
		<rect x="646.674" y="378.073" fill="#43403D" width="20.041" height="28.175"/>
		<rect x="655.713" y="386.396" fill="#E5D5B7" width="1.516" height="23.019"/>
		<rect x="646.164" y="386.292" fill="#E5D5B7" width="21.145" height="1.411"/>
	</g>
	<g>
		<rect x="612.503" y="419.445" fill="#E5D5B7" width="22.694" height="33.493"/>
		<rect x="613.829" y="421.307" fill="#43403D" width="20.042" height="28.174"/>
		<rect x="622.87" y="429.63" fill="#E5D5B7" width="1.517" height="23.019"/>
		<rect x="613.318" y="429.523" fill="#E5D5B7" width="21.147" height="1.413"/>
	</g>
	<g>
		<rect x="645.347" y="419.445" fill="#E5D5B7" width="22.691" height="33.493"/>
		<rect x="646.674" y="421.307" fill="#43403D" width="20.041" height="28.174"/>
		<rect x="655.713" y="429.63" fill="#E5D5B7" width="1.516" height="23.019"/>
		<rect x="646.164" y="429.523" fill="#E5D5B7" width="21.145" height="1.413"/>
	</g>
	<rect x="645.347" y="468.711" fill="#E5D5B7" width="27.385" height="43.188"/>
	<rect x="646.946" y="471.111" fill="#43403D" width="24.185" height="36.328"/>
	<g>
		<rect x="612.314" y="469.076" fill="#405B59" width="21.524" height="60.086"/>
		<rect x="622.704" y="469.076" fill="#364D4B" width="11.135" height="51.936"/>
		<path fill="#E5D5B7" d="M634.905,530.504h-23.658v-62.768h23.658V530.504z M613.376,527.822h19.398v-57.404h-19.398V527.822z"/>
		<rect x="609.314" y="516.883" fill="#D1CBC7" width="27.265" height="3.949"/>
		<rect x="607.235" y="520.832" fill="#E0DAD5" width="31.421" height="7.225"/>
		<rect x="604.156" y="525.065" fill="#F5F5F5" width="37.582" height="5.981"/>
	</g>
	<rect x="634.558" y="347.227" fill="#43403D" width="11.375" height="16.75"/>
	<polygon opacity="0.3" fill="#F5F5F5" points="654.845,507.439 671.131,507.439 671.131,471.111 664.771,471.111 	"/>
	<path fill="#E5D5B7" d="M681.979,363.924h-11.245v3.765h7.43c2.112,0,3.818-0.788,3.818-2.945
		C681.981,364.718,681.979,363.947,681.979,363.924z"/>
	<path fill="#E5D5B7" d="M598.686,363.812h11.243v3.766h-7.428c-2.114,0-3.82-0.791-3.82-2.944
		C598.681,364.605,598.686,363.838,598.686,363.812z"/>
	<path fill="#E5D5B7" d="M672.484,348.508h-9.684v3.766h6.398c1.818,0,3.288-0.789,3.288-2.947
		C672.487,349.301,672.484,348.532,672.484,348.508z"/>
	<path fill="#E5D5B7" d="M665.446,332.646h-9.793v3.763h6.469c1.841,0,3.328-0.789,3.328-2.946
		C665.45,333.438,665.446,332.67,665.446,332.646z"/>
	<path fill="#E5D5B7" d="M657.515,319.129h-9.793v3.764h6.471c1.84,0,3.326-0.789,3.326-2.945
		C657.519,319.921,657.515,319.153,657.515,319.129z"/>
	<path fill="#E5D5B7" d="M650.03,304.16h-9.492h-0.302h-9.49c0,0.023-0.005,0.793-0.005,0.82c0,2.152,1.485,2.943,3.326,2.943h6.169
		h0.302h6.168c1.843,0,3.328-0.791,3.328-2.943C650.034,304.953,650.03,304.184,650.03,304.16z"/>
	<path fill="#E5D5B7" d="M623.146,319.129h9.797v3.764h-6.475c-1.838,0-3.326-0.789-3.326-2.945
		C623.142,319.921,623.146,319.153,623.146,319.129z"/>
	<path fill="#E5D5B7" d="M615.216,332.646h9.795v3.763h-6.471c-1.84,0-3.326-0.789-3.326-2.946
		C615.214,333.438,615.216,332.67,615.216,332.646z"/>
	<path fill="#E5D5B7" d="M608.179,348.508h9.681v3.766h-6.393c-1.822,0-3.291-0.789-3.291-2.947
		C608.176,349.301,608.179,348.532,608.179,348.508z"/>
</g>
</svg>
