<?xml version="1.0" encoding="utf-8"?>
<!-- Generator: Adobe Illustrator 16.0.0, SVG Export Plug-In . SVG Version: 6.00 Build 0)  -->
<!DOCTYPE svg PUBLIC "-//W3C//DTD SVG 1.1//EN" "http://www.w3.org/Graphics/SVG/1.1/DTD/svg11.dtd">
<svg version="1.1" id="Layer_1" xmlns="http://www.w3.org/2000/svg" xmlns:xlink="http://www.w3.org/1999/xlink" x="0px" y="0px"
	 width="1280px" height="800px" viewBox="0 0 1280 800" enable-background="new 0 0 1280 800" xml:space="preserve">
<g>
	<path fill="#AD3C0B" d="M671.012,328.971c-7.256-10.887-7.173-33.813-7.173-33.813v-6.187h-20.044h-1.153H622.6v6.187
		c0,0,0.083,22.927-7.177,33.813c-7.287,10.934-17.318,13.693-17.318,13.693v181.137h90.227V342.664
		C688.331,342.664,678.301,339.904,671.012,328.971z"/>
	<polygon fill="#DDC89E" points="619.464,295.01 619.464,288.011 643.674,277.342 666.971,288.011 666.971,295.01 	"/>
	<polygon fill="#AD3C0B" points="622.294,290.799 643.446,281.234 664.141,290.799 	"/>
	<g>
		<g>
			<path fill="#43403D" d="M650.278,343.307h-13.813v-19.732c0,0,1.688-1.755,6.913-1.756c4.936-0.001,6.9,1.756,6.9,1.756V343.307z
				"/>
			<path fill="#DDC89E" d="M650.712,343.74h-14.681v-20.338l0.119-0.127c0.075-0.078,1.879-1.89,7.228-1.891
				c5.045,0,7.104,1.792,7.188,1.869l0.146,0.127V343.74z M636.897,342.873h12.945v-19.085c-0.523-0.366-2.502-1.536-6.463-1.536
				c-4.189,0.002-6.02,1.164-6.482,1.521V342.873z"/>
		</g>
		<path fill="#DDC89E" d="M634.151,343.285c0,0.021-0.004,0.035-0.004,0.059c0,1.793,1.453,2.449,3.24,2.449h11.66
			c1.794,0,3.243-0.656,3.243-2.449c0-0.023-0.005-0.037-0.005-0.059H634.151z"/>
		<path fill="#DDC89E" d="M642.697,343.307h1.043v-21.479c-0.121-0.001-0.236-0.009-0.362-0.009c-0.239,0-0.461,0.009-0.681,0.014
			V343.307z"/>
		<rect x="636.476" y="329.905" fill="#DDC89E" width="13.848" height="0.989"/>
	</g>
	<g>
		<g>
			<path fill="#43403D" d="M626.2,377.145h-15.486v-22.124c0,0,1.897-1.968,7.751-1.968c5.537,0,7.735,1.968,7.735,1.968V377.145z"
				/>
			<path fill="#DDC89E" d="M626.686,377.63h-16.456v-22.803l0.135-0.143c0.084-0.085,2.105-2.116,8.101-2.118
				c5.659,0,7.964,2.009,8.062,2.094l0.159,0.145V377.63z M611.2,376.658h14.516v-21.396c-0.586-0.411-2.806-1.723-7.247-1.723
				c-4.695,0-6.748,1.305-7.269,1.705V376.658z"/>
		</g>
		<path fill="#DDC89E" d="M608.122,377.119c0,0.023-0.005,0.04-0.005,0.064c0,2.011,1.627,2.747,3.634,2.747h13.072
			c2.014,0,3.635-0.736,3.635-2.747c0-0.024-0.003-0.041-0.003-0.064H608.122z"/>
		<path fill="#DDC89E" d="M617.7,377.145h1.174v-24.082c-0.137-0.003-0.268-0.01-0.409-0.01c-0.265,0-0.514,0.01-0.765,0.016
			V377.145z"/>
		<rect x="610.73" y="362.119" fill="#DDC89E" width="15.521" height="1.108"/>
	</g>
	<g>
		<g>
			<path fill="#43403D" d="M650.462,377.145h-15.489v-22.124c0,0,1.893-1.968,7.75-1.968c5.539,0,7.739,1.968,7.739,1.968V377.145z"
				/>
			<path fill="#DDC89E" d="M650.946,377.63h-16.46v-22.803l0.138-0.143c0.084-0.085,2.105-2.116,8.099-2.118
				c5.662,0,7.968,2.009,8.063,2.094l0.16,0.145V377.63z M635.46,376.658h14.515v-21.396c-0.589-0.411-2.808-1.723-7.248-1.723
				c-4.697,0-6.749,1.305-7.267,1.705V376.658z"/>
		</g>
		<path fill="#DDC89E" d="M632.38,377.119c0,0.023-0.006,0.04-0.006,0.064c0,2.011,1.629,2.747,3.635,2.747h13.075
			c2.008,0,3.632-0.736,3.632-2.747c0-0.024-0.005-0.041-0.005-0.064H632.38z"/>
		<path fill="#DDC89E" d="M641.959,377.145h1.171v-24.082c-0.135-0.003-0.264-0.01-0.407-0.01c-0.267,0-0.512,0.01-0.764,0.016
			V377.145z"/>
		<rect x="634.99" y="362.119" fill="#DDC89E" width="15.519" height="1.108"/>
	</g>
	<g>
		<g>
			<path fill="#43403D" d="M674.719,377.145h-15.484v-22.124c0,0,1.89-1.968,7.747-1.968c5.538,0,7.737,1.968,7.737,1.968V377.145z"
				/>
			<path fill="#DDC89E" d="M675.205,377.63h-16.458v-22.803l0.137-0.143c0.082-0.085,2.104-2.116,8.098-2.118
				c5.66,0,7.967,2.009,8.062,2.094l0.161,0.145V377.63z M659.717,376.658h14.517v-21.396c-0.588-0.411-2.805-1.723-7.246-1.723
				c-4.698,0-6.748,1.305-7.271,1.705V376.658z"/>
		</g>
		<path fill="#DDC89E" d="M656.64,377.119c0,0.023-0.004,0.04-0.004,0.064c0,2.011,1.628,2.747,3.634,2.747h13.074
			c2.009,0,3.632-0.736,3.632-2.747c0-0.024-0.007-0.041-0.007-0.064H656.64z"/>
		<path fill="#DDC89E" d="M666.221,377.145h1.169v-24.082c-0.135-0.003-0.267-0.01-0.408-0.01c-0.266,0-0.513,0.01-0.761,0.016
			V377.145z"/>
		<rect x="659.248" y="362.119" fill="#DDC89E" width="15.521" height="1.108"/>
	</g>
	<g>
		<g>
			<path fill="#43403D" d="M626.2,415.744h-15.486v-22.125c0,0,1.897-1.967,7.751-1.967c5.537-0.001,7.735,1.967,7.735,1.967
				V415.744z"/>
			<path fill="#DDC89E" d="M626.686,416.229h-16.456v-22.803l0.135-0.143c0.084-0.086,2.105-2.117,8.101-2.117
				c5.659,0,7.964,2.008,8.062,2.092l0.159,0.146V416.229z M611.2,415.256h14.516V393.86c-0.586-0.412-2.806-1.724-7.247-1.724
				c-4.695,0-6.748,1.306-7.269,1.706V415.256z"/>
		</g>
		<path fill="#DDC89E" d="M608.122,415.718c0,0.022-0.005,0.038-0.005,0.063c0,2.012,1.627,2.746,3.634,2.746h13.072
			c2.014,0,3.635-0.734,3.635-2.746c0-0.025-0.003-0.041-0.003-0.063H608.122z"/>
		<path fill="#DDC89E" d="M617.7,415.744h1.174V391.66c-0.137-0.003-0.268-0.008-0.409-0.008c-0.265,0-0.514,0.008-0.765,0.016
			V415.744z"/>
		<rect x="610.73" y="400.719" fill="#DDC89E" width="15.521" height="1.106"/>
	</g>
	<g>
		<g>
			<path fill="#43403D" d="M650.462,415.744h-15.489v-22.125c0,0,1.893-1.967,7.75-1.967c5.539-0.001,7.739,1.967,7.739,1.967
				V415.744z"/>
			<path fill="#DDC89E" d="M650.946,416.229h-16.46v-22.803l0.138-0.143c0.084-0.086,2.105-2.117,8.099-2.117
				c5.662,0,7.968,2.008,8.063,2.092l0.16,0.146V416.229z M635.46,415.256h14.515V393.86c-0.589-0.412-2.808-1.724-7.248-1.724
				c-4.697,0-6.749,1.306-7.267,1.706V415.256z"/>
		</g>
		<path fill="#DDC89E" d="M632.38,415.718c0,0.022-0.006,0.038-0.006,0.063c0,2.012,1.629,2.746,3.635,2.746h13.075
			c2.008,0,3.632-0.734,3.632-2.746c0-0.025-0.005-0.041-0.005-0.063H632.38z"/>
		<path fill="#DDC89E" d="M641.959,415.744h1.171V391.66c-0.135-0.003-0.264-0.008-0.407-0.008c-0.267,0-0.512,0.008-0.764,0.016
			V415.744z"/>
		<rect x="634.99" y="400.719" fill="#DDC89E" width="15.519" height="1.106"/>
	</g>
	<g>
		<g>
			<path fill="#43403D" d="M674.719,415.744h-15.484v-22.125c0,0,1.89-1.967,7.747-1.967c5.538-0.001,7.737,1.967,7.737,1.967
				V415.744z"/>
			<path fill="#DDC89E" d="M675.205,416.229h-16.458v-22.803l0.137-0.143c0.082-0.086,2.104-2.117,8.098-2.117
				c5.66,0,7.967,2.008,8.062,2.092l0.161,0.146V416.229z M659.717,415.256h14.517V393.86c-0.588-0.412-2.805-1.724-7.246-1.724
				c-4.698,0-6.748,1.306-7.271,1.706V415.256z"/>
		</g>
		<path fill="#DDC89E" d="M656.64,415.718c0,0.022-0.004,0.038-0.004,0.063c0,2.012,1.628,2.746,3.634,2.746h13.074
			c2.009,0,3.632-0.734,3.632-2.746c0-0.025-0.007-0.041-0.007-0.063H656.64z"/>
		<path fill="#DDC89E" d="M666.221,415.744h1.169V391.66c-0.135-0.003-0.267-0.008-0.408-0.008c-0.266,0-0.513,0.008-0.761,0.016
			V415.744z"/>
		<rect x="659.248" y="400.719" fill="#DDC89E" width="15.521" height="1.106"/>
	</g>
	<g>
		<g>
			<path fill="#43403D" d="M626.2,456.814h-15.486v-22.123c0,0,1.897-1.969,7.751-1.969c5.537,0,7.735,1.969,7.735,1.969V456.814z"
				/>
			<path fill="#DDC89E" d="M626.686,457.301h-16.456v-22.803l0.135-0.143c0.084-0.086,2.105-2.117,8.101-2.117
				c5.659,0,7.964,2.007,8.062,2.092l0.159,0.145V457.301z M611.2,456.329h14.516v-21.396c-0.586-0.411-2.806-1.725-7.247-1.725
				c-4.695,0.002-6.748,1.306-7.269,1.708V456.329z"/>
		</g>
		<path fill="#DDC89E" d="M608.122,456.79c0,0.022-0.005,0.039-0.005,0.063c0,2.011,1.627,2.746,3.634,2.746h13.072
			c2.014,0,3.635-0.735,3.635-2.746c0-0.024-0.003-0.041-0.003-0.063H608.122z"/>
		<path fill="#DDC89E" d="M617.7,456.814h1.174v-24.082c-0.137-0.004-0.268-0.01-0.409-0.01c-0.265,0-0.514,0.01-0.765,0.018
			V456.814z"/>
		<rect x="610.73" y="441.79" fill="#DDC89E" width="15.521" height="1.107"/>
	</g>
	<g>
		<g>
			<path fill="#43403D" d="M650.462,456.814h-15.489v-22.123c0,0,1.893-1.969,7.75-1.969c5.539,0,7.739,1.969,7.739,1.969V456.814z"
				/>
			<path fill="#DDC89E" d="M650.946,457.301h-16.46v-22.803l0.138-0.143c0.084-0.086,2.105-2.117,8.099-2.117
				c5.662,0,7.968,2.007,8.063,2.092l0.16,0.145V457.301z M635.46,456.329h14.515v-21.396c-0.589-0.411-2.808-1.725-7.248-1.725
				c-4.697,0.002-6.749,1.306-7.267,1.708V456.329z"/>
		</g>
		<path fill="#DDC89E" d="M632.38,456.79c0,0.022-0.006,0.039-0.006,0.063c0,2.011,1.629,2.746,3.635,2.746h13.075
			c2.008,0,3.632-0.735,3.632-2.746c0-0.024-0.005-0.041-0.005-0.063H632.38z"/>
		<path fill="#DDC89E" d="M641.959,456.814h1.171v-24.082c-0.135-0.004-0.264-0.01-0.407-0.01c-0.267,0-0.512,0.01-0.764,0.018
			V456.814z"/>
		<rect x="634.99" y="441.79" fill="#DDC89E" width="15.519" height="1.107"/>
	</g>
	<g>
		<g>
			<path fill="#43403D" d="M674.719,456.814h-15.484v-22.123c0,0,1.89-1.969,7.747-1.969c5.538,0,7.737,1.969,7.737,1.969V456.814z"
				/>
			<path fill="#DDC89E" d="M675.205,457.301h-16.458v-22.803l0.137-0.143c0.082-0.086,2.104-2.117,8.098-2.117
				c5.66,0,7.967,2.007,8.062,2.092l0.161,0.145V457.301z M659.717,456.329h14.517v-21.396c-0.588-0.411-2.805-1.725-7.246-1.725
				c-4.698,0.002-6.748,1.306-7.271,1.708V456.329z"/>
		</g>
		<path fill="#DDC89E" d="M656.64,456.79c0,0.022-0.004,0.039-0.004,0.063c0,2.011,1.628,2.746,3.634,2.746h13.074
			c2.009,0,3.632-0.735,3.632-2.746c0-0.024-0.007-0.041-0.007-0.063H656.64z"/>
		<path fill="#DDC89E" d="M666.221,456.814h1.169v-24.082c-0.135-0.004-0.267-0.01-0.408-0.01c-0.266,0-0.513,0.01-0.761,0.018
			V456.814z"/>
		<rect x="659.248" y="441.79" fill="#DDC89E" width="15.521" height="1.107"/>
	</g>
	<g>
		<path fill="#DDC89E" d="M646.921,316.426c0.967,0,1.752-0.785,1.752-1.751v-5.968c0-3.012-2.443-5.453-5.453-5.453
			c-3.012,0-5.457,2.441-5.457,5.453v5.968c0,0.966,0.785,1.751,1.752,1.751H646.921z"/>
		<path fill="#43403D" d="M646.021,309.588c0,2.029-1.255,3.676-2.802,3.676c-1.55,0-2.805-1.646-2.805-3.676
			c0-2.034,1.255-3.68,2.805-3.68C644.767,305.908,646.021,307.554,646.021,309.588z"/>
	</g>
	<g>
		<rect x="594.344" y="342.007" fill="#BF5D13" width="10.595" height="181.853"/>
		<rect x="592.097" y="339.989" fill="#DDC89E" width="15.088" height="6.578"/>
		<path fill="#DDC89E" d="M604.479,335.541c0,2.67-2.163,4.836-4.84,4.836c-2.669,0-4.834-2.166-4.834-4.836
			c0-2.672,2.165-4.837,4.834-4.837C602.316,330.704,604.479,332.869,604.479,335.541z"/>
	</g>
	<g>
		<rect x="650.059" y="471.443" fill="#C1B093" width="23.962" height="45.33"/>
		<path fill="#543829" d="M667.929,479.141c-2.807,0-5.079,2.274-5.079,5.08v32.556h10.154v-32.556
			C673.004,481.415,670.733,479.141,667.929,479.141z"/>
		<path fill="#543829" d="M656.433,479.141c-2.805,0-5.075,2.274-5.075,5.08v32.556h10.153v-32.556
			C661.511,481.415,659.236,479.141,656.433,479.141z"/>
		<rect x="647.334" y="513.783" fill="#D1CBC7" width="27.935" height="2.861"/>
		<rect x="645.202" y="516.645" fill="#E0DAD5" width="32.199" height="3.068"/>
		<rect x="642.211" y="519.713" fill="#F5F5F5" width="37.998" height="4.334"/>
		<rect x="652.486" y="488.766" opacity="0.43" fill="#C1B093" width="7.611" height="15.542"/>
		<rect x="664.468" y="488.766" opacity="0.43" fill="#C1B093" width="7.61" height="15.542"/>
	</g>
	<g>
		<rect x="609.279" y="471.158" fill="#C1B093" width="34.64" height="37.278"/>
		<rect x="611.419" y="473.465" fill="#43403D" width="30.358" height="32.666"/>
		<polygon opacity="0.2" fill="#F5F5F5" points="619.471,506.131 641.777,506.131 641.777,473.465 629.565,473.465 		"/>
	</g>
	<path fill="#F44E21" d="M646.969,481.484v-6.717c0-2.25-1.639-4.074-3.666-4.074h-34.231c-2.025,0-3.666,1.824-3.666,4.074v6.717
		H646.969z"/>
	<g>
		<g>
			<path fill="#64A333" d="M639.685,506.262c0.705-1.166,1.115-2.529,1.115-3.992c0-4.27-2.633-7.731-10.737-7.731h-6.989
				c-7.393,0-10.838,3.462-10.838,7.731c0,1.463,0.413,2.826,1.112,3.992H639.685z"/>
			<path fill="#8FD348" d="M631.813,506.262c1.771-1.418,2.91-3.597,2.91-6.048c0-2.19-0.702-4.165-2.472-5.571
				c-0.685-0.062-1.404-0.104-2.189-0.104h-6.989c-7.393,0-10.838,3.462-10.838,7.731c0,1.465,0.413,2.826,1.115,3.992H631.813z"/>
			<g>
				<g>
					<g>
						<g>
							<g>
								<g>
									<path fill="#FFFAE6" d="M626.015,494.184h-0.055v-0.047c0-0.218-0.198-0.395-0.449-0.395c-0.245,0-0.447,0.177-0.447,0.395
										v0.047h-0.053c-0.246,0-0.446,0.178-0.446,0.396s0.2,0.396,0.446,0.396h0.053v0.047c0,0.218,0.202,0.396,0.447,0.396
										c0.251,0,0.449-0.178,0.449-0.396v-0.047h0.055c0.247,0,0.447-0.177,0.447-0.396S626.262,494.184,626.015,494.184z"/>
								</g>
							</g>
						</g>
					</g>
				</g>
				<g>
					<g>
						<g>
							<g>
								<g>
									<path fill="#FFD9D9" d="M625.733,494.409h-0.027v-0.022c0-0.094-0.084-0.171-0.195-0.171c-0.104,0-0.191,0.077-0.191,0.171
										v0.022h-0.023c-0.105,0-0.195,0.075-0.195,0.171c0,0.095,0.09,0.17,0.195,0.17h0.023v0.021
										c0,0.094,0.087,0.173,0.191,0.173c0.111,0,0.195-0.079,0.195-0.173v-0.021h0.027c0.105,0,0.191-0.075,0.191-0.17
										C625.925,494.484,625.839,494.409,625.733,494.409z"/>
								</g>
							</g>
						</g>
					</g>
				</g>
			</g>
			<g>
				<g>
					<g>
						<g>
							<g>
								<g>
									<path fill="#FFFAE6" d="M625.682,499.537h-0.06v-0.054c0-0.246-0.228-0.446-0.508-0.446c-0.278,0-0.504,0.2-0.504,0.446
										v0.054h-0.062c-0.277,0-0.504,0.201-0.504,0.446c0,0.247,0.227,0.445,0.504,0.445h0.062v0.055
										c0,0.245,0.226,0.445,0.504,0.445c0.28,0,0.508-0.2,0.508-0.445v-0.055h0.06c0.278,0,0.508-0.198,0.508-0.445
										C626.189,499.738,625.96,499.537,625.682,499.537z"/>
								</g>
							</g>
						</g>
					</g>
				</g>
				<g>
					<g>
						<g>
							<g>
								<g>
									<path fill="#FFD9D9" d="M625.361,499.791h-0.025v-0.024c0-0.106-0.098-0.193-0.222-0.193c-0.12,0-0.219,0.087-0.219,0.193
										v0.024h-0.023c-0.124,0-0.219,0.086-0.219,0.192c0,0.107,0.095,0.194,0.219,0.194h0.023v0.023
										c0,0.105,0.099,0.193,0.219,0.193c0.124,0,0.222-0.088,0.222-0.193v-0.023h0.025c0.122,0,0.22-0.087,0.22-0.194
										C625.581,499.877,625.483,499.791,625.361,499.791z"/>
								</g>
							</g>
						</g>
					</g>
				</g>
			</g>
			<g>
				<g>
					<g>
						<g>
							<g>
								<g>
									<path fill="#FFFAE6" d="M630.842,498.199h-0.061v-0.055c0-0.244-0.226-0.444-0.505-0.444c-0.282,0-0.505,0.2-0.505,0.444
										v0.055h-0.063c-0.279,0-0.504,0.2-0.504,0.445c0,0.248,0.225,0.447,0.504,0.447h0.063v0.054
										c0,0.245,0.223,0.445,0.505,0.445c0.279,0,0.505-0.2,0.505-0.445v-0.054h0.061c0.279,0,0.504-0.199,0.504-0.447
										C631.346,498.399,631.121,498.199,630.842,498.199z"/>
								</g>
							</g>
						</g>
					</g>
				</g>
				<g>
					<g>
						<g>
							<g>
								<g>
									<path fill="#FFD9D9" d="M630.521,498.451h-0.024v-0.022c0-0.106-0.097-0.192-0.22-0.192c-0.121,0-0.22,0.086-0.22,0.192
										v0.022h-0.026c-0.122,0-0.219,0.087-0.219,0.193c0,0.107,0.097,0.193,0.219,0.193h0.026v0.024
										c0,0.106,0.099,0.193,0.22,0.193c0.123,0,0.22-0.087,0.22-0.193v-0.024h0.024c0.121,0,0.222-0.086,0.222-0.193
										C630.742,498.538,630.642,498.451,630.521,498.451z"/>
								</g>
							</g>
						</g>
					</g>
				</g>
			</g>
			<g>
				<g>
					<g>
						<g>
							<g>
								<g>
									<path fill="#FFFAE6" d="M625.78,503.051h-0.062v-0.053c0-0.246-0.226-0.445-0.505-0.445c-0.28,0-0.505,0.199-0.505,0.445
										v0.053h-0.061c-0.28,0-0.504,0.2-0.504,0.446c0,0.247,0.224,0.446,0.504,0.446h0.061v0.055
										c0,0.244,0.225,0.443,0.505,0.443c0.279,0,0.505-0.199,0.505-0.443v-0.055h0.062c0.277,0,0.506-0.199,0.506-0.446
										C626.286,503.251,626.058,503.051,625.78,503.051z"/>
								</g>
							</g>
						</g>
					</g>
				</g>
				<g>
					<g>
						<g>
							<g>
								<g>
									<path fill="#FFD9D9" d="M625.459,503.305h-0.026v-0.024c0-0.107-0.097-0.193-0.22-0.193c-0.118,0-0.219,0.086-0.219,0.193
										v0.024h-0.026c-0.12,0-0.22,0.084-0.22,0.192c0,0.106,0.1,0.194,0.22,0.194h0.026v0.023c0,0.106,0.101,0.193,0.219,0.193
										c0.123,0,0.22-0.087,0.22-0.193v-0.023h0.026c0.122,0,0.22-0.088,0.22-0.194
										C625.679,503.389,625.581,503.305,625.459,503.305z"/>
								</g>
							</g>
						</g>
					</g>
				</g>
			</g>
			<g>
				<g>
					<g>
						<g>
							<g>
								<g>
									<path fill="#FFFAE6" d="M631.417,503.11h-0.061v-0.053c0-0.247-0.226-0.446-0.507-0.446c-0.278,0-0.503,0.199-0.503,0.446
										v0.053h-0.062c-0.278,0-0.505,0.2-0.505,0.447c0,0.245,0.227,0.444,0.505,0.444h0.062v0.056
										c0,0.246,0.225,0.444,0.503,0.444c0.281,0,0.507-0.198,0.507-0.444v-0.056h0.061c0.281,0,0.504-0.199,0.504-0.444
										C631.921,503.311,631.698,503.11,631.417,503.11z"/>
								</g>
							</g>
						</g>
					</g>
				</g>
				<g>
					<g>
						<g>
							<g>
								<g>
									<path fill="#FFD9D9" d="M631.095,503.363h-0.023v-0.023c0-0.106-0.101-0.193-0.222-0.193c-0.119,0-0.22,0.087-0.22,0.193
										v0.023h-0.023c-0.122,0-0.221,0.086-0.221,0.194c0,0.105,0.099,0.193,0.221,0.193h0.023v0.023
										c0,0.106,0.101,0.192,0.22,0.192c0.121,0,0.222-0.086,0.222-0.192v-0.023h0.023c0.122,0,0.219-0.088,0.219-0.193
										C631.313,503.449,631.217,503.363,631.095,503.363z"/>
								</g>
							</g>
						</g>
					</g>
				</g>
			</g>
			<g>
				<g>
					<g>
						<g>
							<g>
								<g>
									<path fill="#FFFAE6" d="M619.499,502.923h-0.062v-0.056c0-0.244-0.225-0.445-0.503-0.445s-0.506,0.201-0.506,0.445v0.056
										h-0.062c-0.28,0-0.506,0.199-0.506,0.444c0,0.247,0.226,0.447,0.506,0.447h0.062v0.053c0,0.247,0.228,0.447,0.506,0.447
										s0.503-0.2,0.503-0.447v-0.053h0.062c0.278,0,0.502-0.2,0.502-0.447C620.001,503.122,619.777,502.923,619.499,502.923z"/>
								</g>
							</g>
						</g>
					</g>
				</g>
				<g>
					<g>
						<g>
							<g>
								<g>
									<path fill="#FFD9D9" d="M619.177,503.174h-0.027v-0.023c0-0.105-0.098-0.193-0.216-0.193c-0.123,0-0.222,0.088-0.222,0.193
										v0.023h-0.025c-0.121,0-0.218,0.088-0.218,0.193c0,0.109,0.097,0.195,0.218,0.195h0.025v0.022
										c0,0.107,0.099,0.192,0.222,0.192c0.118,0,0.216-0.085,0.216-0.192v-0.022h0.027c0.121,0,0.218-0.086,0.218-0.195
										C619.395,503.262,619.298,503.174,619.177,503.174z"/>
								</g>
							</g>
						</g>
					</g>
				</g>
			</g>
			<g>
				<g>
					<g>
						<g>
							<g>
								<g>
									<path fill="#FFFAE6" d="M636.7,502.857h-0.06v-0.053c0-0.246-0.228-0.445-0.507-0.445c-0.278,0-0.504,0.199-0.504,0.445
										v0.053h-0.061c-0.28,0-0.508,0.2-0.508,0.447c0,0.246,0.228,0.446,0.508,0.446h0.061v0.052
										c0,0.248,0.226,0.447,0.504,0.447c0.279,0,0.507-0.199,0.507-0.447v-0.052h0.06c0.277,0,0.507-0.2,0.507-0.446
										C637.207,503.058,636.978,502.857,636.7,502.857z"/>
								</g>
							</g>
						</g>
					</g>
				</g>
				<g>
					<g>
						<g>
							<g>
								<g>
									<path fill="#FFD9D9" d="M636.381,503.11h-0.027v-0.022c0-0.107-0.097-0.193-0.22-0.193c-0.121,0-0.22,0.086-0.22,0.193
										v0.022h-0.025c-0.121,0-0.22,0.087-0.22,0.194c0,0.105,0.099,0.192,0.22,0.192h0.025v0.024c0,0.105,0.099,0.193,0.22,0.193
										c0.123,0,0.22-0.088,0.22-0.193v-0.024h0.027c0.118,0,0.218-0.087,0.218-0.192
										C636.599,503.197,636.499,503.11,636.381,503.11z"/>
								</g>
							</g>
						</g>
					</g>
				</g>
			</g>
			<g>
				<g>
					<g>
						<g>
							<g>
								<g>
									<path fill="#FFFAE6" d="M633.878,504.969h-0.027v-0.025c0-0.111-0.105-0.205-0.232-0.205c-0.128,0-0.234,0.094-0.234,0.205
										v0.025h-0.025c-0.132,0-0.232,0.092-0.232,0.205s0.101,0.205,0.232,0.205h0.025v0.023c0,0.114,0.106,0.205,0.234,0.205
										c0.127,0,0.232-0.091,0.232-0.205v-0.023h0.027c0.129,0,0.232-0.092,0.232-0.205S634.007,504.969,633.878,504.969z"/>
								</g>
							</g>
						</g>
					</g>
				</g>
				<g>
					<g>
						<g>
							<g>
								<g>
									<path fill="#FFD9D9" d="M633.729,505.085h-0.01v-0.011c0-0.05-0.045-0.091-0.101-0.091c-0.058,0-0.102,0.041-0.102,0.091
										v0.011h-0.012c-0.058,0-0.102,0.039-0.102,0.089s0.044,0.089,0.102,0.089h0.012v0.011c0,0.047,0.044,0.089,0.102,0.089
										c0.056,0,0.101-0.042,0.101-0.089v-0.011h0.01c0.058,0,0.104-0.039,0.104-0.089S633.786,505.085,633.729,505.085z"/>
								</g>
							</g>
						</g>
					</g>
				</g>
			</g>
			<g>
				<g>
					<g>
						<g>
							<g>
								<g>
									<path fill="#FFFAE6" d="M628.455,504.969h-0.028v-0.025c0-0.111-0.105-0.205-0.234-0.205c-0.128,0-0.232,0.094-0.232,0.205
										v0.025h-0.028c-0.126,0-0.231,0.092-0.231,0.205s0.105,0.205,0.231,0.205h0.028v0.023c0,0.114,0.104,0.205,0.232,0.205
										c0.129,0,0.234-0.091,0.234-0.205v-0.023h0.028c0.126,0,0.231-0.092,0.231-0.205S628.581,504.969,628.455,504.969z"/>
								</g>
							</g>
						</g>
					</g>
				</g>
				<g>
					<g>
						<g>
							<g>
								<g>
									<path fill="#FFD9D9" d="M628.306,505.085h-0.012v-0.011c0-0.05-0.048-0.091-0.102-0.091c-0.055,0-0.101,0.041-0.101,0.091
										v0.011h-0.013c-0.055,0-0.101,0.039-0.101,0.089s0.046,0.089,0.101,0.089h0.013v0.011c0,0.047,0.046,0.089,0.101,0.089
										c0.054,0,0.102-0.042,0.102-0.089v-0.011h0.012c0.057,0,0.102-0.039,0.102-0.089S628.362,505.085,628.306,505.085z"/>
								</g>
							</g>
						</g>
					</g>
				</g>
			</g>
			<g>
				<g>
					<g>
						<g>
							<g>
								<g>
									<path fill="#FFFAE6" d="M622.021,504.969h-0.028v-0.025c0-0.111-0.104-0.205-0.233-0.205c-0.126,0-0.23,0.094-0.23,0.205
										v0.025h-0.027c-0.13,0-0.233,0.092-0.233,0.205s0.104,0.205,0.233,0.205h0.027v0.023c0,0.114,0.104,0.205,0.23,0.205
										c0.129,0,0.233-0.091,0.233-0.205v-0.023h0.028c0.13,0,0.23-0.092,0.23-0.205S622.15,504.969,622.021,504.969z"/>
								</g>
							</g>
						</g>
					</g>
				</g>
				<g>
					<g>
						<g>
							<g>
								<g>
									<path fill="#FFD9D9" d="M621.874,505.085h-0.012v-0.011c0-0.05-0.046-0.091-0.104-0.091c-0.053,0-0.101,0.041-0.101,0.091
										v0.011h-0.011c-0.054,0-0.098,0.039-0.098,0.089s0.044,0.089,0.098,0.089h0.011v0.011c0,0.047,0.048,0.089,0.101,0.089
										c0.058,0,0.104-0.042,0.104-0.089v-0.011h0.012c0.057,0,0.102-0.039,0.102-0.089S621.931,505.085,621.874,505.085z"/>
								</g>
							</g>
						</g>
					</g>
				</g>
			</g>
			<g>
				<g>
					<g>
						<g>
							<g>
								<g>
									<path fill="#FFFAE6" d="M616.882,504.969h-0.029v-0.025c0-0.111-0.104-0.205-0.233-0.205c-0.128,0-0.229,0.094-0.229,0.205
										v0.025h-0.029c-0.13,0-0.231,0.092-0.231,0.205s0.102,0.205,0.231,0.205h0.029v0.023c0,0.114,0.102,0.205,0.229,0.205
										c0.13,0,0.233-0.091,0.233-0.205v-0.023h0.029c0.126,0,0.233-0.092,0.233-0.205S617.008,504.969,616.882,504.969z"/>
								</g>
							</g>
						</g>
					</g>
				</g>
				<g>
					<g>
						<g>
							<g>
								<g>
									<path fill="#FFD9D9" d="M616.732,505.085h-0.013v-0.011c0-0.05-0.044-0.091-0.101-0.091s-0.101,0.041-0.101,0.091v0.011
										h-0.012c-0.057,0-0.1,0.039-0.1,0.089s0.043,0.089,0.1,0.089h0.012v0.011c0,0.047,0.044,0.089,0.101,0.089
										s0.101-0.042,0.101-0.089v-0.011h0.013c0.057,0,0.101-0.039,0.101-0.089S616.789,505.085,616.732,505.085z"/>
								</g>
							</g>
						</g>
					</g>
				</g>
			</g>
			<g>
				<g>
					<g>
						<g>
							<g>
								<g>
									<path fill="#FFFAE6" d="M626.354,496.761h-0.081v-0.071c0-0.331-0.305-0.6-0.68-0.6c-0.372,0-0.676,0.269-0.676,0.6v0.071
										h-0.081c-0.375,0-0.679,0.271-0.679,0.599c0,0.331,0.304,0.6,0.679,0.6h0.081v0.069c0,0.333,0.304,0.6,0.676,0.6
										c0.375,0,0.68-0.267,0.68-0.6v-0.069h0.081c0.375,0,0.679-0.269,0.679-0.6
										C627.032,497.031,626.729,496.761,626.354,496.761z"/>
								</g>
							</g>
						</g>
					</g>
				</g>
				<g>
					<g>
						<g>
							<g>
								<g>
									<path fill="#FFD9D9" d="M625.923,497.1h-0.034v-0.031c0-0.144-0.132-0.26-0.296-0.26c-0.162,0-0.294,0.116-0.294,0.26
										v0.031h-0.033c-0.165,0-0.296,0.115-0.296,0.26s0.131,0.26,0.296,0.26h0.033v0.032c0,0.142,0.132,0.259,0.294,0.259
										c0.164,0,0.296-0.117,0.296-0.259v-0.032h0.034c0.162,0,0.297-0.115,0.297-0.26S626.085,497.1,625.923,497.1z"/>
								</g>
							</g>
						</g>
					</g>
				</g>
			</g>
			<g>
				<g>
					<g>
						<g>
							<g>
								<g>
									<path fill="#FFFAE6" d="M621.452,497.846h-0.062v-0.055c0-0.256-0.235-0.463-0.525-0.463c-0.289,0-0.521,0.207-0.521,0.463
										v0.055h-0.063c-0.293,0-0.526,0.207-0.526,0.464c0,0.255,0.233,0.464,0.526,0.464h0.063v0.054
										c0,0.256,0.232,0.464,0.521,0.464c0.29,0,0.525-0.208,0.525-0.464v-0.054h0.062c0.292,0,0.525-0.209,0.525-0.464
										C621.978,498.053,621.744,497.846,621.452,497.846z"/>
								</g>
							</g>
						</g>
					</g>
				</g>
				<g>
					<g>
						<g>
							<g>
								<g>
									<path fill="#FFD9D9" d="M621.121,498.107h-0.027v-0.023c0-0.111-0.103-0.201-0.229-0.201c-0.125,0-0.226,0.09-0.226,0.201
										v0.023h-0.027c-0.126,0-0.227,0.09-0.227,0.202c0,0.11,0.101,0.2,0.227,0.2h0.027v0.025c0,0.109,0.101,0.201,0.226,0.201
										c0.127,0,0.229-0.092,0.229-0.201v-0.025h0.027c0.127,0,0.227-0.09,0.227-0.2
										C621.348,498.197,621.248,498.107,621.121,498.107z"/>
								</g>
							</g>
						</g>
					</g>
				</g>
			</g>
			<g>
				<g>
					<g>
						<g>
							<g>
								<g>
									<path fill="#FFFAE6" d="M618.899,497.005h-0.087v-0.075c0-0.347-0.317-0.63-0.71-0.63c-0.396,0-0.714,0.283-0.714,0.63
										v0.075h-0.085c-0.393,0-0.711,0.28-0.711,0.629c0,0.347,0.318,0.628,0.711,0.628h0.085v0.074
										c0,0.348,0.318,0.63,0.714,0.63c0.393,0,0.71-0.282,0.71-0.63v-0.074h0.087c0.393,0,0.711-0.281,0.711-0.628
										C619.61,497.285,619.292,497.005,618.899,497.005z"/>
								</g>
							</g>
						</g>
					</g>
				</g>
				<g>
					<g>
						<g>
							<g>
								<g>
									<path fill="#FFD9D9" d="M618.446,497.361h-0.035v-0.033c0-0.151-0.139-0.273-0.309-0.273c-0.173,0-0.309,0.122-0.309,0.273
										v0.033h-0.037c-0.172,0-0.308,0.12-0.308,0.272c0,0.151,0.136,0.272,0.308,0.272h0.037v0.033
										c0,0.15,0.136,0.271,0.309,0.271c0.17,0,0.309-0.121,0.309-0.271v-0.033h0.035c0.171,0,0.311-0.121,0.311-0.272
										C618.757,497.481,618.617,497.361,618.446,497.361z"/>
								</g>
							</g>
						</g>
					</g>
				</g>
			</g>
			<g>
				<g>
					<g>
						<g>
							<g>
								<g>
									<path fill="#FFFAE6" d="M623.099,494.939h-0.077v-0.07c0-0.316-0.295-0.574-0.655-0.574c-0.358,0-0.652,0.258-0.652,0.574
										v0.07h-0.077c-0.36,0-0.649,0.257-0.649,0.576c0,0.317,0.289,0.574,0.649,0.574h0.077v0.07
										c0,0.318,0.294,0.577,0.652,0.577c0.36,0,0.655-0.259,0.655-0.577v-0.07h0.077c0.36,0,0.65-0.257,0.65-0.574
										C623.749,495.196,623.459,494.939,623.099,494.939z"/>
								</g>
							</g>
						</g>
					</g>
				</g>
				<g>
					<g>
						<g>
							<g>
								<g>
									<path fill="#FFD9D9" d="M622.686,495.266h-0.035v-0.031c0-0.137-0.127-0.248-0.282-0.248s-0.281,0.111-0.281,0.248v0.031
										h-0.035c-0.158,0-0.285,0.111-0.285,0.25c0,0.138,0.127,0.25,0.285,0.25h0.035v0.031c0,0.137,0.126,0.248,0.281,0.248
										s0.282-0.111,0.282-0.248v-0.031h0.035c0.157,0,0.283-0.112,0.283-0.25C622.969,495.377,622.843,495.266,622.686,495.266z"
										/>
								</g>
							</g>
						</g>
					</g>
				</g>
			</g>
			<g>
				<g>
					<g>
						<g>
							<g>
								<g>
									<path fill="#FFFAE6" d="M629.826,494.824h-0.082v-0.074c0-0.328-0.306-0.598-0.68-0.598s-0.675,0.27-0.675,0.598v0.074
										h-0.082c-0.376,0-0.682,0.267-0.682,0.597c0,0.331,0.306,0.599,0.682,0.599h0.082v0.07c0,0.333,0.301,0.6,0.675,0.6
										s0.68-0.267,0.68-0.6v-0.07h0.082c0.374,0,0.679-0.268,0.679-0.599C630.505,495.091,630.2,494.824,629.826,494.824z"/>
								</g>
							</g>
						</g>
					</g>
				</g>
				<g>
					<g>
						<g>
							<g>
								<g>
									<path fill="#FFD9D9" d="M629.395,495.162h-0.034v-0.032c0-0.144-0.133-0.261-0.294-0.261c-0.164,0-0.294,0.117-0.294,0.261
										v0.032h-0.035c-0.164,0-0.296,0.117-0.296,0.259c0,0.144,0.132,0.261,0.296,0.261h0.035v0.031
										c0,0.143,0.13,0.26,0.294,0.26c0.161,0,0.294-0.117,0.294-0.26v-0.031h0.034c0.163,0,0.294-0.117,0.294-0.261
										C629.688,495.279,629.558,495.162,629.395,495.162z"/>
								</g>
							</g>
						</g>
					</g>
				</g>
			</g>
			<g>
				<g>
					<g>
						<g>
							<g>
								<g>
									<path fill="#FFFAE6" d="M633.858,496.031h-0.08v-0.07c0-0.332-0.302-0.6-0.679-0.6c-0.374,0-0.679,0.268-0.679,0.6v0.07
										h-0.08c-0.375,0-0.677,0.269-0.677,0.6c0,0.33,0.302,0.598,0.677,0.598h0.08v0.072c0,0.33,0.305,0.598,0.679,0.598
										c0.377,0,0.679-0.268,0.679-0.598v-0.072h0.08c0.377,0,0.679-0.268,0.679-0.598
										C634.537,496.3,634.235,496.031,633.858,496.031z"/>
								</g>
							</g>
						</g>
					</g>
				</g>
				<g>
					<g>
						<g>
							<g>
								<g>
									<path fill="#FFD9D9" d="M633.431,496.371h-0.037v-0.033c0-0.143-0.131-0.258-0.294-0.258c-0.161,0-0.294,0.115-0.294,0.258
										v0.033h-0.035c-0.162,0-0.293,0.115-0.293,0.26c0,0.144,0.131,0.26,0.293,0.26h0.035v0.029
										c0,0.145,0.133,0.262,0.294,0.262c0.163,0,0.294-0.117,0.294-0.262v-0.029h0.037c0.159,0,0.293-0.116,0.293-0.26
										C633.724,496.486,633.59,496.371,633.431,496.371z"/>
								</g>
							</g>
						</g>
					</g>
				</g>
			</g>
			<g>
				<g>
					<g>
						<g>
							<g>
								<g>
									<path fill="#FFFAE6" d="M636.824,498.457h-0.082v-0.072c0-0.331-0.301-0.598-0.677-0.598c-0.374,0-0.678,0.267-0.678,0.598
										v0.072h-0.083c-0.374,0-0.675,0.268-0.675,0.598c0,0.332,0.301,0.6,0.675,0.6h0.083v0.07c0,0.33,0.304,0.599,0.678,0.599
										c0.376,0,0.677-0.269,0.677-0.599v-0.07h0.082c0.374,0,0.679-0.268,0.679-0.6
										C637.503,498.725,637.198,498.457,636.824,498.457z"/>
								</g>
							</g>
						</g>
					</g>
				</g>
				<g>
					<g>
						<g>
							<g>
								<g>
									<path fill="#FFD9D9" d="M636.395,498.795h-0.035v-0.03c0-0.144-0.132-0.259-0.294-0.259s-0.294,0.115-0.294,0.259v0.03
										h-0.033c-0.163,0-0.297,0.116-0.297,0.26s0.134,0.26,0.297,0.26h0.033v0.033c0,0.142,0.132,0.26,0.294,0.26
										s0.294-0.118,0.294-0.26v-0.033h0.035c0.163,0,0.295-0.116,0.295-0.26S636.558,498.795,636.395,498.795z"/>
								</g>
							</g>
						</g>
					</g>
				</g>
			</g>
			<g>
				<g>
					<g>
						<g>
							<g>
								<g>
									<path fill="#FFFAE6" d="M622.609,500.949h-0.08v-0.072c0-0.329-0.303-0.598-0.677-0.598c-0.375,0-0.68,0.269-0.68,0.598
										v0.072h-0.081c-0.373,0-0.679,0.268-0.679,0.6c0,0.33,0.306,0.598,0.679,0.598h0.081v0.071c0,0.332,0.305,0.599,0.68,0.599
										c0.374,0,0.677-0.267,0.677-0.599v-0.071h0.08c0.376,0,0.679-0.268,0.679-0.598
										C623.288,501.217,622.985,500.949,622.609,500.949z"/>
								</g>
							</g>
						</g>
					</g>
				</g>
				<g>
					<g>
						<g>
							<g>
								<g>
									<path fill="#FFD9D9" d="M622.182,501.288h-0.036v-0.03c0-0.145-0.131-0.26-0.293-0.26c-0.165,0-0.296,0.115-0.296,0.26
										v0.03h-0.035c-0.163,0-0.294,0.116-0.294,0.261c0,0.144,0.131,0.259,0.294,0.259h0.035v0.032
										c0,0.143,0.131,0.26,0.296,0.26c0.162,0,0.293-0.117,0.293-0.26v-0.032h0.036c0.161,0,0.293-0.115,0.293-0.259
										C622.475,501.404,622.343,501.288,622.182,501.288z"/>
								</g>
							</g>
						</g>
					</g>
				</g>
			</g>
			<g>
				<g>
					<g>
						<g>
							<g>
								<g>
									<path fill="#FFFAE6" d="M629.011,500.495h-0.082v-0.071c0-0.33-0.302-0.6-0.678-0.6c-0.375,0-0.677,0.27-0.677,0.6v0.071
										h-0.081c-0.373,0-0.678,0.269-0.678,0.599s0.305,0.599,0.678,0.599h0.081v0.071c0,0.331,0.302,0.599,0.677,0.599
										c0.376,0,0.678-0.268,0.678-0.599v-0.071h0.082c0.374,0,0.678-0.269,0.678-0.599S629.385,500.495,629.011,500.495z"/>
								</g>
							</g>
						</g>
					</g>
				</g>
				<g>
					<g>
						<g>
							<g>
								<g>
									<path fill="#FFD9D9" d="M628.585,500.834h-0.039v-0.032c0-0.144-0.13-0.26-0.295-0.26c-0.161,0-0.294,0.116-0.294,0.26
										v0.032h-0.034c-0.164,0-0.297,0.115-0.297,0.26s0.133,0.26,0.297,0.26h0.034v0.031c0,0.144,0.133,0.26,0.294,0.26
										c0.165,0,0.295-0.116,0.295-0.26v-0.031h0.039c0.16,0,0.291-0.115,0.291-0.26S628.745,500.834,628.585,500.834z"/>
								</g>
							</g>
						</g>
					</g>
				</g>
			</g>
			<g>
				<g>
					<g>
						<g>
							<g>
								<g>
									<path fill="#FFFAE6" d="M634.216,500.495h-0.084v-0.071c0-0.33-0.299-0.6-0.676-0.6c-0.373,0-0.677,0.27-0.677,0.6v0.071
										h-0.083c-0.373,0-0.676,0.269-0.676,0.599s0.303,0.599,0.676,0.599h0.083v0.071c0,0.331,0.304,0.599,0.677,0.599
										c0.377,0,0.676-0.268,0.676-0.599v-0.071h0.084c0.374,0,0.679-0.269,0.679-0.599S634.59,500.495,634.216,500.495z"/>
								</g>
							</g>
						</g>
					</g>
				</g>
				<g>
					<g>
						<g>
							<g>
								<g>
									<path fill="#FFD9D9" d="M633.786,500.834h-0.035v-0.032c0-0.144-0.131-0.26-0.293-0.26c-0.164,0-0.294,0.116-0.294,0.26
										v0.032h-0.036c-0.162,0-0.293,0.115-0.293,0.26s0.131,0.26,0.293,0.26h0.036v0.031c0,0.144,0.13,0.26,0.294,0.26
										c0.162,0,0.293-0.116,0.293-0.26v-0.031h0.035c0.163,0,0.295-0.115,0.295-0.26S633.949,500.834,633.786,500.834z"/>
								</g>
							</g>
						</g>
					</g>
				</g>
			</g>
			<g>
				<g>
					<g>
						<g>
							<g>
								<g>
									<path fill="#FFFAE6" d="M640.025,500.495h-0.081v-0.071c0-0.33-0.306-0.6-0.682-0.6c-0.373,0-0.676,0.27-0.676,0.6v0.071
										h-0.081c-0.375,0-0.679,0.269-0.679,0.599s0.304,0.599,0.679,0.599h0.081v0.071c0,0.331,0.303,0.599,0.676,0.599
										c0.376,0,0.682-0.268,0.682-0.599v-0.071h0.081c0.373,0,0.677-0.269,0.677-0.599S640.398,500.495,640.025,500.495z"/>
								</g>
							</g>
						</g>
					</g>
				</g>
				<g>
					<g>
						<g>
							<g>
								<g>
									<path fill="#FFD9D9" d="M639.594,500.834h-0.035v-0.032c0-0.144-0.132-0.26-0.294-0.26c-0.16,0-0.294,0.116-0.294,0.26
										v0.032h-0.035c-0.161,0-0.293,0.115-0.293,0.26s0.132,0.26,0.293,0.26h0.035v0.031c0,0.144,0.134,0.26,0.294,0.26
										c0.162,0,0.294-0.116,0.294-0.26v-0.031h0.035c0.165,0,0.294-0.115,0.294-0.26S639.759,500.834,639.594,500.834z"/>
								</g>
							</g>
						</g>
					</g>
				</g>
			</g>
			<g>
				<g>
					<g>
						<g>
							<g>
								<g>
									<path fill="#FFFAE6" d="M617.606,500.807h-0.07v-0.062c0-0.284-0.258-0.514-0.581-0.514c-0.321,0-0.583,0.229-0.583,0.514
										v0.062h-0.069c-0.321,0-0.581,0.23-0.581,0.516c0,0.283,0.26,0.514,0.581,0.514h0.069v0.061
										c0,0.283,0.262,0.514,0.583,0.514c0.323,0,0.581-0.23,0.581-0.514v-0.061h0.07c0.323,0,0.584-0.23,0.584-0.514
										C618.19,501.037,617.93,500.807,617.606,500.807z"/>
								</g>
							</g>
						</g>
					</g>
				</g>
				<g>
					<g>
						<g>
							<g>
								<g>
									<path fill="#FFD9D9" d="M617.238,501.098h-0.031v-0.027c0-0.121-0.112-0.223-0.252-0.223s-0.252,0.102-0.252,0.223v0.027
										h-0.03c-0.14,0-0.254,0.1-0.254,0.225c0,0.121,0.114,0.222,0.254,0.222h0.03v0.026c0,0.125,0.112,0.223,0.252,0.223
										s0.252-0.098,0.252-0.223v-0.026h0.031c0.14,0,0.253-0.101,0.253-0.222C617.491,501.197,617.378,501.098,617.238,501.098z"
										/>
								</g>
							</g>
						</g>
					</g>
				</g>
			</g>
			<g>
				<g>
					<g>
						<g>
							<g>
								<g>
									<path fill="#FFFAE6" d="M615.339,498.717h-0.07v-0.062c0-0.283-0.26-0.513-0.58-0.513c-0.322,0-0.582,0.229-0.582,0.513
										v0.062h-0.071c-0.321,0-0.583,0.23-0.583,0.514c0,0.285,0.262,0.514,0.583,0.514h0.071v0.062
										c0,0.283,0.26,0.514,0.582,0.514c0.32,0,0.58-0.23,0.58-0.514v-0.062h0.07c0.323,0,0.582-0.229,0.582-0.514
										C615.921,498.947,615.662,498.717,615.339,498.717z"/>
								</g>
							</g>
						</g>
					</g>
				</g>
				<g>
					<g>
						<g>
							<g>
								<g>
									<path fill="#FFD9D9" d="M614.97,499.008h-0.03v-0.026c0-0.123-0.112-0.223-0.251-0.223c-0.143,0-0.254,0.1-0.254,0.223
										v0.026h-0.031c-0.139,0-0.252,0.102-0.252,0.223c0,0.123,0.113,0.224,0.252,0.224h0.031v0.026
										c0,0.124,0.111,0.223,0.254,0.223c0.139,0,0.251-0.099,0.251-0.223v-0.026h0.03c0.14,0,0.253-0.101,0.253-0.224
										C615.223,499.109,615.109,499.008,614.97,499.008z"/>
								</g>
							</g>
						</g>
					</g>
				</g>
			</g>
			<g>
				<g>
					<g>
						<g>
							<g>
								<g>
									<path fill="#FFFAE6" d="M615.339,502.871h-0.07v-0.061c0-0.284-0.26-0.514-0.58-0.514c-0.322,0-0.582,0.229-0.582,0.514
										v0.061h-0.071c-0.321,0-0.583,0.232-0.583,0.516c0,0.284,0.262,0.514,0.583,0.514h0.071v0.061
										c0,0.283,0.26,0.515,0.582,0.515c0.32,0,0.58-0.231,0.58-0.515V503.9h0.07c0.323,0,0.582-0.229,0.582-0.514
										C615.921,503.104,615.662,502.871,615.339,502.871z"/>
								</g>
							</g>
						</g>
					</g>
				</g>
				<g>
					<g>
						<g>
							<g>
								<g>
									<path fill="#FFD9D9" d="M614.97,503.164h-0.03v-0.027c0-0.123-0.112-0.223-0.251-0.223c-0.143,0-0.254,0.1-0.254,0.223
										v0.027h-0.031c-0.139,0-0.252,0.1-0.252,0.223s0.113,0.223,0.252,0.223h0.031v0.027c0,0.123,0.111,0.223,0.254,0.223
										c0.139,0,0.251-0.1,0.251-0.223v-0.027h0.03c0.14,0,0.253-0.1,0.253-0.223S615.109,503.164,614.97,503.164z"/>
								</g>
							</g>
						</g>
					</g>
				</g>
			</g>
		</g>
		<path fill="#543829" d="M610.519,505.963c0.054,1.988,1.134,3.581,2.47,3.581h27.059c1.336,0,2.417-1.593,2.47-3.581H610.519z"/>
	</g>
	<g>
		<path fill="#F5F5F5" d="M605.405,481.281c-0.014,0.079,0,0.156,0,0.238v2.533c0,1.006,0.745,1.82,1.805,1.82
			c1.059,0,1.916-0.814,1.916-1.82v-2.533c0-0.082-0.014-0.159-0.023-0.238H605.405z"/>
		<path fill="#D81212" d="M609.126,481.281c-0.012,0.079-0.027,0.156-0.027,0.238v2.533c0,1.006,0.859,1.82,1.914,1.82
			c1.053,0,1.911-0.814,1.911-1.82v-2.533c0-0.082-0.017-0.159-0.026-0.238H609.126z"/>
		<path fill="#F5F5F5" d="M612.823,481.281c-0.012,0.079-0.025,0.156-0.025,0.238v2.533c0,1.006,0.859,1.82,1.918,1.82
			c1.06,0,1.918-0.814,1.918-1.82v-2.533c0-0.082-0.015-0.159-0.025-0.238H612.823z"/>
		<path fill="#D81212" d="M616.604,481.281c-0.01,0.079-0.025,0.156-0.025,0.238v2.533c0,1.006,0.855,1.82,1.91,1.82
			c1.059,0,1.912-0.814,1.912-1.82v-2.533c0-0.082-0.015-0.159-0.025-0.238H616.604z"/>
		<path fill="#F5F5F5" d="M620.327,481.281c-0.01,0.079-0.023,0.156-0.023,0.238v2.533c0,1.006,0.859,1.82,1.919,1.82
			s1.919-0.814,1.919-1.82v-2.533c0-0.082-0.016-0.159-0.026-0.238H620.327z"/>
		<path fill="#D81212" d="M624.085,481.281c-0.012,0.079-0.026,0.156-0.026,0.238v2.533c0,1.006,0.857,1.82,1.911,1.82
			c1.057,0,1.914-0.814,1.914-1.82v-2.533c0-0.082-0.018-0.159-0.029-0.238H624.085z"/>
	</g>
	<g>
		<path fill="#F5F5F5" d="M627.994,481.166c-0.011,0.08-0.025,0.157-0.025,0.238v2.533c0,1.007,0.858,1.821,1.92,1.821
			c1.059,0,1.917-0.814,1.917-1.821v-2.533c0-0.081-0.014-0.158-0.026-0.238H627.994z"/>
		<path fill="#D81212" d="M631.834,481.281c-0.01,0.079-0.023,0.156-0.023,0.238v2.533c0,1.006,0.855,1.82,1.911,1.82
			s1.91-0.814,1.91-1.82v-2.533c0-0.082-0.016-0.159-0.025-0.238H631.834z"/>
		<path fill="#F5F5F5" d="M635.616,481.281c-0.01,0.079-0.023,0.156-0.023,0.238v2.533c0,1.006,0.855,1.82,1.916,1.82
			c1.06,0,1.918-0.814,1.918-1.82v-2.533c0-0.082-0.015-0.159-0.025-0.238H635.616z"/>
		<path fill="#D81212" d="M639.313,481.281c-0.012,0.079-0.025,0.156-0.025,0.238v2.533c0,1.006,0.856,1.82,1.913,1.82
			c1.056,0,1.909-0.814,1.909-1.82v-2.533c0-0.082-0.012-0.159-0.024-0.238H639.313z"/>
		<path fill="#F5F5F5" d="M643.124,481.281c-0.014,0.079-0.026,0.156-0.026,0.238v2.533c0,1.006,0.858,1.82,1.918,1.82
			c1.062,0,1.953-0.814,1.953-1.82v-2.533c0-0.082,0.009-0.159,0-0.238H643.124z"/>
	</g>
</g>
</svg>
