<?xml version="1.0" encoding="utf-8"?>
<!-- Generator: Adobe Illustrator 16.0.0, SVG Export Plug-In . SVG Version: 6.00 Build 0)  -->
<!DOCTYPE svg PUBLIC "-//W3C//DTD SVG 1.1//EN" "http://www.w3.org/Graphics/SVG/1.1/DTD/svg11.dtd">
<svg version="1.1" id="Layer_1" xmlns="http://www.w3.org/2000/svg" xmlns:xlink="http://www.w3.org/1999/xlink" x="0px" y="0px"
	 width="1280px" height="800px" viewBox="0 0 1280 800" enable-background="new 0 0 1280 800" xml:space="preserve">
<g>
	<g>
		<rect x="665.295" y="300.706" fill="#435B5A" width="6.97" height="30.062"/>
		<rect x="663.373" y="299.936" fill="#526D6D" width="10.813" height="2.657"/>
		<g>
			<rect x="670.837" y="296.104" fill="#526D6D" width="1.26" height="5.161"/>
			<rect x="665.464" y="296.104" fill="#526D6D" width="1.257" height="5.161"/>
		</g>
		<path fill="#423922" d="M671.788,292.152c-1.758-2.495-2.682-5.813-3.023-7.261v-0.135c-0.007,0.021-0.011,0.048-0.017,0.068
			c-0.004-0.021-0.011-0.048-0.016-0.068v0.136c-0.341,1.448-1.255,4.766-2.996,7.26c-2.11,3.023-3.554,3.294-3.554,3.294v1.223
			h6.55h0.032h6.608v-1.223C675.373,295.446,673.919,295.176,671.788,292.152z"/>
	</g>
	<rect x="597.536" y="327.003" fill="#423922" width="82.632" height="74.726"/>
	<rect x="621.087" y="309.51" fill="#A38181" width="35.607" height="47.859"/>
	<g>
		<polygon fill="#605A35" points="638.679,321.152 638.679,321.152 638.679,321.152 597.396,378.775 597.396,510.488 
			680.099,510.488 680.099,378.775 		"/>
	</g>
	<g>
		<polygon fill="#CCCAB2" points="617.275,313.148 617.275,308.061 638.656,296.062 659.256,308.061 659.256,313.148 		"/>
		<polygon fill="#A38181" points="621.354,309.076 638.234,300.666 654.757,309.076 		"/>
	</g>
	<rect x="597.396" y="362.546" fill="#B29B9B" width="10.074" height="25.608"/>
	<rect x="670.024" y="362.546" fill="#B29B9B" width="10.074" height="25.608"/>
	<g>
		<polygon fill="#B29B9B" points="638.679,325.522 638.679,325.522 638.679,325.522 597.396,383.146 597.396,514.859 
			680.099,514.859 680.099,383.146 		"/>
	</g>
	<circle fill="#CCCAB2" cx="675.175" cy="354.837" r="4.059"/>
	<circle fill="#CCCAB2" cx="602.407" cy="354.837" r="4.057"/>
	<g>
		<g>
			<path fill="#43403D" d="M621.441,403.93h-14.073v-26.85c0,0,1.721-2.389,7.042-2.389c5.031-0.001,7.031,2.389,7.031,2.389V403.93
				z"/>
			<path fill="#F5F5F5" d="M621.883,404.52h-14.954v-27.676l0.124-0.172c0.074-0.104,1.91-2.569,7.357-2.57
				c5.142,0,7.241,2.437,7.325,2.539l0.147,0.176V404.52z M607.812,403.339h13.188v-25.968c-0.535-0.498-2.549-2.091-6.584-2.091
				c-4.268,0.001-6.133,1.583-6.604,2.071V403.339z"/>
		</g>
		<path fill="#F5F5F5" d="M605.011,403.899c0,0.028-0.002,0.046-0.002,0.078c0,2.442,1.479,3.333,3.301,3.333h11.881
			c1.826,0,3.301-0.891,3.301-3.333c0-0.032-0.004-0.05-0.004-0.078H605.011z"/>
		<path fill="#F5F5F5" d="M613.716,403.93h1.063v-29.229c-0.124-0.002-0.242-0.01-0.369-0.01c-0.241,0-0.468,0.01-0.694,0.02V403.93
			z"/>
		<rect x="607.382" y="385.693" fill="#F5F5F5" width="14.105" height="1.346"/>
	</g>
	<g>
		<g>
			<path fill="#43403D" d="M645.946,403.93h-14.072v-26.85c0,0,1.721-2.389,7.041-2.389c5.031-0.001,7.031,2.389,7.031,2.389V403.93
				z"/>
			<path fill="#F5F5F5" d="M646.388,404.52h-14.954v-27.676l0.122-0.172c0.074-0.104,1.914-2.569,7.359-2.57
				c5.144,0,7.239,2.437,7.328,2.539l0.145,0.176V404.52z M632.317,403.339h13.188v-25.968c-0.532-0.498-2.551-2.091-6.586-2.091
				c-4.266,0.001-6.131,1.583-6.602,2.071V403.339z"/>
		</g>
		<path fill="#F5F5F5" d="M629.517,403.899c0,0.028-0.002,0.046-0.002,0.078c0,2.442,1.479,3.333,3.301,3.333h11.881
			c1.824,0,3.301-0.891,3.301-3.333c0-0.032-0.006-0.05-0.006-0.078H629.517z"/>
		<path fill="#F5F5F5" d="M638.222,403.93h1.066v-29.229c-0.125-0.002-0.242-0.01-0.373-0.01c-0.24,0-0.465,0.01-0.693,0.02V403.93z
			"/>
		<rect x="631.888" y="385.693" fill="#F5F5F5" width="14.103" height="1.346"/>
	</g>
	<g>
		<g>
			<path fill="#43403D" d="M670.452,403.93h-14.07v-26.85c0,0,1.719-2.389,7.041-2.389c5.031-0.001,7.029,2.389,7.029,2.389V403.93z
				"/>
			<path fill="#F5F5F5" d="M670.894,404.52h-14.955v-27.676l0.124-0.172c0.073-0.104,1.91-2.569,7.36-2.57
				c5.141,0,7.236,2.437,7.323,2.539l0.147,0.176V404.52z M656.821,403.339h13.189v-25.968c-0.533-0.498-2.552-2.091-6.586-2.091
				c-4.268,0.001-6.131,1.583-6.604,2.071V403.339z"/>
		</g>
		<path fill="#F5F5F5" d="M654.022,403.899c0,0.028-0.004,0.046-0.004,0.078c0,2.442,1.481,3.333,3.305,3.333H669.2
			c1.826,0,3.302-0.891,3.302-3.333c0-0.032-0.002-0.05-0.002-0.078H654.022z"/>
		<path fill="#F5F5F5" d="M662.726,403.93h1.068v-29.229c-0.125-0.002-0.241-0.01-0.371-0.01c-0.24,0-0.47,0.01-0.697,0.02V403.93z"
			/>
		<rect x="656.395" y="385.693" fill="#F5F5F5" width="14.104" height="1.346"/>
	</g>
	<g>
		<g>
			<path fill="#43403D" d="M621.441,448.296h-14.073v-26.852c0,0,1.721-2.388,7.042-2.388c5.031,0,7.031,2.388,7.031,2.388V448.296z
				"/>
			<path fill="#F5F5F5" d="M621.883,448.882h-14.954V421.21l0.124-0.173c0.074-0.105,1.91-2.568,7.357-2.571
				c5.142,0,7.241,2.437,7.325,2.541l0.147,0.177V448.882z M607.812,447.707h13.188v-25.969c-0.535-0.5-2.549-2.093-6.584-2.093
				c-4.268,0.003-6.133,1.583-6.604,2.071V447.707z"/>
		</g>
		<path fill="#F5F5F5" d="M605.011,448.264c0,0.029-0.002,0.047-0.002,0.08c0,2.439,1.479,3.332,3.301,3.332h11.881
			c1.826,0,3.301-0.893,3.301-3.332c0-0.033-0.004-0.051-0.004-0.08H605.011z"/>
		<path fill="#F5F5F5" d="M613.716,448.296h1.063v-29.228c-0.124-0.004-0.242-0.012-0.369-0.012c-0.241,0-0.468,0.012-0.694,0.02
			V448.296z"/>
		<rect x="607.382" y="430.06" fill="#F5F5F5" width="14.105" height="1.345"/>
	</g>
	<g>
		<g>
			<path fill="#43403D" d="M645.946,448.296h-14.072v-26.852c0,0,1.721-2.388,7.041-2.388c5.031,0,7.031,2.388,7.031,2.388V448.296z
				"/>
			<path fill="#F5F5F5" d="M646.388,448.882h-14.954V421.21l0.122-0.173c0.074-0.105,1.914-2.568,7.359-2.571
				c5.144,0,7.239,2.437,7.328,2.541l0.145,0.177V448.882z M632.317,447.707h13.188v-25.969c-0.532-0.5-2.551-2.093-6.586-2.093
				c-4.266,0.003-6.131,1.583-6.602,2.071V447.707z"/>
		</g>
		<path fill="#F5F5F5" d="M629.517,448.264c0,0.029-0.002,0.047-0.002,0.08c0,2.439,1.479,3.332,3.301,3.332h11.881
			c1.824,0,3.301-0.893,3.301-3.332c0-0.033-0.006-0.051-0.006-0.08H629.517z"/>
		<path fill="#F5F5F5" d="M638.222,448.296h1.066v-29.228c-0.125-0.004-0.242-0.012-0.373-0.012c-0.24,0-0.465,0.012-0.693,0.02
			V448.296z"/>
		<rect x="631.888" y="430.06" fill="#F5F5F5" width="14.103" height="1.345"/>
	</g>
	<g>
		<g>
			<path fill="#43403D" d="M670.452,448.296h-14.07v-26.852c0,0,1.719-2.388,7.041-2.388c5.031,0,7.029,2.388,7.029,2.388V448.296z"
				/>
			<path fill="#F5F5F5" d="M670.894,448.882h-14.955V421.21l0.124-0.173c0.073-0.105,1.91-2.568,7.36-2.571
				c5.141,0,7.236,2.437,7.323,2.541l0.147,0.177V448.882z M656.821,447.707h13.189v-25.969c-0.533-0.5-2.552-2.093-6.586-2.093
				c-4.268,0.003-6.131,1.583-6.604,2.071V447.707z"/>
		</g>
		<path fill="#F5F5F5" d="M654.022,448.264c0,0.029-0.004,0.047-0.004,0.08c0,2.439,1.481,3.332,3.305,3.332H669.2
			c1.826,0,3.302-0.893,3.302-3.332c0-0.033-0.002-0.051-0.002-0.08H654.022z"/>
		<path fill="#F5F5F5" d="M662.726,448.296h1.068v-29.228c-0.125-0.004-0.241-0.012-0.371-0.012c-0.24,0-0.47,0.012-0.697,0.02
			V448.296z"/>
		<rect x="656.395" y="430.06" fill="#F5F5F5" width="14.104" height="1.345"/>
	</g>
	<g>
		<rect x="634.13" y="341.432" fill="#FFFFFF" width="10.693" height="17.805"/>
		<path fill="#F5F5F5" d="M633.843,340.443h11.539v1.069c0,0.407-0.266,0.737-0.594,0.737h-10.354c-0.326,0-0.591-0.33-0.591-0.737
			V340.443z"/>
		<path fill="#F5F5F5" d="M645.312,360.736h-11.534v-1.066c0-0.407,0.264-0.742,0.589-0.742h10.357c0.326,0,0.588,0.335,0.588,0.742
			V360.736z"/>
		<rect x="635.245" y="342.25" fill="#43403D" width="8.32" height="16.678"/>
	</g>
	<rect x="597.396" y="460.55" fill="#B29B9B" width="82.702" height="54.31"/>
	<g>
		<rect x="638.228" y="464.971" fill="#F5F5F5" width="36.385" height="36.592"/>
		<rect x="639.438" y="466.191" fill="#43403D" width="33.963" height="34.15"/>
		<polygon opacity="0.28" fill="#F5F5F5" points="646.558,500.342 673.4,500.342 673.4,466.191 660.529,466.191 		"/>
		<rect x="638.23" y="476.916" fill="#F5F5F5" width="36.206" height="1.073"/>
		<rect x="655.745" y="477.373" fill="#F5F5F5" width="1.178" height="24.148"/>
	</g>
	<g>
		<rect x="635.439" y="505.539" fill="#B29B9B" width="44.792" height="9.416"/>
		<defs>
			<filter id="Adobe_OpacityMaskFilter" filterUnits="userSpaceOnUse" x="630.83" y="505.526" width="57.19" height="9.521">
				
					<feColorMatrix  type="matrix" values="-1 0 0 0 1  0 -1 0 0 1  0 0 -1 0 1  0 0 0 1 0" color-interpolation-filters="sRGB" result="source"/>
				<feFlood  style="flood-color:white;flood-opacity:1" result="back"/>
				<feBlend  in="source" in2="back" mode="normal"/>
			</filter>
		</defs>
		<mask maskUnits="userSpaceOnUse" x="630.83" y="505.526" width="57.19" height="9.521" id="SVGID_1_">
			<g filter="url(#Adobe_OpacityMaskFilter)">
				<path fill="#FFFFFF" d="M635.545,505.445c0,0-0.588,0.33-0.537,2.129c0.057,1.799-0.051,2.602,0.482,2.98
					c-0.588,0.994-1.175,4.306-1.175,4.306l0.801,2.649l-6.345,0.757c0,0-1.649-10.646-1.865-10.93
					c-0.217-0.284,1.491-4.778,1.491-4.778L635.545,505.445z"/>
				<path fill="#FFFFFF" d="M679.805,505.112l0.156,2.179l-0.053,2.602c0,0,0.695,0.237,0.695,0.52c0,0.285,0.105,3.785,0.105,3.785
					s0.214,0.474-0.748,0.805c-0.957,0.332-0.319,1.705-0.319,1.705l8.266-0.949l2.668-3.263c0,0,0.854-9.322,0.533-9.228
					c-0.322,0.096-9.652-1.181-9.652-1.181L679.805,505.112z"/>
			</g>
		</mask>
		<g mask="url(#SVGID_1_)">
			<g>
				<path fill="#B29B9B" d="M656.337,510.068c1.636,0,2.962,1.175,2.962,2.627v1.244c0,1.227-1.326,1.104-2.962,1.104h-1.981
					c-1.635,0-2.961-0.043-2.961-1.104v-1.244c0-1.452,1.326-2.627,2.961-2.627H656.337z"/>
				<path fill="#C0C0C0" d="M654.511,510.814l-1.369,0.678c-1.133,0.559-1.535,1.825-0.905,2.824l0.407,0.646
					c0.484,0.073,1.073,0.081,1.712,0.081h1.981c0.793,0,1.507,0.025,2.037-0.084c0.451-0.625,0.522-1.436,0.083-2.129l-0.767-1.215
					C657.064,510.615,655.636,510.256,654.511,510.814z"/>
				<path fill="#B29B9B" d="M648.11,510.068c1.638,0,2.963,1.175,2.963,2.627v1.244c0,1.227-1.325,1.104-2.963,1.104h-1.977
					c-1.639,0-2.964-0.043-2.964-1.104v-1.244c0-1.452,1.325-2.627,2.964-2.627H648.11z"/>
				<path fill="#C0C0C0" d="M645.177,511.297l-0.98,1.085c-0.684,0.749-0.668,1.79-0.054,2.528c0.524,0.121,1.218,0.133,1.991,0.133
					h1.977c0.645,0,1.239,0.016,1.725-0.037l0.217-0.238c0.809-0.895,0.646-2.199-0.363-2.92l-1.221-0.871
					C647.457,510.26,645.985,510.402,645.177,511.297z"/>
				<path fill="#B29B9B" d="M639.89,510.068c1.634,0,2.961,1.175,2.961,2.627v1.244c0,1.227-1.327,1.104-2.961,1.104h-1.985
					c-1.634,0-2.96-0.043-2.96-1.104v-1.244c0-1.452,1.326-2.627,2.96-2.627H639.89z"/>
				<path fill="#C0C0C0" d="M635.972,512.378l-0.291,1.37c-0.084,0.397-0.029,0.789,0.13,1.141c0.535,0.146,1.276,0.154,2.094,0.154
					h1.985c0.71,0,1.354,0.016,1.863-0.059c0.023-0.069,0.055-0.141,0.07-0.214l0.291-1.369c0.237-1.128-0.603-2.212-1.869-2.425
					l-1.54-0.254C637.434,510.509,636.206,511.251,635.972,512.378z"/>
			</g>
			<g>
				<path fill="#B29B9B" d="M641.889,510.504c-1.638,0-2.966-1.173-2.966-2.626v-1.247c0-1.224,1.328-1.102,2.966-1.102h1.979
					c1.637,0,2.962,0.044,2.962,1.102v1.247c0,1.453-1.325,2.626-2.962,2.626H641.889z"/>
				<path fill="#C0C0C0" d="M643.718,509.759l1.367-0.677c1.129-0.561,1.534-1.824,0.901-2.826l-0.401-0.646
					c-0.487-0.071-1.073-0.081-1.717-0.081h-1.979c-0.796,0-1.508-0.026-2.038,0.084c-0.451,0.625-0.52,1.438-0.084,2.129
					l0.767,1.217C641.161,509.958,642.585,510.319,643.718,509.759z"/>
				<path fill="#B29B9B" d="M650.114,510.504c-1.637,0-2.963-1.173-2.963-2.626v-1.247c0-1.224,1.326-1.102,2.963-1.102h1.978
					c1.638,0,2.961,0.044,2.961,1.102v1.247c0,1.453-1.323,2.626-2.961,2.626H650.114z"/>
				<path fill="#C0C0C0" d="M653.052,509.275l0.979-1.084c0.68-0.75,0.67-1.789,0.053-2.529c-0.525-0.118-1.221-0.133-1.991-0.133
					h-1.978c-0.643,0-1.237-0.016-1.723,0.037l-0.215,0.238c-0.812,0.895-0.648,2.2,0.355,2.92l1.223,0.872
					C650.769,510.314,652.238,510.17,653.052,509.275z"/>
				<path fill="#B29B9B" d="M658.337,510.504c-1.635,0-2.959-1.173-2.959-2.626v-1.247c0-1.224,1.324-1.102,2.959-1.102h1.982
					c1.636,0,2.964,0.044,2.964,1.102v1.247c0,1.453-1.328,2.626-2.964,2.626H658.337z"/>
				<path fill="#C0C0C0" d="M662.255,508.193l0.29-1.369c0.084-0.396,0.029-0.789-0.127-1.141c-0.535-0.145-1.279-0.154-2.099-0.154
					h-1.982c-0.709,0-1.354-0.016-1.865,0.057c-0.025,0.073-0.056,0.143-0.072,0.215l-0.289,1.369
					c-0.236,1.127,0.602,2.215,1.872,2.427l1.538,0.254C660.789,510.064,662.019,509.321,662.255,508.193z"/>
			</g>
			<g>
				<path fill="#B29B9B" d="M681.08,510.068c1.636,0,2.96,1.175,2.96,2.627v1.244c0,1.227-1.324,1.104-2.96,1.104h-1.982
					c-1.636,0-2.96-0.043-2.96-1.104v-1.244c0-1.452,1.324-2.627,2.96-2.627H681.08z"/>
				<path fill="#C0C0C0" d="M679.25,510.814l-1.367,0.678c-1.128,0.559-1.536,1.825-0.903,2.824l0.402,0.646
					c0.489,0.073,1.075,0.081,1.716,0.081h1.982c0.794,0,1.505,0.025,2.037-0.084c0.449-0.625,0.521-1.436,0.081-2.129l-0.761-1.215
					C681.807,510.615,680.379,510.256,679.25,510.814z"/>
				<path fill="#B29B9B" d="M672.856,510.068c1.636,0,2.959,1.175,2.959,2.627v1.244c0,1.227-1.323,1.104-2.959,1.104h-1.982
					c-1.638,0-2.957-0.043-2.957-1.104v-1.244c0-1.452,1.319-2.627,2.957-2.627H672.856z"/>
				<path fill="#C0C0C0" d="M669.919,511.297l-0.98,1.085c-0.683,0.749-0.67,1.79-0.056,2.528c0.53,0.121,1.223,0.133,1.991,0.133
					h1.982c0.641,0,1.234,0.016,1.717-0.037l0.221-0.238c0.805-0.895,0.646-2.199-0.361-2.92l-1.223-0.871
					C672.199,510.26,670.728,510.402,669.919,511.297z"/>
				<path fill="#B29B9B" d="M664.632,510.068c1.63,0,2.959,1.175,2.959,2.627v1.244c0,1.227-1.329,1.104-2.959,1.104h-1.984
					c-1.634,0-2.96-0.043-2.96-1.104v-1.244c0-1.452,1.326-2.627,2.96-2.627H664.632z"/>
				<path fill="#C0C0C0" d="M660.713,512.378l-0.292,1.37c-0.085,0.397-0.029,0.789,0.132,1.141
					c0.533,0.146,1.278,0.154,2.095,0.154h1.984c0.709,0,1.354,0.016,1.862-0.059c0.023-0.069,0.058-0.141,0.073-0.214l0.285-1.369
					c0.243-1.128-0.598-2.212-1.865-2.425l-1.54-0.254C662.178,510.509,660.949,511.251,660.713,512.378z"/>
			</g>
			<g>
				<path fill="#B29B9B" d="M666.631,510.504c-1.638,0-2.962-1.173-2.962-2.626v-1.247c0-1.224,1.324-1.102,2.962-1.102h1.979
					c1.635,0,2.962,0.044,2.962,1.102v1.247c0,1.453-1.327,2.626-2.962,2.626H666.631z"/>
				<path fill="#C0C0C0" d="M668.458,509.759l1.366-0.677c1.13-0.561,1.538-1.824,0.905-2.826l-0.407-0.646
					c-0.482-0.071-1.069-0.081-1.712-0.081h-1.979c-0.792,0-1.509-0.026-2.038,0.084c-0.45,0.625-0.52,1.438-0.086,2.129
					l0.767,1.217C665.901,509.958,667.327,510.319,668.458,509.759z"/>
				<path fill="#B29B9B" d="M674.855,510.504c-1.638,0-2.962-1.173-2.962-2.626v-1.247c0-1.224,1.324-1.102,2.962-1.102h1.979
					c1.636,0,2.964,0.044,2.964,1.102v1.247c0,1.453-1.328,2.626-2.964,2.626H674.855z"/>
				<path fill="#C0C0C0" d="M677.792,509.275l0.977-1.084c0.683-0.75,0.672-1.789,0.057-2.529c-0.529-0.118-1.224-0.133-1.99-0.133
					h-1.979c-0.645,0-1.234-0.016-1.72,0.037l-0.215,0.238c-0.811,0.895-0.652,2.2,0.354,2.92l1.224,0.872
					C675.509,510.314,676.984,510.17,677.792,509.275z"/>
				<path fill="#B29B9B" d="M683.079,510.504c-1.637,0-2.961-1.173-2.961-2.626v-1.247c0-1.224,1.324-1.102,2.961-1.102h1.984
					c1.631,0,2.957,0.044,2.957,1.102v1.247c0,1.453-1.326,2.626-2.957,2.626H683.079z"/>
				<path fill="#C0C0C0" d="M686.995,508.193l0.292-1.369c0.083-0.396,0.031-0.789-0.127-1.141
					c-0.536-0.145-1.282-0.154-2.097-0.154h-1.984c-0.711,0-1.355-0.016-1.868,0.057c-0.02,0.073-0.051,0.143-0.069,0.215
					l-0.289,1.369c-0.235,1.127,0.602,2.215,1.871,2.427l1.537,0.254C685.534,510.064,686.755,509.321,686.995,508.193z"/>
				<path fill="#B29B9B" d="M633.791,510.504c-1.633,0-2.961-1.173-2.961-2.626v-1.247c0-1.224,1.328-1.102,2.961-1.102h1.986
					c1.634,0,2.96,0.044,2.96,1.102v1.247c0,1.453-1.326,2.626-2.96,2.626H633.791z"/>
				<path fill="#C0C0C0" d="M637.706,508.193l0.293-1.369c0.086-0.396,0.033-0.789-0.128-1.141
					c-0.531-0.145-1.278-0.154-2.094-0.154h-1.986c-0.707,0-1.355-0.016-1.862,0.057c-0.025,0.073-0.055,0.143-0.071,0.215
					l-0.288,1.369c-0.24,1.127,0.599,2.215,1.871,2.427l1.538,0.254C636.25,510.064,637.474,509.321,637.706,508.193z"/>
			</g>
		</g>
	</g>
	<g>
		<rect x="597.398" y="505.539" fill="#B29B9B" width="41.209" height="9.416"/>
		<defs>
			<filter id="Adobe_OpacityMaskFilter_1_" filterUnits="userSpaceOnUse" x="593.159" y="505.526" width="52.617" height="9.521">
				
					<feColorMatrix  type="matrix" values="-1 0 0 0 1  0 -1 0 0 1  0 0 -1 0 1  0 0 0 1 0" color-interpolation-filters="sRGB" result="source"/>
				<feFlood  style="flood-color:white;flood-opacity:1" result="back"/>
				<feBlend  in="source" in2="back" mode="normal"/>
			</filter>
		</defs>
		<mask maskUnits="userSpaceOnUse" x="593.159" y="505.526" width="52.617" height="9.521" id="SVGID_2_">
			<g filter="url(#Adobe_OpacityMaskFilter_1_)">
				<path fill="#FFFFFF" d="M597.496,505.445c0,0-0.54,0.33-0.491,2.129s-0.049,2.602,0.444,2.98
					c-0.541,0.994-1.083,4.306-1.083,4.306l0.736,2.649l-5.836,0.757c0,0-1.521-10.646-1.719-10.93s1.373-4.778,1.373-4.778
					L597.496,505.445z"/>
				<path fill="#FFFFFF" d="M638.217,505.112l0.146,2.179l-0.051,2.602c0,0,0.641,0.237,0.641,0.52c0,0.285,0.1,3.785,0.1,3.785
					s0.196,0.474-0.689,0.805c-0.883,0.332-0.293,1.705-0.293,1.705l7.604-0.949l2.449-3.263c0,0,0.788-9.322,0.493-9.228
					c-0.295,0.096-8.881-1.181-8.881-1.181L638.217,505.112z"/>
			</g>
		</mask>
		<g mask="url(#SVGID_2_)">
			<g>
				<path fill="#B29B9B" d="M616.625,510.068c1.507,0,2.729,1.175,2.729,2.627v1.244c0,1.227-1.222,1.104-2.729,1.104h-1.82
					c-1.505,0-2.727-0.043-2.727-1.104v-1.244c0-1.452,1.222-2.627,2.727-2.627H616.625z"/>
				<path fill="#C0C0C0" d="M614.945,510.814l-1.257,0.678c-1.042,0.559-1.415,1.825-0.834,2.824l0.371,0.646
					c0.447,0.073,0.99,0.081,1.579,0.081h1.82c0.729,0,1.387,0.025,1.874-0.084c0.415-0.625,0.477-1.436,0.079-2.129l-0.706-1.215
					C617.294,510.615,615.987,510.256,614.945,510.814z"/>
				<path fill="#B29B9B" d="M609.061,510.068c1.503,0,2.723,1.175,2.723,2.627v1.244c0,1.227-1.22,1.104-2.723,1.104h-1.822
					c-1.505,0-2.726-0.043-2.726-1.104v-1.244c0-1.452,1.221-2.627,2.726-2.627H609.061z"/>
				<path fill="#C0C0C0" d="M606.358,511.297l-0.902,1.085c-0.627,0.749-0.615,1.79-0.049,2.528
					c0.482,0.121,1.122,0.133,1.831,0.133h1.822c0.589,0,1.134,0.016,1.581-0.037l0.2-0.238c0.745-0.895,0.599-2.199-0.331-2.92
					l-1.125-0.871C608.461,510.26,607.104,510.402,606.358,511.297z"/>
				<path fill="#B29B9B" d="M601.492,510.068c1.504,0,2.728,1.175,2.728,2.627v1.244c0,1.227-1.224,1.104-2.728,1.104h-1.823
					c-1.504,0-2.726-0.043-2.726-1.104v-1.244c0-1.452,1.222-2.627,2.726-2.627H601.492z"/>
				<path fill="#C0C0C0" d="M597.887,512.378l-0.265,1.37c-0.08,0.397-0.029,0.789,0.117,1.141c0.492,0.146,1.177,0.154,1.93,0.154
					h1.823c0.652,0,1.247,0.016,1.716-0.059c0.021-0.069,0.053-0.141,0.066-0.214l0.266-1.369c0.218-1.128-0.552-2.212-1.717-2.425
					l-1.42-0.254C599.234,510.509,598.105,511.251,597.887,512.378z"/>
			</g>
			<g>
				<path fill="#B29B9B" d="M603.335,510.504c-1.508,0-2.729-1.173-2.729-2.626v-1.247c0-1.224,1.221-1.102,2.729-1.102h1.82
					c1.506,0,2.723,0.044,2.723,1.102v1.247c0,1.453-1.217,2.626-2.723,2.626H603.335z"/>
				<path fill="#C0C0C0" d="M605.015,509.759l1.259-0.677c1.038-0.561,1.411-1.824,0.831-2.826l-0.371-0.646
					c-0.448-0.071-0.99-0.081-1.578-0.081h-1.82c-0.732,0-1.387-0.026-1.879,0.084c-0.409,0.625-0.475,1.438-0.072,2.129l0.7,1.217
					C602.661,509.958,603.973,510.319,605.015,509.759z"/>
				<path fill="#B29B9B" d="M610.901,510.504c-1.508,0-2.729-1.173-2.729-2.626v-1.247c0-1.224,1.221-1.102,2.729-1.102h1.817
					c1.509,0,2.728,0.044,2.728,1.102v1.247c0,1.453-1.219,2.626-2.728,2.626H610.901z"/>
				<path fill="#C0C0C0" d="M613.6,509.275l0.903-1.084c0.627-0.75,0.615-1.789,0.051-2.529c-0.486-0.118-1.125-0.133-1.835-0.133
					h-1.817c-0.594,0-1.141-0.016-1.583,0.037l-0.202,0.238c-0.742,0.895-0.597,2.2,0.331,2.92l1.126,0.872
					C611.501,510.314,612.856,510.17,613.6,509.275z"/>
				<path fill="#B29B9B" d="M618.467,510.504c-1.505,0-2.727-1.173-2.727-2.626v-1.247c0-1.224,1.222-1.102,2.727-1.102h1.823
					c1.502,0,2.725,0.044,2.725,1.102v1.247c0,1.453-1.223,2.626-2.725,2.626H618.467z"/>
				<path fill="#C0C0C0" d="M622.072,508.193l0.262-1.369c0.079-0.396,0.029-0.789-0.113-1.141
					c-0.494-0.145-1.179-0.154-1.931-0.154h-1.823c-0.653,0-1.247-0.016-1.715,0.057c-0.025,0.073-0.051,0.143-0.067,0.215
					l-0.266,1.369c-0.22,1.127,0.553,2.215,1.719,2.427l1.419,0.254C620.724,510.064,621.853,509.321,622.072,508.193z"/>
			</g>
			<g>
				<path fill="#B29B9B" d="M639.392,510.068c1.503,0,2.723,1.175,2.723,2.627v1.244c0,1.227-1.22,1.104-2.723,1.104h-1.822
					c-1.506,0-2.728-0.043-2.728-1.104v-1.244c0-1.452,1.222-2.627,2.728-2.627H639.392z"/>
				<path fill="#C0C0C0" d="M637.706,510.814l-1.258,0.678c-1.041,0.559-1.414,1.825-0.833,2.824l0.373,0.646
					c0.446,0.073,0.989,0.081,1.581,0.081h1.822c0.727,0,1.383,0.025,1.873-0.084c0.414-0.625,0.479-1.436,0.077-2.129l-0.707-1.215
					C640.061,510.615,638.746,510.256,637.706,510.814z"/>
				<path fill="#B29B9B" d="M631.823,510.068c1.503,0,2.726,1.175,2.726,2.627v1.244c0,1.227-1.223,1.104-2.726,1.104h-1.824
					c-1.505,0-2.724-0.043-2.724-1.104v-1.244c0-1.452,1.219-2.627,2.724-2.627H631.823z"/>
				<path fill="#C0C0C0" d="M629.119,511.297l-0.9,1.085c-0.627,0.749-0.617,1.79-0.048,2.528c0.483,0.121,1.121,0.133,1.828,0.133
					h1.824c0.589,0,1.135,0.016,1.58-0.037l0.201-0.238c0.742-0.895,0.597-2.199-0.331-2.92l-1.122-0.871
					C631.219,510.26,629.866,510.402,629.119,511.297z"/>
				<path fill="#B29B9B" d="M624.255,510.068c1.505,0,2.725,1.175,2.725,2.627v1.244c0,1.227-1.22,1.104-2.725,1.104h-1.824
					c-1.503,0-2.723-0.043-2.723-1.104v-1.244c0-1.452,1.22-2.627,2.723-2.627H624.255z"/>
				<path fill="#C0C0C0" d="M620.651,512.378l-0.265,1.37c-0.078,0.397-0.029,0.789,0.119,1.141
					c0.489,0.146,1.171,0.154,1.925,0.154h1.824c0.654,0,1.244,0.016,1.715-0.059c0.022-0.069,0.053-0.141,0.064-0.214l0.271-1.369
					c0.216-1.128-0.553-2.212-1.722-2.425l-1.417-0.254C621.997,510.509,620.87,511.251,620.651,512.378z"/>
			</g>
			<g>
				<path fill="#B29B9B" d="M626.097,510.504c-1.506,0-2.725-1.173-2.725-2.626v-1.247c0-1.224,1.219-1.102,2.725-1.102h1.824
					c1.5,0,2.721,0.044,2.721,1.102v1.247c0,1.453-1.221,2.626-2.721,2.626H626.097z"/>
				<path fill="#C0C0C0" d="M627.777,509.759l1.257-0.677c1.041-0.561,1.415-1.824,0.836-2.826l-0.374-0.646
					c-0.448-0.071-0.989-0.081-1.575-0.081h-1.824c-0.728,0-1.389-0.026-1.875,0.084c-0.416,0.625-0.479,1.438-0.078,2.129
					l0.704,1.217C625.425,509.958,626.739,510.319,627.777,509.759z"/>
				<path fill="#B29B9B" d="M633.662,510.504c-1.506,0-2.727-1.173-2.727-2.626v-1.247c0-1.224,1.221-1.102,2.727-1.102h1.823
					c1.505,0,2.727,0.044,2.727,1.102v1.247c0,1.453-1.222,2.626-2.727,2.626H633.662z"/>
				<path fill="#C0C0C0" d="M636.365,509.275l0.903-1.084c0.623-0.75,0.612-1.789,0.046-2.529c-0.482-0.118-1.124-0.133-1.829-0.133
					h-1.823c-0.59,0-1.136-0.016-1.583,0.037l-0.197,0.238c-0.746,0.895-0.598,2.2,0.33,2.92l1.123,0.872
					C634.266,510.314,635.619,510.17,636.365,509.275z"/>
				<path fill="#B29B9B" d="M641.228,510.504c-1.502,0-2.724-1.173-2.724-2.626v-1.247c0-1.224,1.222-1.102,2.724-1.102h1.824
					c1.504,0,2.725,0.044,2.725,1.102v1.247c0,1.453-1.221,2.626-2.725,2.626H641.228z"/>
				<path fill="#C0C0C0" d="M644.831,508.193l0.269-1.369c0.077-0.396,0.027-0.789-0.115-1.141c-0.494-0.145-1.18-0.154-1.933-0.154
					h-1.824c-0.652,0-1.245-0.016-1.716,0.057c-0.021,0.073-0.049,0.143-0.065,0.215l-0.263,1.369
					c-0.222,1.127,0.551,2.215,1.718,2.427l1.418,0.254C643.489,510.064,644.615,509.321,644.831,508.193z"/>
				<path fill="#B29B9B" d="M595.884,510.504c-1.504,0-2.725-1.173-2.725-2.626v-1.247c0-1.224,1.221-1.102,2.725-1.102h1.824
					c1.507,0,2.727,0.044,2.727,1.102v1.247c0,1.453-1.22,2.626-2.727,2.626H595.884z"/>
				<path fill="#C0C0C0" d="M599.487,508.193l0.269-1.369c0.08-0.396,0.028-0.789-0.117-1.141c-0.491-0.145-1.179-0.154-1.931-0.154
					h-1.824c-0.653,0-1.242-0.016-1.711,0.057c-0.025,0.073-0.054,0.143-0.068,0.215l-0.268,1.369
					c-0.219,1.127,0.553,2.215,1.72,2.427l1.418,0.254C598.144,510.064,599.271,509.321,599.487,508.193z"/>
			</g>
		</g>
	</g>
	<g>
		<rect x="608.843" y="466.954" fill="#A58B5D" width="17.541" height="46.687"/>
		<path fill="#F5F5F5" d="M627.249,514.508h-19.275v-48.421h19.275V514.508z M609.71,512.771h15.804v-44.949H609.71V512.771z"/>
		<rect x="606.403" y="505.69" fill="#D1CBC7" width="22.212" height="2.558"/>
		<rect x="604.708" y="508.248" fill="#E0DAD5" width="25.602" height="3.421"/>
		<rect x="602.197" y="510.987" fill="#F5F5F5" width="30.62" height="4.293"/>
		<rect x="612.146" y="470.77" fill="#43403D" width="11.032" height="4.707"/>
		<rect x="612.146" y="477.748" fill="#43403D" width="11.032" height="12.549"/>
	</g>
	<path fill="#E0DFD3" d="M682.032,360.84c0,1.244-1.01,2.254-2.256,2.254h-9.204c-1.246,0-2.255-1.01-2.255-2.254v-3.343h13.715
		V360.84z"/>
	<path fill="#E0DFD3" d="M609.264,360.84c0,1.244-1.009,2.254-2.254,2.254h-9.202c-1.247,0-2.256-1.01-2.256-2.254v-3.343h13.712
		V360.84z"/>
</g>
</svg>
