<?xml version="1.0" encoding="utf-8"?>
<!-- Generator: Adobe Illustrator 16.0.0, SVG Export Plug-In . SVG Version: 6.00 Build 0)  -->
<!DOCTYPE svg PUBLIC "-//W3C//DTD SVG 1.1//EN" "http://www.w3.org/Graphics/SVG/1.1/DTD/svg11.dtd">
<svg version="1.1" id="Layer_1" xmlns="http://www.w3.org/2000/svg" xmlns:xlink="http://www.w3.org/1999/xlink" x="0px" y="0px"
	 width="1280px" height="800px" viewBox="0 0 1280 800" enable-background="new 0 0 1280 800" xml:space="preserve">
<g>
	<g>
		<path fill="#962506" d="M660.521,349.439c-5.169-8.857-5.106-26.41-5.106-26.41v-5.035h-3.136
			c-2.183-4.746-6.533-7.985-11.548-7.985c-5.018,0-9.373,3.239-11.552,7.985h-3.135v5.035c0,0,0.06,17.553-5.107,26.41
			c-5.191,8.896-12.786,7.833-12.786,7.833V486.08h32.168h0.821h32.168V357.272C673.308,357.272,665.712,358.335,660.521,349.439z"
			/>
		<path fill="#F7DDA9" d="M674.379,350.331c0,2.313-1.645,4.19-3.667,4.19c-2.027,0-3.67-1.877-3.67-4.19s1.643-4.19,3.67-4.19
			C672.734,346.141,674.379,348.018,674.379,350.331z"/>
		<path fill="#F7DDA9" d="M621.104,361.402h-12.967c-1.336,0-1.31-2.553-1.31-5.7l0,0h14.276V361.402z"/>
		<path fill="#F7DDA9" d="M661.595,361.402h11.263c1.157,0,1.136-2.553,1.136-5.7l0,0h-12.398V361.402z"/>
		<path fill="#F7DDA9" d="M671,351.785c-1.446,2.205-6.673,1.802-9.563-3.153c-4.857-8.329-4.865-25.331-4.865-25.495v-6.686h-3.738
			c-2.609-4.931-7.248-7.957-12.326-7.985v3.309c4.294,0.028,8.199,2.741,10.2,7.099l0.407,0.885h2.562v3.372
			c-0.004,0.686-0.205,18.324,5.35,27.337c1.932,3.131,3.099,4.518,6.886,5.735c3.021,0.972,7.113-0.337,8.082-4.858L671,351.785z"
			/>
		<ellipse fill="#F7DDA9" cx="610.4" cy="350.331" rx="3.667" ry="4.19"/>
		<path fill="#F7DDA9" d="M610.113,351.785c1.443,2.205,6.671,1.802,9.562-3.153c4.859-8.329,4.867-25.331,4.867-25.495v-6.686
			h3.738c2.604-4.931,7.244-7.957,12.324-7.985v3.309c-4.297,0.028-8.2,2.741-10.2,7.099l-0.409,0.885h-2.561v3.372
			c0.003,0.686,0.206,18.324-5.353,27.337c-1.93,3.131-3.095,4.518-6.883,5.735c-3.021,0.972-7.116-0.337-8.079-4.858
			L610.113,351.785z"/>
		<path fill="#F7DDA9" d="M640.604,304.169c-2.99,0-5.412,2.771-5.412,6.187h10.824
			C646.017,306.939,643.593,304.169,640.604,304.169z"/>
		<ellipse fill="#F7DDA9" cx="640.495" cy="326.561" rx="2.707" ry="2.97"/>
		<g>
			<g>
				<g>
					<g>
						<rect x="634.589" y="340.072" fill="#F7DDA9" width="10.346" height="21.695"/>
					</g>
				</g>
			</g>
			<g>
				<g>
					<g>
						<rect x="636.149" y="345.026" fill="#43403D" width="7.223" height="13.766"/>
					</g>
				</g>
			</g>
		</g>
	</g>
	<g>
		<g>
			<rect x="616.378" y="398.809" fill="#F7DDA9" width="15.943" height="32.66"/>
			<rect x="617.718" y="400.897" fill="#43403D" width="13.264" height="25.729"/>
			<rect x="623.702" y="408.279" fill="#B29B9B" width="1.004" height="18.348"/>
			<rect x="617.728" y="408.312" fill="#B29B9B" width="13.299" height="1.158"/>
		</g>
		<g>
			<rect x="648.794" y="398.809" fill="#F7DDA9" width="15.937" height="32.66"/>
			<rect x="650.13" y="400.897" fill="#43403D" width="13.264" height="25.729"/>
			<rect x="656.114" y="408.279" fill="#B29B9B" width="1.004" height="18.348"/>
			<rect x="650.144" y="408.312" fill="#B29B9B" width="13.295" height="1.158"/>
		</g>
	</g>
	<g>
		<rect x="615.663" y="370.107" fill="#F7DDA9" width="49.788" height="20.76"/>
		<g>
			<rect x="617.808" y="372.326" fill="#43403D" width="10.938" height="15.822"/>
			<rect x="652.368" y="372.326" fill="#43403D" width="10.936" height="15.822"/>
			<rect x="631.359" y="372.326" fill="#43403D" width="18.39" height="15.822"/>
		</g>
	</g>
	<rect x="608.15" y="439.169" fill="#E2C48F" width="65.157" height="56.878"/>
	<g>
		<rect x="616.671" y="459.1" fill="#84581F" width="13.371" height="35.592"/>
		<path fill="#BD6B32" d="M630.705,495.352h-14.699v-36.914h14.699V495.352z M617.329,494.029h12.05v-34.269h-12.05V494.029z"/>
		<rect x="614.806" y="488.63" fill="#D1CBC7" width="16.938" height="1.95"/>
		<rect x="613.517" y="490.58" fill="#E0DAD5" width="19.52" height="2.047"/>
		<rect x="611.602" y="492.669" fill="#F5F5F5" width="23.347" height="3.378"/>
		<rect x="619.185" y="462.008" fill="#43403D" width="8.413" height="3.588"/>
		<rect x="619.185" y="467.327" fill="#43403D" width="8.413" height="9.567"/>
	</g>
	<rect x="615.663" y="443.414" fill="#BD6B32" width="15.361" height="12.975"/>
	<rect x="616.169" y="443.839" fill="#43403D" width="14.35" height="12.124"/>
	<path fill="#BD6B32" d="M623.009,443.839v0.349v0.004c0,0.027,0.004,2.699-1.551,4.268c-0.716,0.72-1.669,1.089-2.82,1.115
		c-0.045-0.001-0.082-0.01-0.125-0.01h-2.333v0.021v0.643v0.021h2.333c0.043,0,0.08-0.01,0.125-0.011
		c1.15,0.027,2.101,0.396,2.817,1.116c1.553,1.561,1.554,4.24,1.554,4.271v0.337h0.67v-0.336v-0.005c0-0.026-0.002-2.698,1.55-4.265
		c0.716-0.722,1.667-1.091,2.82-1.118c0.041,0.001,0.081,0.011,0.126,0.011h2.336v-0.021v-0.643v-0.021h-2.336
		c-0.045,0-0.085,0.009-0.126,0.01c-1.153-0.026-2.103-0.396-2.814-1.115c-1.556-1.562-1.556-4.24-1.556-4.27v-0.351H623.009z
		 M624.756,448.928c0.432,0.433,0.933,0.759,1.492,0.979c-0.56,0.222-1.061,0.547-1.492,0.981c-0.752,0.757-1.167,1.711-1.413,2.571
		c-0.242-0.86-0.66-1.814-1.412-2.571c-0.432-0.435-0.934-0.76-1.494-0.981c0.561-0.221,1.062-0.547,1.494-0.979
		c0.752-0.759,1.17-1.714,1.412-2.573C623.589,447.214,624.004,448.169,624.756,448.928z"/>
	<g>
		<rect x="636.149" y="443.345" fill="#BD6B32" width="33.323" height="36.865"/>
		<rect x="637.26" y="444.574" fill="#43403D" width="31.103" height="34.406"/>
		<polygon opacity="0.28" fill="#F5F5F5" points="643.78,478.98 668.362,478.98 668.362,444.574 656.577,444.574 		"/>
		<rect x="636.158" y="455.381" fill="#BD6B32" width="33.15" height="1.081"/>
		<rect x="652.192" y="455.84" fill="#BD6B32" width="1.082" height="24.33"/>
	</g>
</g>
</svg>
