<?xml version="1.0" encoding="utf-8"?>
<!-- Generator: Adobe Illustrator 16.0.0, SVG Export Plug-In . SVG Version: 6.00 Build 0)  -->
<!DOCTYPE svg PUBLIC "-//W3C//DTD SVG 1.1//EN" "http://www.w3.org/Graphics/SVG/1.1/DTD/svg11.dtd">
<svg version="1.1" id="Layer_1" xmlns="http://www.w3.org/2000/svg" xmlns:xlink="http://www.w3.org/1999/xlink" x="0px" y="0px"
	 width="1280px" height="800px" viewBox="0 0 1280 800" enable-background="new 0 0 1280 800" xml:space="preserve">
<g>
	<polygon fill="#CCCAB2" points="641.038,297.633 641.038,297.633 641.038,297.633 592.38,374.793 592.38,530.047 689.864,530.047 
		689.864,374.793 	"/>
	<polygon fill="#8BA372" points="641.038,308.189 641.038,308.189 641.038,308.189 592.38,385.349 592.38,528.725 689.864,528.725 
		689.864,385.349 	"/>
	<rect x="602.028" y="361.369" fill="#CCCAB2" width="78.185" height="3.958"/>
	<rect x="592.38" y="472.299" fill="#CCCAB2" width="97.484" height="57.748"/>
	<g>
		<rect x="624.622" y="478.662" fill="#F5F5F5" width="32.997" height="41.154"/>
		<rect x="625.723" y="480.037" fill="#43403D" width="30.795" height="38.408"/>
		<polygon opacity="0.28" fill="#F5F5F5" points="632.179,518.445 656.518,518.445 656.518,480.037 644.85,480.037 		"/>
	</g>
	<g>
		<rect x="600.562" y="478.662" fill="#F5F5F5" width="19.634" height="41.154"/>
		<rect x="601.214" y="480.037" fill="#43403D" width="18.328" height="38.408"/>
		<polygon opacity="0.28" fill="#F5F5F5" points="605.057,518.445 619.542,518.445 619.542,480.037 612.596,480.037 		"/>
	</g>
	<g>
		<rect x="662.91" y="478.662" fill="#F5F5F5" width="19.634" height="41.154"/>
		<rect x="663.564" y="480.037" fill="#43403D" width="18.325" height="38.408"/>
		<polygon opacity="0.28" fill="#F5F5F5" points="667.408,518.445 681.89,518.445 681.89,480.037 674.946,480.037 		"/>
	</g>
	<path fill="#CCCAB2" d="M658.68,320.249h-11.269h-0.36h-23.49c0,0.026-0.005,0.913-0.005,0.944c0,2.486,1.766,3.398,3.951,3.398
		h19.544h0.36h7.322c2.186,0,3.953-0.912,3.953-3.398C658.687,321.162,658.68,320.275,658.68,320.249z"/>
	<rect x="678.052" y="350.51" fill="#B0C699" width="11.875" height="121.897"/>
	<polygon fill="#B0C699" points="656.626,332.824 656.626,474.057 662.563,474.057 662.563,342.207 	"/>
	<polygon fill="#B0C699" points="625.613,332.646 619.679,342.062 619.679,472.299 625.613,472.299 	"/>
	<rect x="635.018" y="296.047" fill="#CCCAB2" width="12.206" height="12.208"/>
	<g>
		<path fill="#CCCAB2" d="M692.072,347.197c0,2.732-2.216,4.949-4.951,4.949h-6.265c-2.732,0-4.948-2.217-4.948-4.949v-1.65h16.164
			V347.197z"/>
		<path fill="#CCCAB2" d="M678.251,333.962c-0.043,0.368-0.071,0.742-0.071,1.126c0,4.094,2.6,7.415,5.81,7.415
			c3.209,0,5.812-3.321,5.812-7.415c0-0.384-0.03-0.758-0.071-1.126H678.251z"/>
		<circle fill="#CCCAB2" cx="683.989" cy="344.406" r="2.666"/>
		<path fill="#CCCAB2" d="M688.309,335.498c0,2.387-1.937,4.318-4.322,4.318c-2.38,0-4.314-1.932-4.314-4.318
			c0-2.383,1.935-4.316,4.314-4.316C686.372,331.182,688.309,333.115,688.309,335.498z"/>
	</g>
	<g>
		<g>
			<rect x="632.8" y="349.487" fill="#FFFFFF" width="16.34" height="26.093"/>
			<path fill="#F5F5F5" d="M632.353,348.039h17.637v1.568c0,0.598-0.406,1.082-0.902,1.082h-15.828
				c-0.498,0-0.906-0.484-0.906-1.082V348.039z"/>
			<path fill="#F5F5F5" d="M649.886,377.776h-17.632v-1.563c0-0.597,0.402-1.086,0.906-1.086h15.825c0.497,0,0.9,0.489,0.9,1.086
				V377.776z"/>
			<rect x="634.499" y="350.689" fill="#43403D" width="12.713" height="24.438"/>
		</g>
		<rect x="640.581" y="348.982" fill="#F5F5F5" width="1.08" height="28.249"/>
	</g>
	<g>
		<circle fill="#D8D6C3" cx="640.922" cy="338.936" r="4.949"/>
		<circle fill="#43403D" cx="640.921" cy="338.936" r="3.761"/>
		<rect x="640.524" y="334.383" fill="#DDDBC7" width="0.794" height="9.104"/>
		<rect x="636.073" y="338.541" fill="#DDDBC7" width="9.698" height="0.791"/>
	</g>
	<g>
		<path fill="#D8D6C3" d="M674.903,373.082c0,2.822-2.291,5.111-5.116,5.111c-2.824,0-5.111-2.289-5.111-5.111
			c0-2.826,2.287-5.117,5.111-5.117C672.612,367.965,674.903,370.256,674.903,373.082z"/>
		<path fill="#43403D" d="M673.675,373.082c0,2.145-1.742,3.885-3.888,3.885c-2.146,0-3.889-1.74-3.889-3.885
			c0-2.148,1.742-3.889,3.889-3.889C671.933,369.193,673.675,370.934,673.675,373.082z"/>
		<rect x="669.38" y="368.377" fill="#DDDBC7" width="0.815" height="9.406"/>
		<rect x="664.778" y="372.672" fill="#DDDBC7" width="10.02" height="0.818"/>
	</g>
	<g>
		<path fill="#D8D6C3" d="M616.509,373.082c0,2.822-2.288,5.111-5.115,5.111c-2.822,0-5.111-2.289-5.111-5.111
			c0-2.826,2.289-5.117,5.111-5.117C614.221,367.965,616.509,370.256,616.509,373.082z"/>
		<path fill="#43403D" d="M615.28,373.082c0,2.145-1.738,3.885-3.887,3.885c-2.144,0-3.885-1.74-3.885-3.885
			c0-2.148,1.741-3.889,3.885-3.889C613.542,369.193,615.28,370.934,615.28,373.082z"/>
		<rect x="610.986" y="368.377" fill="#DDDBC7" width="0.819" height="9.406"/>
		<rect x="606.386" y="372.672" fill="#DDDBC7" width="10.021" height="0.818"/>
	</g>
	<rect x="591.657" y="350.51" fill="#B0C699" width="11.873" height="121.897"/>
	<g>
		<path fill="#CCCAB2" d="M605.674,347.197c0,2.732-2.214,4.949-4.95,4.949h-6.266c-2.73,0-4.946-2.217-4.946-4.949v-1.65h16.162
			V347.197z"/>
		<path fill="#CCCAB2" d="M591.855,333.962c-0.045,0.368-0.073,0.742-0.073,1.126c0,4.094,2.6,7.415,5.812,7.415
			c3.209,0,5.81-3.321,5.81-7.415c0-0.384-0.028-0.758-0.073-1.126H591.855z"/>
		<circle fill="#CCCAB2" cx="597.592" cy="344.406" r="2.667"/>
		<circle fill="#CCCAB2" cx="597.592" cy="335.498" r="4.317"/>
	</g>
	<path fill="#D8D6C3" d="M690.773,380.502H590.386c0,0.033-0.005,1.187-0.005,1.227c0,3.23,2.067,4.414,5.851,4.414h88.697
		c3.786,0,5.852-1.184,5.852-4.414C690.78,381.688,690.773,380.535,690.773,380.502z"/>
	<rect x="610.281" y="386.109" fill="#D8D6C3" width="3.961" height="6.93"/>
	<rect x="667.685" y="386.109" fill="#D8D6C3" width="3.959" height="6.93"/>
	<rect x="638.152" y="386.109" fill="#D8D6C3" width="5.937" height="6.93"/>
	<g>
		<rect x="630.271" y="390.865" fill="#DDDBC7" width="21.703" height="29.517"/>
		<rect x="631.538" y="392.506" fill="#43403D" width="19.169" height="24.828"/>
		<rect x="640.186" y="399.842" fill="#DDDBC7" width="1.449" height="20.283"/>
		<rect x="631.051" y="399.748" fill="#DDDBC7" width="20.224" height="1.244"/>
	</g>
	<g>
		<g>
			<rect x="664.788" y="392.756" fill="#FFFFFF" width="10.17" height="20.988"/>
			<path fill="#F5F5F5" d="M664.51,391.591h10.979v1.262c0,0.48-0.254,0.872-0.565,0.872h-9.852c-0.311,0-0.562-0.392-0.562-0.872
				V391.591z"/>
			<path fill="#F5F5F5" d="M675.426,415.512h-10.979v-1.258c0-0.479,0.251-0.871,0.563-0.871h9.852c0.31,0,0.563,0.392,0.563,0.871
				V415.512z"/>
			<rect x="665.847" y="393.725" fill="#43403D" width="7.91" height="19.658"/>
		</g>
		<rect x="665.479" y="398.604" fill="#F5F5F5" width="8.953" height="0.99"/>
		<rect x="669.479" y="393.285" fill="#F5F5F5" width="0.669" height="6.062"/>
	</g>
	<g>
		<g>
			<rect x="607.057" y="392.756" fill="#FFFFFF" width="10.171" height="20.988"/>
			<path fill="#F5F5F5" d="M606.778,391.591h10.977v1.262c0,0.48-0.251,0.872-0.562,0.872h-9.854c-0.308,0-0.56-0.392-0.56-0.872
				V391.591z"/>
			<path fill="#F5F5F5" d="M617.69,415.512h-10.977v-1.258c0-0.479,0.254-0.871,0.563-0.871h9.853c0.309,0,0.561,0.392,0.561,0.871
				V415.512z"/>
			<rect x="608.112" y="393.725" fill="#43403D" width="7.914" height="19.658"/>
		</g>
		<rect x="607.746" y="398.604" fill="#F5F5F5" width="8.953" height="0.99"/>
		<rect x="611.747" y="393.285" fill="#F5F5F5" width="0.669" height="6.062"/>
	</g>
	<rect x="610.281" y="432.296" fill="#D8D6C3" width="3.961" height="6.929"/>
	<polygon fill="#E0DDCA" points="619.692,439.236 625.631,439.225 625.631,432.296 619.692,432.308 	"/>
	<rect x="656.63" y="432.296" fill="#E0DDCA" width="5.963" height="6.929"/>
	<rect x="678.052" y="432.296" fill="#E0DDCA" width="11.875" height="6.929"/>
	<rect x="591.657" y="432.296" fill="#E0DDCA" width="11.873" height="6.929"/>
	<rect x="667.685" y="432.296" fill="#E0DDCA" width="3.959" height="6.929"/>
	<rect x="638.152" y="432.296" fill="#E0DDCA" width="5.937" height="6.929"/>
	<g>
		<rect x="630.271" y="437.053" fill="#DDDBC7" width="21.703" height="29.516"/>
		<rect x="631.538" y="438.693" fill="#43403D" width="19.169" height="24.828"/>
		<rect x="640.186" y="446.025" fill="#DDDBC7" width="1.449" height="20.285"/>
		<rect x="631.051" y="445.935" fill="#DDDBC7" width="20.224" height="1.243"/>
	</g>
	<g>
		<g>
			<rect x="664.788" y="438.941" fill="#FFFFFF" width="10.17" height="20.989"/>
			<path fill="#F5F5F5" d="M664.51,437.777h10.979v1.261c0,0.481-0.254,0.87-0.565,0.87h-9.852c-0.311,0-0.562-0.389-0.562-0.87
				V437.777z"/>
			<path fill="#F5F5F5" d="M675.426,461.697h-10.979v-1.257c0-0.479,0.251-0.872,0.563-0.872h9.852c0.31,0,0.563,0.393,0.563,0.872
				V461.697z"/>
			<rect x="665.847" y="439.908" fill="#43403D" width="7.91" height="19.66"/>
		</g>
		<rect x="665.479" y="444.792" fill="#F5F5F5" width="8.953" height="0.988"/>
		<rect x="669.479" y="439.472" fill="#F5F5F5" width="0.669" height="6.062"/>
	</g>
	<g>
		<g>
			<rect x="607.057" y="438.941" fill="#FFFFFF" width="10.171" height="20.989"/>
			<path fill="#F5F5F5" d="M606.778,437.777h10.977v1.261c0,0.481-0.251,0.87-0.562,0.87h-9.854c-0.308,0-0.56-0.389-0.56-0.87
				V437.777z"/>
			<path fill="#F5F5F5" d="M617.69,461.697h-10.977v-1.257c0-0.479,0.254-0.872,0.563-0.872h9.853c0.309,0,0.561,0.393,0.561,0.872
				V461.697z"/>
			<rect x="608.112" y="439.908" fill="#43403D" width="7.914" height="19.66"/>
		</g>
		<rect x="607.746" y="444.792" fill="#F5F5F5" width="8.953" height="0.988"/>
		<rect x="611.747" y="439.472" fill="#F5F5F5" width="0.669" height="6.062"/>
	</g>
	<circle fill="#C1BEA7" cx="641.181" cy="285.615" r="3.96"/>
	<polygon fill="#C1BEA7" points="645.76,294.151 636.602,294.151 641.182,284.998 641.182,284.998 	"/>
	<polygon fill="#C1BEA7" points="643.525,280.111 638.59,280.111 641.056,270.151 641.056,270.151 	"/>
	<polygon fill="#C1BEA7" points="638.59,280.111 643.525,280.111 641.056,287.223 641.056,287.223 	"/>
	<path fill="#DDDBC7" d="M648.843,293.527h-15.325c0,0.025-0.005,0.915-0.005,0.944c0,3.435,3.04,3.397,3.04,3.397h8.454
		c2.128,0,3.842-0.91,3.842-3.397C648.849,294.442,648.843,293.553,648.843,293.527z"/>
</g>
<g>
	<path fill="#F44E21" d="M658.802,487.83v-6.126c0-1.915-1.133-5.312-4.967-5.312h-25.431c-4.072,0-4.966,3.397-4.966,5.312v6.126
		H658.802z"/>
	<g>
		<path fill="#CEDEE0" d="M649.077,476.392h-5.076c3.834,0,4.967,3.397,4.967,5.312v6.126h5.075v-6.126
			C654.043,479.789,652.909,476.392,649.077,476.392z"/>
		<path fill="#CEDEE0" d="M633.163,476.392h5.076c-3.836,0-4.965,3.397-4.965,5.312v6.126h-5.078v-6.126
			C628.196,479.789,629.328,476.392,633.163,476.392z"/>
	</g>
	<rect x="638.511" y="476.392" fill="#CEDEE0" width="5.219" height="11.438"/>
</g>
</svg>
