<?xml version="1.0" encoding="utf-8"?>
<!-- Generator: Adobe Illustrator 16.0.0, SVG Export Plug-In . SVG Version: 6.00 Build 0)  -->
<!DOCTYPE svg PUBLIC "-//W3C//DTD SVG 1.1//EN" "http://www.w3.org/Graphics/SVG/1.1/DTD/svg11.dtd">
<svg version="1.1" id="Layer_1" xmlns="http://www.w3.org/2000/svg" xmlns:xlink="http://www.w3.org/1999/xlink" x="0px" y="0px"
	 width="1280px" height="800px" viewBox="0 0 1280 800" enable-background="new 0 0 1280 800" xml:space="preserve">
<defs>
	<filter id="Adobe_OpacityMaskFilter" filterUnits="userSpaceOnUse" x="541.713" y="360.97" width="198.326" height="80.015">
		<feFlood  style="flood-color:white;flood-opacity:1" result="back"/>
		<feBlend  in="SourceGraphic" in2="back" mode="normal"/>
	</filter>
</defs>
<mask maskUnits="userSpaceOnUse" x="541.713" y="360.97" width="198.326" height="80.015" id="SVGID_1_">
	<g filter="url(#Adobe_OpacityMaskFilter)">
		<defs>
			<filter id="Adobe_OpacityMaskFilter_1_" filterUnits="userSpaceOnUse" x="541.713" y="360.97" width="198.326" height="80.015">
				<feFlood  style="flood-color:white;flood-opacity:1" result="back"/>
				<feBlend  in="SourceGraphic" in2="back" mode="normal"/>
			</filter>
		</defs>
		<mask maskUnits="userSpaceOnUse" x="541.713" y="360.97" width="198.326" height="80.015" id="SVGID_1_">
			<g filter="url(#Adobe_OpacityMaskFilter_1_)">
			</g>
		</mask>
		
			<linearGradient id="SVGID_2_" gradientUnits="userSpaceOnUse" x1="2212.3115" y1="366.0908" x2="2211.6953" y2="449.903" gradientTransform="matrix(-1 0 0 1 2852.6367 0)">
			<stop  offset="0" style="stop-color:#FFFFFF"/>
			<stop  offset="0.6645" style="stop-color:#4B4B4B"/>
			<stop  offset="0.9576" style="stop-color:#000000"/>
		</linearGradient>
		<path mask="url(#SVGID_1_)" fill="url(#SVGID_2_)" d="M740.039,440.984c-2.52-9.662-11.301-16.794-21.748-16.794
			c-3.648,0-7.086,0.874-10.132,2.413c0-0.062,0.006-0.125,0.006-0.191c0-8.42-4.634-15.754-11.485-19.602
			c0.4-1.883,0.619-3.834,0.619-5.834c0-15.277-12.387-27.658-27.662-27.658c-1.652,0-3.27,0.152-4.844,0.431
			c-4.913-7.682-13.514-12.779-23.306-12.779c-15.281,0-27.664,12.382-27.664,27.658c0,1.651,0.152,3.267,0.433,4.839
			c-1.519-0.572-3.159-0.887-4.876-0.887c-7.201,0-13.113,5.502-13.769,12.53c-3.276-2.587-7.416-4.134-11.914-4.134
			c-10.64,0-19.262,8.625-19.262,19.264c0,1.553,0.183,3.061,0.532,4.506c-1.51-0.361-3.097-0.553-4.734-0.553
			c-10.227,0-18.521,7.516-18.521,16.791H740.039z"/>
	</g>
</mask>
<linearGradient id="SVGID_3_" gradientUnits="userSpaceOnUse" x1="2212.3115" y1="366.0908" x2="2211.6953" y2="449.903" gradientTransform="matrix(-1 0 0 1 2852.6367 0)">
	<stop  offset="0" style="stop-color:#F2FFFF"/>
	<stop  offset="0.9576" style="stop-color:#FFFFFF"/>
</linearGradient>
<path opacity="0.66" fill="url(#SVGID_3_)" d="M740.039,440.984c-2.52-9.662-11.301-16.794-21.748-16.794
	c-3.648,0-7.086,0.874-10.132,2.413c0-0.062,0.006-0.125,0.006-0.191c0-8.42-4.634-15.754-11.485-19.602
	c0.4-1.883,0.619-3.834,0.619-5.834c0-15.277-12.387-27.658-27.662-27.658c-1.652,0-3.27,0.152-4.844,0.431
	c-4.913-7.682-13.514-12.779-23.306-12.779c-15.281,0-27.664,12.382-27.664,27.658c0,1.651,0.152,3.267,0.433,4.839
	c-1.519-0.572-3.159-0.887-4.876-0.887c-7.201,0-13.113,5.502-13.769,12.53c-3.276-2.587-7.416-4.134-11.914-4.134
	c-10.64,0-19.262,8.625-19.262,19.264c0,1.553,0.183,3.061,0.532,4.506c-1.51-0.361-3.097-0.553-4.734-0.553
	c-10.227,0-18.521,7.516-18.521,16.791H740.039z"/>
</svg>
