<?xml version="1.0" encoding="utf-8"?>
<!-- Generator: Adobe Illustrator 16.0.0, SVG Export Plug-In . SVG Version: 6.00 Build 0)  -->
<!DOCTYPE svg PUBLIC "-//W3C//DTD SVG 1.1//EN" "http://www.w3.org/Graphics/SVG/1.1/DTD/svg11.dtd">
<svg version="1.1" id="Layer_1" xmlns="http://www.w3.org/2000/svg" xmlns:xlink="http://www.w3.org/1999/xlink" x="0px" y="0px"
	 width="1280px" height="800px" viewBox="0 0 1280 800" enable-background="new 0 0 1280 800" xml:space="preserve">
<defs>
	<filter id="Adobe_OpacityMaskFilter" filterUnits="userSpaceOnUse" x="569.19" y="371.272" width="142.976" height="57.685">
		<feFlood  style="flood-color:white;flood-opacity:1" result="back"/>
		<feBlend  in="SourceGraphic" in2="back" mode="normal"/>
	</filter>
</defs>
<mask maskUnits="userSpaceOnUse" x="569.19" y="371.272" width="142.976" height="57.685" id="SVGID_1_">
	<g filter="url(#Adobe_OpacityMaskFilter)">
		<defs>
			<filter id="Adobe_OpacityMaskFilter_1_" filterUnits="userSpaceOnUse" x="569.19" y="371.272" width="142.976" height="57.685">
				<feFlood  style="flood-color:white;flood-opacity:1" result="back"/>
				<feBlend  in="SourceGraphic" in2="back" mode="normal"/>
			</filter>
		</defs>
		<mask maskUnits="userSpaceOnUse" x="569.19" y="371.272" width="142.976" height="57.685" id="SVGID_1_">
			<g filter="url(#Adobe_OpacityMaskFilter_1_)">
			</g>
		</mask>
		
			<linearGradient id="SVGID_2_" gradientUnits="userSpaceOnUse" x1="73.3633" y1="374.9653" x2="72.919" y2="435.3879" gradientTransform="matrix(-1 0 0 1 713.6445 0)">
			<stop  offset="0" style="stop-color:#FFFFFF"/>
			<stop  offset="0.079" style="stop-color:#EFEFEF"/>
			<stop  offset="0.2342" style="stop-color:#C4C4C4"/>
			<stop  offset="0.4505" style="stop-color:#7F7F7F"/>
			<stop  offset="0.7173" style="stop-color:#212121"/>
			<stop  offset="0.8061" style="stop-color:#000000"/>
		</linearGradient>
		<path mask="url(#SVGID_1_)" fill="url(#SVGID_2_)" d="M712.166,428.957c-1.814-6.967-8.144-12.107-15.677-12.107
			c-2.629,0-5.109,0.629-7.306,1.74c0-0.047,0.006-0.09,0.006-0.139c0-6.07-3.339-11.355-8.281-14.131
			c0.29-1.358,0.448-2.764,0.448-4.207c0-11.011-8.928-19.938-19.941-19.938c-1.189,0-2.356,0.109-3.487,0.31
			c-3.547-5.538-9.745-9.213-16.809-9.213c-11.014,0-19.942,8.928-19.942,19.938c0,1.191,0.114,2.355,0.312,3.488
			c-1.093-0.41-2.279-0.639-3.516-0.639c-5.19,0-9.451,3.967-9.923,9.034c-2.366-1.863-5.347-2.981-8.593-2.981
			c-7.67,0-13.888,6.219-13.888,13.889c0,1.119,0.139,2.205,0.388,3.248c-1.089-0.26-2.234-0.398-3.412-0.398
			c-7.374,0-13.355,5.418-13.355,12.105H712.166z"/>
	</g>
</mask>
<linearGradient id="SVGID_3_" gradientUnits="userSpaceOnUse" x1="73.3633" y1="374.9653" x2="72.919" y2="435.3879" gradientTransform="matrix(-1 0 0 1 713.6445 0)">
	<stop  offset="0" style="stop-color:#F2FFFF"/>
	<stop  offset="0.8061" style="stop-color:#FFFFFF"/>
</linearGradient>
<path opacity="0.69" fill="url(#SVGID_3_)" d="M712.166,428.957c-1.814-6.967-8.144-12.107-15.677-12.107
	c-2.629,0-5.109,0.629-7.306,1.74c0-0.047,0.006-0.09,0.006-0.139c0-6.07-3.339-11.355-8.281-14.131
	c0.29-1.358,0.448-2.764,0.448-4.207c0-11.011-8.928-19.938-19.941-19.938c-1.189,0-2.356,0.109-3.487,0.31
	c-3.547-5.538-9.745-9.213-16.809-9.213c-11.014,0-19.942,8.928-19.942,19.938c0,1.191,0.114,2.355,0.312,3.488
	c-1.093-0.41-2.279-0.639-3.516-0.639c-5.19,0-9.451,3.967-9.923,9.034c-2.366-1.863-5.347-2.981-8.593-2.981
	c-7.67,0-13.888,6.219-13.888,13.889c0,1.119,0.139,2.205,0.388,3.248c-1.089-0.26-2.234-0.398-3.412-0.398
	c-7.374,0-13.355,5.418-13.355,12.105H712.166z"/>
</svg>
