<?xml version="1.0" encoding="utf-8"?>
<!-- Generator: Adobe Illustrator 16.0.0, SVG Export Plug-In . SVG Version: 6.00 Build 0)  -->
<!DOCTYPE svg PUBLIC "-//W3C//DTD SVG 1.1//EN" "http://www.w3.org/Graphics/SVG/1.1/DTD/svg11.dtd">
<svg version="1.1" id="Layer_1" xmlns="http://www.w3.org/2000/svg" xmlns:xlink="http://www.w3.org/1999/xlink" x="0px" y="0px"
	 width="1280px" height="800px" viewBox="0 0 1280 800" enable-background="new 0 0 1280 800" xml:space="preserve">
<path fill="#BAA57F" d="M991.459,456.37H290.263l0,0c0-9.695,7.858-17.554,17.552-17.554h666.089
	C983.6,438.816,991.459,446.675,991.459,456.37L991.459,456.37z"/>
<rect x="290.263" y="455.456" fill="#6D562E" width="701.196" height="15.35"/>
<g>
	<g>
		<path fill="#587597" d="M401.454,443.908h-3.848v-10.41c0-0.249,0.207-0.451,0.456-0.451h2.94c0.251,0,0.451,0.202,0.451,0.451
			V443.908z"/>
		<rect x="398.062" y="414.229" fill="#364B60" width="2.716" height="28.887"/>
		<path fill="#364B60" d="M403.485,449.597c-0.075-0.073-0.176-0.117-0.279-0.117c-0.109,0-0.197-0.086-0.197-0.193v-8.225
			c0-1.907-1.543-3.452-3.447-3.452c-1.908,0-3.451,1.545-3.451,3.452v8.225c0,0.107-0.089,0.193-0.195,0.193
			s-0.205,0.044-0.279,0.117l-2.074,2.07l12.01,0.016L403.485,449.597z"/>
		<circle fill="#587597" cx="399.327" cy="393.957" r="1.076"/>
		<path fill="#364B60" d="M403.229,398.729c0-2.127-1.725-3.849-3.851-3.849c-2.122,0-3.845,1.722-3.845,3.849v0.527h7.695V398.729z
			"/>
		<path fill="#7EA0C8" d="M405.075,399.217h-11.237l0,0c0,0.396,0.32,0.717,0.717,0.717h9.806
			C404.756,399.934,405.075,399.613,405.075,399.217L405.075,399.217z"/>
		<path fill="#6487AB" d="M404.229,399.877h-9.561l0,0c0,0.396,0.319,0.716,0.713,0.716h8.13
			C403.909,400.593,404.229,400.272,404.229,399.877L404.229,399.877z"/>
		<path fill="#FFFF97" d="M395.714,401.161v6.005c0,1.115,0.444,2.196,1.231,2.992c0.936,0.945,1.467,2.234,1.458,3.561
			l-0.002,0.698l2.047-0.019v-0.636c0-1.343,0.529-2.638,1.468-3.595c0.79-0.801,1.233-1.888,1.233-3.014v-5.993H395.714z"/>
		<path fill="#587597" d="M403.683,400.535h-8.508l0,0c0,0.396,0.32,0.719,0.719,0.719h7.07
			C403.357,401.254,403.683,400.932,403.683,400.535L403.683,400.535z"/>
		<rect x="398.383" y="409.816" fill="#446387" width="2.112" height="2.506"/>
		<g>
			<path fill="#FFFFFF" d="M401.102,407.234c0-0.926-0.751-1.676-1.681-1.676c-0.925,0-1.676,0.75-1.676,1.676
				c0,0.287,0.074,0.557,0.2,0.791c0.141,0.268,0.278,0.546,0.278,0.848v0.838c0,0.672,0.543,1.211,1.211,1.211
				c0.672,0,1.212-0.539,1.212-1.211v-0.869c0-0.297,0.132-0.574,0.267-0.838C401.034,407.773,401.102,407.513,401.102,407.234z"/>
			<path fill="#708EB8" d="M400.632,409.995c0,0.669-0.534,1.206-1.204,1.206c-0.663,0-1.204-0.537-1.204-1.206v-0.112h2.408
				V409.995z"/>
		</g>
		<path fill="#708EB8" d="M400.991,412.642c-0.123-0.12-0.195-0.284-0.195-0.458v-0.031c0-0.062-0.051-0.112-0.113-0.112h-2.49
			c-0.064,0-0.113,0.051-0.113,0.112v0.031c0,0.174-0.069,0.338-0.192,0.459l-0.187,0.186c-0.053,0.049-0.082,0.121-0.082,0.191
			v1.812c0,0.499,0.403,0.904,0.905,0.904h1.847c0.5,0,0.907-0.405,0.907-0.904v-1.812c0-0.07-0.03-0.139-0.083-0.189
			L400.991,412.642z"/>
	</g>
</g>
<g>
	<g>
		<g>
			<g>
				<g>
					<g>
						<path fill="#605113" d="M317.904,448.694c0.107,2.619,4.884,2.227,4.884-0.216l0.052-46.03c0-1.327-1.103-2.401-2.456-2.396
							c-1.352,0-2.454,1.08-2.442,2.404l-0.065,34.529c0,0.105,0.018,0.203,0.028,0.311V448.694z"/>
					</g>
				</g>
			</g>
		</g>
	</g>
	<g>
		<g>
			<g>
				<g>
					<g>
						<path fill="#4C4114" d="M330.545,383.875v-5.045h-1.874v5.045c0,2.051,0.209,3.742,2.863,5.328l3.029,1.395l0.828-1.535
							l-2.963-1.355C330.753,386.625,330.474,386.054,330.545,383.875z"/>
					</g>
				</g>
			</g>
		</g>
	</g>
	<g>
		<g>
			<g>
				<g>
					<g>
						<path fill="#1F7F1F" d="M331.619,361.324c0,0-0.909-1.182-0.504-4.946c0.166-1.55,0.201-6.022,0.201-6.022
							c0-3.168-1.72-5.59-4.45-6.132c-1.167-0.228-1.621-2.471-1.823-4.085c-0.178-1.434-0.607-4.838-0.607-4.838
							c0-1.941-1.17-3.92-2.994-3.92s-2.569,0.908-3.175,2.521c0,0-0.506,3.871-2.059,4.262c-2.221,0.559-4.13,1.963-4.13,4.389
							c0,0-0.014,3.781,0.015,4.791c0.116,3.979-2.006,3.438-2.125,3.443c-2.83,0.107-4.349,2.908-4.349,6.557l0.784,10.854
							c0,0,0.102,1.503-1.693,1.625c-2.521,0.164-5.569,2.15-5.265,13.119l0.307,8.928c0,8.925,5.233,9.747,5.233,9.747l0.526,5.438
							c0,2.812,0.854,5.785,3.343,5.785c1.926,0,2.022,2.149,2.022,2.149c0.105,4.195,4.553,6.237,8.3,6.237
							c5.764,0,6.676-3.012,8.802-5.376c4.048-0.43,5.262-4.196,5.969-10.97c0,0,1.819,0.105,2.53-5.701
							c0.511-4.188,1.516-23.014,1.516-23.014C338.802,370.896,337.729,361.81,331.619,361.324z"/>
					</g>
				</g>
			</g>
		</g>
	</g>
	<g opacity="0.61">
		<g>
			<g>
				<g>
					<g>
						<path fill="#60A860" d="M328.271,365.628c0,0-1.182,3.658-0.475-14.197c0.033-0.835,0.947-6.452-2.933-5.659
							c-1.194,0.242-1.316-4.019-1.316-4.019c0-1.501-0.056-2.739-1.467-2.739c-1.407,0-1.979,0.697-2.448,1.941
							c0,0-0.39,2.991-1.589,3.294c-1.71,0.427-3.188,1.514-3.188,3.383c0,0-0.007,2.921,0.014,3.701
							c0.094,3.069-1.547,2.65-1.643,2.655c-2.181,0.082-3.354,2.245-3.354,5.063l0.443,4.208c0-1.869,1.249-7.229,4.369-6.558
							c1.212,0.258,2.008-2.688,2.008-2.688c0.471-1.244,1.074-2.369,2.484-2.369c1.406,0,1.531,2.158,1.531,3.66
							c0,0,0.125,4.26,1.321,4.018c3.878-0.793,2.935,4.824,2.935,5.66c0,16.238,2.362,11.936,2.362,11.936
							c2.95-3.762,5.431,3.55,4.695,10.205c0,0-0.377,7.012-0.736,12.379c1.225-2.648,2.118-5.877,2.401-8.172
							c0.391-3.229,1.171-17.757,1.171-17.757C335.591,366.918,331.105,361.541,328.271,365.628z"/>
					</g>
				</g>
			</g>
		</g>
	</g>
	<g opacity="0.61">
		<g>
			<g>
				<g>
					<g>
						<path fill="#60A860" d="M317.761,379.606c-0.351-2.5-2.363-8.388-8.508-6.45c-4.286,1.35-4.404,3.921-4.404,3.921
							s-4.574-0.185-3.747,6.618c0.354,2.901,1.54,4.73,1.54,4.73c0.445-0.318-0.564-0.879,0-6.236
							c0.467-4.518,6.368-5.855,8.733-5.162c3.31,0.967,3.665,4.947,3.665,4.947c1.183,9.355,6.734-1.722,7.641,7.924
							c0,0,0.751,8.285,0.964,6.547c0.317-2.62,0.664-5.253,0.725-7.373C324.669,379.388,318.439,384.516,317.761,379.606z"/>
					</g>
				</g>
			</g>
		</g>
	</g>
</g>
<g>
	<g>
		<path fill="#587597" d="M586.292,443.908h-3.852v-10.41c0-0.249,0.207-0.451,0.456-0.451h2.94c0.25,0,0.455,0.202,0.455,0.451
			V443.908z"/>
		<rect x="582.896" y="414.229" fill="#364B60" width="2.717" height="28.887"/>
		<path fill="#364B60" d="M588.32,449.597c-0.075-0.073-0.177-0.117-0.28-0.117c-0.105,0-0.195-0.086-0.195-0.193v-8.225
			c0-1.907-1.545-3.452-3.449-3.452c-1.906,0-3.448,1.545-3.448,3.452v8.225c0,0.107-0.09,0.193-0.196,0.193
			c-0.107,0-0.208,0.044-0.28,0.117l-2.072,2.07l12.009,0.016L588.32,449.597z"/>
		<path fill="#587597" d="M585.235,393.957c0,0.594-0.479,1.074-1.077,1.074c-0.591,0-1.073-0.48-1.073-1.074
			c0-0.596,0.482-1.076,1.073-1.076C584.757,392.881,585.235,393.361,585.235,393.957z"/>
		<path fill="#364B60" d="M588.063,398.729c0-2.127-1.726-3.849-3.849-3.849c-2.122,0-3.844,1.722-3.844,3.849v0.527h7.692V398.729z
			"/>
		<path fill="#7EA0C8" d="M589.911,399.217h-11.238l0,0c0,0.396,0.32,0.717,0.717,0.717h9.806
			C589.592,399.934,589.911,399.613,589.911,399.217L589.911,399.217z"/>
		<path fill="#6487AB" d="M589.062,399.877h-9.559l0,0c0,0.396,0.318,0.716,0.716,0.716h8.128
			C588.744,400.593,589.062,400.272,589.062,399.877L589.062,399.877z"/>
		<path fill="#FFFF97" d="M580.55,401.161v6.005c0,1.115,0.442,2.196,1.231,2.992c0.937,0.945,1.465,2.234,1.458,3.561l-0.002,0.698
			l2.045-0.019v-0.636c0-1.343,0.529-2.638,1.469-3.595c0.791-0.801,1.233-1.888,1.233-3.014v-5.993H580.55z"/>
		<path fill="#587597" d="M588.515,400.535h-8.505l0,0c0,0.396,0.323,0.719,0.718,0.719h7.072
			C588.193,401.254,588.515,400.932,588.515,400.535L588.515,400.535z"/>
		<rect x="583.216" y="409.816" fill="#446387" width="2.115" height="2.506"/>
		<g>
			<path fill="#FFFFFF" d="M585.936,407.234c0-0.926-0.751-1.676-1.68-1.676c-0.925,0-1.677,0.75-1.677,1.676
				c0,0.287,0.074,0.557,0.2,0.791c0.141,0.268,0.28,0.546,0.28,0.848v0.838c0,0.672,0.545,1.211,1.211,1.211
				c0.67,0,1.211-0.539,1.211-1.211v-0.869c0-0.297,0.132-0.574,0.268-0.838C585.87,407.773,585.936,407.513,585.936,407.234z"/>
			<path fill="#708EB8" d="M585.468,409.995c0,0.669-0.535,1.206-1.205,1.206c-0.661,0-1.203-0.537-1.203-1.206v-0.112h2.408
				V409.995z"/>
		</g>
		<path fill="#708EB8" d="M585.825,412.642c-0.12-0.12-0.194-0.284-0.194-0.458v-0.031c0-0.062-0.053-0.112-0.115-0.112h-2.485
			c-0.067,0-0.116,0.051-0.116,0.112v0.031c0,0.174-0.068,0.338-0.191,0.459l-0.188,0.186c-0.055,0.049-0.082,0.121-0.082,0.191
			v1.812c0,0.499,0.405,0.904,0.905,0.904h1.85c0.497,0,0.904-0.405,0.904-0.904v-1.812c0-0.07-0.031-0.139-0.084-0.189
			L585.825,412.642z"/>
	</g>
</g>
<g>
	<g>
		<g>
			<g>
				<g>
					<g>
						<path fill="#775A20" d="M423.36,402.078l-3.105-3.275c-0.934-0.967-2.116-2.201-2.014-5.762v-14.514h-0.521v15.123
							c0,3.411,0.824,4.568,2.254,6.043c2.09,2.159,2.626,2.99,3.543,3.943v-1.171L423.36,402.078z"/>
					</g>
				</g>
			</g>
		</g>
	</g>
	<g>
		<g>
			<g>
				<g>
					<g>
						<path fill="#775A20" d="M422.512,383.727l2.392,0.062l1.353,61.35c0,0-0.271,0.901-2.66,0.901
							c-2.45,0-2.573-0.872-2.573-0.872L422.512,383.727z"/>
					</g>
				</g>
			</g>
		</g>
	</g>
	<g>
		<g>
			<g>
				<g>
					<g>
						<path fill="#775A20" d="M425.583,405.986L425.583,405.986c1.059-1.102,1.662-2.602,1.662-4.154v-18.451h0.809v18.922
							c0,2.445-0.942,4.808-2.613,6.541l0,0L425.583,405.986z"/>
					</g>
				</g>
			</g>
		</g>
	</g>
	<g>
		<g>
			<g>
				<g>
					<g>
						<path fill="#C4B08D" d="M428.088,394.768l2.229-2.343c0.668-0.694,1.511-1.576,1.44-4.128v-10.391h0.372v10.826
							c0,2.443-0.593,3.272-1.615,4.326c-1.495,1.545-1.877,2.144-2.534,2.825v-0.835L428.088,394.768z"/>
					</g>
				</g>
			</g>
		</g>
	</g>
	<g>
		<g>
			<g>
				<g>
					<g>
						<path fill="#1B6D07" d="M451.053,375.507c0-3.034-2.112-5.56-4.898-6.083c-0.229-5.535-4.623-9.959-10.021-9.959
							c-0.763,0-1.503,0.098-2.213,0.265c-0.809-3.053-3.491-5.299-6.692-5.299c-1.599,0-3.066,0.564-4.236,1.507
							c-1.602-1.889-3.941-3.086-6.557-3.086c-4.739,0-8.587,3.916-8.727,8.794c-0.125-0.005-0.253-0.02-0.378-0.02
							c-4.396,0-7.956,3.694-7.956,8.248c0,0.196,0.014,0.385,0.03,0.577c-2.216,1.135-3.741,3.493-3.741,6.224
							c0,3.097,1.957,5.722,4.662,6.615c-0.006,0.152-0.022,0.302-0.022,0.456c0,7.064,5.514,12.787,12.325,12.787
							c1.433,0,2.799-0.269,4.075-0.732c1.799,2.342,4.546,3.84,7.626,3.84c3.92,0,7.297-2.432,8.861-5.935
							c1.047,0.384,2.171,0.604,3.343,0.604c5.545,0,10.042-4.663,10.042-10.415c0-0.801-0.096-1.58-0.264-2.331
							C449.022,380.977,451.053,378.487,451.053,375.507z"/>
					</g>
				</g>
			</g>
		</g>
	</g>
	<g>
		<g>
			<g>
				<g>
					<g>
						<path fill="#2D8717" d="M411.828,369.952c-0.003-0.124-0.011-0.243-0.011-0.368c0-3.512,2.749-6.365,6.139-6.365
							c2.516,0,4.677,1.568,5.624,3.816c0.793-0.691,2.247-1.729,3.18-1.926c8.345-1.787,8.368,8.133,8.628,7.897
							c0.381-0.346,1.528-5.819-2.139-8.862c-5.299-4.396-9.087-1.402-9.936-1.1c-0.95-2.244-3.579-4.256-6.092-4.256
							c-3.389,0-6.005,2.275-6.005,5.787c0,0.125-0.231,2.061-0.222,2.18c-1.854,0.412-5.317,2.529-5.317,6.273
							c0,1.252,0.265,2.439,0.729,3.512C406.933,373.463,409.039,370.953,411.828,369.952z"/>
					</g>
				</g>
			</g>
		</g>
	</g>
	<g>
		<g>
			<g>
				<g>
					<g>
						<path fill="#2D8717" d="M426.114,373.674c2.333,0.844,3.851,3.028,4.028,5.435c1.119-0.54,3.284,0.241,4.165,0.56
							c3.814,1.379,5.039,5.221,3.892,9.287c0.692-0.727,1.248-1.615,1.596-2.645c1.251-3.719-0.642-7.787-4.229-9.084
							c-0.737-0.269-1.491-0.395-2.232-0.398c-0.148-2.016-1.424-3.849-3.382-4.557c-1.83-0.661-3.774-0.174-5.104,1.1
							C425.266,373.424,425.695,373.521,426.114,373.674z"/>
					</g>
				</g>
			</g>
		</g>
	</g>
</g>
<g>
	<g>
		<path fill="#66605A" d="M442.675,421.594l-0.477-0.478c-0.644-0.644-1.012-1.536-1.012-2.445v-1.556h-0.981v1.556
			c0,1.169,0.472,2.313,1.301,3.14l0.97,0.972L442.675,421.594z"/>
	</g>
	<g>
		<rect x="440.205" y="417.115" fill="#66605A" width="4.907" height="0.9"/>
	</g>
	<g>
		<path fill="#C94917" d="M446.797,415.199c0.343,0.34,0.343,0.893,0,1.233l-1.811,1.813c-0.128,0.127-0.335,0.127-0.463,0
			l-0.771-0.771c-0.128-0.128-0.128-0.336,0-0.463l1.813-1.812C445.906,414.857,446.459,414.857,446.797,415.199z"/>
	</g>
	<g>
		<g>
			<path fill="#E85615" d="M463.544,430.649l-0.694-0.694l3.418-3.416c0.191-0.191,0.5-0.191,0.693,0
				c0.191,0.192,0.191,0.503,0,0.694L463.544,430.649z"/>
		</g>
	</g>
	<g>
		<g>
			
				<rect x="468.763" y="431.116" transform="matrix(-0.7026 0.7116 -0.7116 -0.7026 1110.2578 412.7642)" fill="#B29B9B" width="0.217" height="14.563"/>
		</g>
		<g>
			
				<rect x="468.762" y="431.114" transform="matrix(0.7048 0.7094 -0.7094 0.7048 449.3721 -203.2032)" fill="#B29B9B" width="0.216" height="14.566"/>
		</g>
		<g>
			<rect x="468.762" y="431.115" fill="#B29B9B" width="0.22" height="14.565"/>
		</g>
		<g>
			<rect x="461.588" y="438.288" fill="#B29B9B" width="14.566" height="0.218"/>
		</g>
	</g>
	<g>
		<g>
			<path fill="#827B71" d="M468.952,447.659c-4.964,0-9.002-4.038-9.002-9.001s4.038-9.001,9.002-9.001
				c4.963,0,9.003,4.038,9.003,9.001S473.915,447.659,468.952,447.659z M468.952,432.275c-3.52,0-6.382,2.863-6.382,6.383
				s2.862,6.383,6.382,6.383s6.383-2.863,6.383-6.383S472.472,432.275,468.952,432.275z"/>
		</g>
	</g>
	<g>
		<path fill="#59534C" d="M469.007,429.696c-4.963,0-8.999,4.038-8.999,9.001s4.036,9.001,8.999,9.001
			c4.964,0,9.001-4.038,9.001-9.001S473.971,429.696,469.007,429.696z M469.062,445.925c-3.992,0-7.227-3.235-7.227-7.228
			c0-3.991,3.234-7.229,7.227-7.229c3.993,0,7.228,3.237,7.228,7.229C476.29,442.689,473.056,445.925,469.062,445.925z"/>
	</g>
	<g>
		<g>
			<rect x="438.923" y="431.334" fill="#B29B9B" width="0.218" height="14.563"/>
		</g>
		<g>
			<rect x="431.749" y="438.506" fill="#B29B9B" width="14.565" height="0.219"/>
		</g>
		<g>
			
				<rect x="438.922" y="431.334" transform="matrix(0.7093 0.7049 -0.7049 0.7093 436.7795 -181.9709)" fill="#B29B9B" width="0.219" height="14.563"/>
		</g>
		<g>
			
				<rect x="438.922" y="431.334" transform="matrix(0.7049 -0.7093 0.7093 0.7049 -181.5546 440.8791)" fill="#B29B9B" width="0.218" height="14.563"/>
		</g>
	</g>
	<g>
		<g>
			<g>
				
					<rect x="438.921" y="431.333" transform="matrix(-0.7093 0.7049 -0.7049 -0.7093 1059.618 440.2791)" fill="#B29B9B" width="0.219" height="14.565"/>
			</g>
			<g>
				
					<rect x="438.922" y="431.334" transform="matrix(0.7093 0.7049 -0.7049 0.7093 436.7795 -181.9709)" fill="#B29B9B" width="0.219" height="14.563"/>
			</g>
			<g>
				<rect x="438.923" y="431.333" fill="#B29B9B" width="0.218" height="14.565"/>
			</g>
			<g>
				<rect x="431.749" y="438.506" fill="#B29B9B" width="14.565" height="0.219"/>
			</g>
		</g>
		<g>
			<g>
				<g>
					<path fill="#827B71" d="M439.168,447.698c-4.962,0-9.002-4.038-9.002-9.001s4.04-9.001,9.002-9.001
						c4.965,0,9.001,4.038,9.001,9.001S444.133,447.698,439.168,447.698z M439.168,432.314c-3.519,0-6.382,2.863-6.382,6.383
						c0,3.519,2.863,6.383,6.382,6.383s6.383-2.864,6.383-6.383C445.551,435.178,442.687,432.314,439.168,432.314z"/>
				</g>
			</g>
			<g>
				<circle fill="#648DAF" cx="439.168" cy="438.697" r="2.291"/>
			</g>
		</g>
		<g>
			<path fill="#59534C" d="M439.168,429.696c-4.962,0-9.002,4.038-9.002,9.001s4.04,9.001,9.002,9.001
				c4.965,0,9.001-4.038,9.001-9.001S444.133,429.696,439.168,429.696z M439.224,445.925c-3.992,0-7.228-3.235-7.228-7.228
				c0-3.991,3.235-7.229,7.228-7.229c3.99,0,7.226,3.237,7.226,7.229C446.449,442.689,443.214,445.925,439.224,445.925z"/>
		</g>
	</g>
	<g>
		<g>
			
				<rect x="458.536" y="421.97" transform="matrix(0.9795 0.2017 -0.2017 0.9795 94.8138 -83.8762)" fill="#827B71" width="1.085" height="2.891"/>
		</g>
	</g>
	<g>
		<circle fill="#648DAF" cx="468.973" cy="438.658" r="3.354"/>
	</g>
	<g>
		<circle fill="#B29B9B" cx="468.974" cy="438.658" r="1.883"/>
	</g>
	<g>
		<circle fill="#648DAF" cx="439.196" cy="438.07" r="0.491"/>
	</g>
	<g>
		<g>
			<path fill="#41667F" d="M460.353,421.773h2.034c0.211,0,0.415-0.105,0.499-0.298c0.077-0.177,0.122-0.37,0.122-0.575
				c0-0.813-0.66-1.473-1.475-1.473c-0.185,0-0.361,0.035-0.524,0.098c-0.747,0.289-1.383,0.939-2.184,0.939h-2.855
				c-0.609,0-1.122,0.416-1.268,0.98c-0.046,0.174,0.105,0.328,0.286,0.328H460.353L460.353,421.773z"/>
		</g>
		<g>
			<path fill="#66625C" d="M460.709,421.766c0,0.352-0.284,0.635-0.633,0.635h-1.454c-0.35,0-0.634-0.283-0.634-0.635l0,0H460.709
				L460.709,421.766z"/>
		</g>
	</g>
	<g>
		<g>
			<path fill="#F9980D" d="M439.795,438.731c-0.062,0.355-0.397,0.597-0.755,0.536c-0.357-0.059-0.596-0.396-0.537-0.754
				l3.184-18.93l1.289,0.218L439.795,438.731z"/>
		</g>
	</g>
	<g>
		
			<rect x="456.609" y="425.894" transform="matrix(0.986 0.1665 -0.1665 0.986 78.4586 -70.0731)" fill="#F9980D" width="1.308" height="14.256"/>
	</g>
	<g>
		<path d="M468.851,434.756l-13.101-0.121l0.983,0.654l12.11,0.122c1.79,0.027,3.191,1.422,3.191,3.175
			c0,1.757-1.431,3.188-3.187,3.188H457.06l-1.31,0.654h13.099c2.117,0,3.841-1.725,3.841-3.842
			C472.689,436.472,471.004,434.789,468.851,434.756z"/>
	</g>
	<g>
		
			<rect x="458.101" y="424.001" transform="matrix(0.9835 0.1808 -0.1808 0.9835 84.3289 -75.9276)" fill="#F9980D" width="1.334" height="1.473"/>
	</g>
	<g>
		<path fill="#F9980D" d="M460.357,424.504c-0.034,0.178-0.205,0.295-0.382,0.261l-2.251-0.425c-0.18-0.033-0.297-0.205-0.262-0.383
			l0.092-0.481c0.032-0.179,0.204-0.295,0.382-0.262l2.252,0.425c0.178,0.033,0.294,0.205,0.261,0.383L460.357,424.504z"/>
	</g>
	<g>
		<circle fill="#648DAF" cx="439.14" cy="438.602" r="0.492"/>
	</g>
	<g>
		<rect x="439.222" y="416.461" fill="#B7AFA5" width="4.256" height="0.899"/>
	</g>
	<g>
		<path fill="#E85615" d="M445.763,414.598c0.341,0.342,0.341,0.895,0,1.234l-1.812,1.813c-0.129,0.128-0.336,0.128-0.463,0
			l-0.771-0.771c-0.129-0.128-0.129-0.335,0-0.462l1.812-1.814C444.866,414.258,445.421,414.258,445.763,414.598z"/>
	</g>
	<g>
		<path fill="#B7AFA5" d="M442.833,422.455c0.033-0.203-0.033-0.41-0.179-0.556l-1.437-1.437c-0.646-0.646-1.013-1.537-1.013-2.447
			v-1.555h-0.983v1.555c0,1.17,0.475,2.314,1.3,3.141l1.934,1.932c0.097,0.098,0.262,0.045,0.285-0.091L442.833,422.455z"/>
	</g>
	<g>
		<path fill="#F9980D" d="M443.258,420.168l-1.891-0.348l0,0c0.064-0.354,0.407-0.591,0.763-0.525l0.603,0.11
			C443.091,419.473,443.324,419.812,443.258,420.168L443.258,420.168z"/>
	</g>
	<path fill="#F9980D" d="M469.68,437.616l-9.608-11.498c-0.422-0.507-1.043-0.796-1.702-0.796h-17.428l-0.299,1.414l12.021,12.022
		c0.447,0.446,1.064,0.702,1.695,0.702h14.458c0.442,0,0.831-0.248,1.019-0.648C470.019,438.412,469.962,437.954,469.68,437.616z
		 M454.358,437.824c-0.199,0-0.396-0.082-0.536-0.223l-10.644-10.643h15.19c0.171,0,0.337,0.078,0.445,0.209l8.905,10.656H454.358z"
		/>
	<path fill="#D6800D" d="M467.72,437.824h-13.361c-0.026,0-0.055-0.004-0.08-0.008v1.641c0.025,0.001,0.054,0.004,0.08,0.004h14.458
		c0.442,0,0.831-0.248,1.019-0.648c0.165-0.354,0.136-0.754-0.069-1.078h-2.12L467.72,437.824z"/>
	<path fill="#19313F" d="M454.702,421.445c-0.046,0.174,0.105,0.328,0.286,0.328h5.364h2.034c0.211,0,0.415-0.105,0.499-0.298
		c0.077-0.177,0.122-0.37,0.122-0.575c0-0.007-0.003-0.014-0.003-0.021h-7.99C454.866,421.037,454.757,421.23,454.702,421.445z"/>
	<g>
		<circle fill="#648DAF" cx="468.898" cy="438.438" r="0.491"/>
	</g>
	<g>
		<g>
			<path fill="#B29B9B" d="M455.757,434.562c-2.203,0-3.986,1.786-3.986,3.989s1.783,3.988,3.986,3.988
				c2.205,0,3.992-1.785,3.992-3.988S457.962,434.562,455.757,434.562z M452.586,439.093c-0.271,0-0.49-0.22-0.49-0.491
				s0.22-0.49,0.49-0.49c0.273,0,0.491,0.219,0.491,0.49S452.859,439.093,452.586,439.093z M453.845,441.148
				c-0.19,0.191-0.502,0.191-0.693,0c-0.191-0.192-0.191-0.504,0-0.695c0.191-0.192,0.503-0.191,0.693,0
				C454.036,440.645,454.038,440.956,453.845,441.148z M453.845,436.75c-0.19,0.191-0.502,0.192-0.693,0
				c-0.191-0.191-0.191-0.502,0-0.694s0.503-0.192,0.693,0C454.038,436.248,454.036,436.559,453.845,436.75z M455.697,442.202
				c-0.271,0-0.491-0.22-0.491-0.49c0-0.271,0.221-0.491,0.491-0.491s0.49,0.22,0.49,0.491
				C456.188,441.982,455.968,442.202,455.697,442.202z M455.697,435.983c-0.271,0-0.491-0.219-0.491-0.491
				c0-0.271,0.221-0.49,0.491-0.49s0.49,0.219,0.49,0.49C456.188,435.765,455.968,435.983,455.697,435.983z M457.548,436.75
				c-0.191-0.191-0.191-0.502,0-0.694c0.192-0.192,0.504-0.192,0.695,0s0.191,0.503,0,0.694S457.74,436.941,457.548,436.75z
				 M458.807,439.093c-0.272,0-0.489-0.22-0.489-0.491s0.217-0.49,0.489-0.49c0.271,0,0.491,0.219,0.491,0.49
				S459.078,439.093,458.807,439.093z"/>
		</g>
		<g>
			<circle fill="#819694" cx="455.693" cy="438.615" r="2.429"/>
		</g>
		<g>
			<g>
				<path fill="#819694" d="M460.48,442.432l-0.928,0.925l-4.165-4.165c-0.255-0.256-0.255-0.67,0-0.927
					c0.256-0.255,0.668-0.255,0.924,0L460.48,442.432z"/>
			</g>
			<g>
				<path fill="#E85615" d="M462.406,443.076c0,0.451-0.365,0.816-0.818,0.816h-3.271c-0.452,0-0.82-0.365-0.82-0.816
					c0-0.453,0.368-0.818,0.82-0.818h3.271C462.041,442.258,462.406,442.623,462.406,443.076z"/>
			</g>
			<g>
				<circle fill="#B29B9B" cx="459.951" cy="443.076" r="0.573"/>
			</g>
		</g>
	</g>
</g>
<g>
	<g>
		<path fill="#66605A" d="M449.562,421.594l-0.477-0.478c-0.644-0.644-1.014-1.536-1.014-2.445v-1.556h-0.981v1.556
			c0,1.169,0.474,2.313,1.301,3.14l0.972,0.972L449.562,421.594z"/>
	</g>
	<g>
		<rect x="447.09" y="417.115" fill="#66605A" width="4.909" height="0.9"/>
	</g>
	<g>
		<path fill="#C94917" d="M453.686,415.199c0.341,0.34,0.341,0.893,0,1.233l-1.813,1.813c-0.129,0.127-0.334,0.127-0.462,0
			l-0.771-0.771c-0.128-0.128-0.128-0.336,0-0.463l1.813-1.812C452.791,414.857,453.344,414.857,453.686,415.199z"/>
	</g>
	<g>
		<g>
			<path fill="#E85615" d="M470.431,430.649l-0.693-0.694l3.415-3.416c0.191-0.191,0.503-0.191,0.694,0
				c0.19,0.192,0.19,0.503,0,0.694L470.431,430.649z"/>
		</g>
	</g>
	<g>
		<g>
			
				<rect x="475.648" y="431.116" transform="matrix(-0.7115 0.7026 -0.7026 -0.7115 1122.316 416.0468)" fill="#B29B9B" width="0.22" height="14.565"/>
		</g>
		<g>
			
				<rect x="475.648" y="431.115" transform="matrix(0.7138 0.7004 -0.7004 0.7138 443.2238 -207.7291)" fill="#B29B9B" width="0.219" height="14.565"/>
		</g>
		<g>
			<rect x="475.649" y="431.115" fill="#B29B9B" width="0.217" height="14.565"/>
		</g>
		<g>
			<rect x="468.474" y="438.288" fill="#B29B9B" width="14.565" height="0.218"/>
		</g>
	</g>
	<g>
		<g>
			<path fill="#827B71" d="M475.84,447.659c-4.965,0-9.001-4.038-9.001-9.001s4.036-9.001,9.001-9.001c4.962,0,9,4.038,9,9.001
				S480.802,447.659,475.84,447.659z M475.84,432.275c-3.521,0-6.383,2.863-6.383,6.383s2.862,6.383,6.383,6.383
				c3.519,0,6.38-2.863,6.38-6.383S479.358,432.275,475.84,432.275z"/>
		</g>
	</g>
	<g>
		<path fill="#59534C" d="M475.893,429.696c-4.962,0-9,4.038-9,9.001s4.038,9.001,9,9.001c4.964,0,9.003-4.038,9.003-9.001
			S480.856,429.696,475.893,429.696z M475.947,445.925c-3.988,0-7.227-3.235-7.227-7.228c0-3.991,3.238-7.229,7.227-7.229
			c3.993,0,7.23,3.237,7.23,7.229C483.178,442.689,479.94,445.925,475.947,445.925z"/>
	</g>
	<g>
		<g>
			<rect x="445.811" y="431.334" fill="#B29B9B" width="0.216" height="14.563"/>
		</g>
		<g>
			<rect x="438.636" y="438.506" fill="#B29B9B" width="14.566" height="0.219"/>
		</g>
		<g>
			
				<rect x="445.808" y="431.333" transform="matrix(0.7115 0.7026 -0.7026 0.7115 436.8206 -186.7993)" fill="#B29B9B" width="0.22" height="14.565"/>
		</g>
		<g>
			
				<rect x="445.808" y="431.333" transform="matrix(0.7093 -0.7049 0.7049 0.7093 -179.5547 441.8056)" fill="#B29B9B" width="0.219" height="14.565"/>
		</g>
	</g>
	<g>
		<g>
			<g>
				
					<rect x="445.808" y="431.333" transform="matrix(-0.7115 0.7026 -0.7026 -0.7115 1071.3967 437.3855)" fill="#B29B9B" width="0.22" height="14.565"/>
			</g>
			<g>
				
					<rect x="445.808" y="431.333" transform="matrix(0.7115 0.7026 -0.7026 0.7115 436.8206 -186.7993)" fill="#B29B9B" width="0.22" height="14.565"/>
			</g>
			<g>
				<rect x="445.811" y="431.333" fill="#B29B9B" width="0.216" height="14.565"/>
			</g>
			<g>
				<rect x="438.634" y="438.506" fill="#B29B9B" width="14.568" height="0.219"/>
			</g>
		</g>
		<g>
			<g>
				<g>
					<path fill="#827B71" d="M446.056,447.698c-4.965,0-9.002-4.038-9.002-9.001s4.037-9.001,9.002-9.001
						c4.962,0,9.001,4.038,9.001,9.001S451.018,447.698,446.056,447.698z M446.056,432.314c-3.521,0-6.383,2.863-6.383,6.383
						c0,3.519,2.862,6.383,6.383,6.383c3.518,0,6.381-2.864,6.381-6.383C452.437,435.178,449.573,432.314,446.056,432.314z"/>
				</g>
			</g>
			<g>
				<circle fill="#648DAF" cx="446.054" cy="438.697" r="2.292"/>
			</g>
		</g>
		<g>
			<path fill="#59534C" d="M446.056,429.696c-4.965,0-9.002,4.038-9.002,9.001s4.037,9.001,9.002,9.001
				c4.962,0,9.001-4.038,9.001-9.001S451.018,429.696,446.056,429.696z M446.108,445.925c-3.99,0-7.228-3.235-7.228-7.228
				c0-3.991,3.237-7.229,7.228-7.229c3.993,0,7.228,3.237,7.228,7.229C453.336,442.689,450.102,445.925,446.108,445.925z"/>
		</g>
	</g>
	<g>
		<g>
			
				<rect x="465.421" y="421.97" transform="matrix(0.9794 0.2018 -0.2018 0.9794 95.0477 -85.3321)" fill="#827B71" width="1.084" height="2.891"/>
		</g>
	</g>
	<g>
		<circle fill="#648DAF" cx="475.86" cy="438.658" r="3.354"/>
	</g>
	<g>
		<circle fill="#B29B9B" cx="475.86" cy="438.658" r="1.881"/>
	</g>
	<g>
		<circle fill="#648DAF" cx="446.081" cy="438.07" r="0.491"/>
	</g>
	<g>
		<g>
			<path fill="#648DAF" d="M467.237,421.773h2.036c0.211,0,0.415-0.105,0.501-0.298c0.076-0.177,0.12-0.37,0.12-0.575
				c0-0.813-0.66-1.473-1.475-1.473c-0.184,0-0.36,0.035-0.524,0.098c-0.748,0.289-1.383,0.939-2.184,0.939h-2.856
				c-0.608,0-1.121,0.416-1.268,0.98c-0.045,0.174,0.105,0.328,0.285,0.328H467.237L467.237,421.773z"/>
		</g>
		<g>
			<path fill="#66625C" d="M467.596,421.766c0,0.352-0.284,0.635-0.635,0.635h-1.451c-0.35,0-0.635-0.283-0.635-0.635l0,0H467.596
				L467.596,421.766z"/>
		</g>
	</g>
	<g>
		<g>
			<path fill="#EAD9D3" d="M446.681,438.731c-0.061,0.355-0.396,0.597-0.754,0.536c-0.356-0.059-0.598-0.396-0.536-0.754
				l3.181-18.93l1.291,0.218L446.681,438.731z"/>
		</g>
	</g>
	<g>
		
			<rect x="463.495" y="425.894" transform="matrix(0.986 0.1666 -0.1666 0.986 78.6174 -71.2673)" fill="#EAD9D3" width="1.307" height="14.256"/>
	</g>
	<g>
		<path d="M475.737,434.756l-13.101-0.121l0.983,0.654l12.11,0.122c1.79,0.027,3.191,1.422,3.191,3.175
			c0,1.757-1.432,3.188-3.188,3.188h-11.788l-1.309,0.654h13.097c2.12,0,3.844-1.725,3.844-3.842
			C479.577,436.472,477.891,434.789,475.737,434.756z"/>
	</g>
	<g>
		
			<rect x="464.988" y="424.001" transform="matrix(0.9835 0.181 -0.181 0.9835 84.5753 -77.2731)" fill="#F9980D" width="1.333" height="1.473"/>
	</g>
	<g>
		<path fill="#F9980D" d="M467.244,424.504c-0.034,0.178-0.205,0.295-0.381,0.261l-2.254-0.425c-0.177-0.033-0.296-0.205-0.26-0.383
			l0.09-0.481c0.035-0.179,0.207-0.295,0.385-0.262l2.25,0.425c0.177,0.033,0.294,0.205,0.262,0.383L467.244,424.504z"/>
	</g>
	<g>
		<circle fill="#648DAF" cx="446.027" cy="438.602" r="0.492"/>
	</g>
	<g>
		<rect x="446.106" y="416.461" fill="#B7AFA5" width="4.256" height="0.899"/>
	</g>
	<g>
		<path fill="#E85615" d="M452.647,414.598c0.341,0.342,0.341,0.895,0,1.234l-1.812,1.813c-0.129,0.128-0.333,0.128-0.463,0
			l-0.77-0.771c-0.128-0.128-0.128-0.335,0-0.462l1.811-1.814C451.753,414.258,452.307,414.258,452.647,414.598z"/>
	</g>
	<g>
		<path fill="#B7AFA5" d="M449.72,422.455c0.034-0.203-0.033-0.41-0.179-0.556l-1.438-1.437c-0.645-0.646-1.013-1.537-1.013-2.447
			v-1.555h-0.983v1.555c0,1.17,0.475,2.314,1.302,3.141l1.932,1.932c0.099,0.098,0.265,0.045,0.287-0.091L449.72,422.455z"/>
	</g>
	<g>
		<path fill="#F9980D" d="M450.145,420.168l-1.891-0.348l0,0c0.064-0.354,0.407-0.591,0.763-0.525l0.604,0.11
			C449.976,419.473,450.209,419.812,450.145,420.168L450.145,420.168z"/>
	</g>
	<path fill="#EAD9D3" d="M476.565,437.616l-9.607-11.498c-0.421-0.507-1.043-0.796-1.701-0.796h-17.431l-0.299,1.414l12.022,12.022
		c0.447,0.446,1.064,0.702,1.696,0.702h14.457c0.442,0,0.831-0.248,1.019-0.648C476.907,438.412,476.85,437.954,476.565,437.616z
		 M461.246,437.824c-0.202,0-0.398-0.082-0.539-0.223l-10.643-10.643h15.192c0.168,0,0.334,0.078,0.444,0.209l8.905,10.656H461.246z
		"/>
	<path fill="#D6800D" d="M474.606,437.824h-13.36c-0.027,0-0.057-0.004-0.081-0.008v1.641c0.025,0.001,0.054,0.004,0.081,0.004
		h14.457c0.442,0,0.831-0.248,1.019-0.648c0.166-0.354,0.134-0.754-0.069-1.078h-2.12L474.606,437.824z"/>
	<path fill="#2A495E" d="M461.588,421.445c-0.045,0.174,0.105,0.328,0.285,0.328h5.364h2.036c0.211,0,0.415-0.105,0.501-0.298
		c0.076-0.177,0.12-0.37,0.12-0.575c0-0.007-0.004-0.014-0.004-0.021h-7.988C461.753,421.037,461.644,421.23,461.588,421.445z"/>
	<g>
		<circle fill="#648DAF" cx="475.783" cy="438.438" r="0.491"/>
	</g>
	<g>
		<g>
			<path fill="#D3D3D3" d="M462.645,434.562c-2.204,0-3.988,1.786-3.988,3.989s1.784,3.988,3.988,3.988s3.989-1.785,3.989-3.988
				S464.849,434.562,462.645,434.562z M459.473,439.093c-0.271,0-0.49-0.22-0.49-0.491s0.219-0.49,0.49-0.49
				c0.272,0,0.491,0.219,0.491,0.49S459.745,439.093,459.473,439.093z M460.731,441.148c-0.19,0.191-0.503,0.191-0.692,0
				c-0.192-0.192-0.192-0.504,0-0.695c0.189-0.192,0.502-0.191,0.692,0C460.923,440.645,460.925,440.956,460.731,441.148z
				 M460.731,436.75c-0.19,0.191-0.503,0.192-0.692,0c-0.193-0.191-0.193-0.502,0-0.694c0.189-0.192,0.502-0.192,0.692,0
				C460.925,436.248,460.923,436.559,460.731,436.75z M462.583,442.202c-0.27,0-0.489-0.22-0.489-0.49
				c0-0.271,0.22-0.491,0.489-0.491c0.272,0,0.491,0.22,0.491,0.491C463.074,441.982,462.855,442.202,462.583,442.202z
				 M462.583,435.983c-0.27,0-0.489-0.219-0.489-0.491c0-0.271,0.22-0.49,0.489-0.49c0.272,0,0.491,0.219,0.491,0.49
				C463.074,435.765,462.855,435.983,462.583,435.983z M464.435,436.75c-0.19-0.191-0.19-0.502,0-0.694
				c0.193-0.192,0.503-0.192,0.693,0c0.193,0.192,0.193,0.503,0,0.694C464.938,436.941,464.628,436.941,464.435,436.75z
				 M465.692,439.093c-0.272,0-0.49-0.22-0.49-0.491s0.218-0.49,0.49-0.49c0.273,0,0.49,0.219,0.49,0.49
				S465.966,439.093,465.692,439.093z"/>
		</g>
		<g>
			<circle fill="#B29B9B" cx="462.579" cy="438.615" r="2.428"/>
		</g>
		<g>
			<g>
				<path fill="#B29B9B" d="M467.365,442.432l-0.926,0.925l-4.167-4.165c-0.255-0.256-0.255-0.67,0-0.927
					c0.257-0.255,0.671-0.255,0.928,0L467.365,442.432z"/>
			</g>
			<g>
				<path fill="#E85615" d="M469.293,443.076c0,0.451-0.367,0.816-0.819,0.816h-3.271c-0.452,0-0.82-0.365-0.82-0.816
					c0-0.453,0.368-0.818,0.82-0.818h3.271C468.926,442.258,469.293,442.623,469.293,443.076z"/>
			</g>
			<g>
				<circle fill="#B29B9B" cx="466.837" cy="443.076" r="0.572"/>
			</g>
		</g>
	</g>
</g>
<g>
	<g>
		<path fill="#587597" d="M830.812,444.831h-3.847v-10.409c0-0.25,0.204-0.452,0.453-0.452h2.943c0.25,0,0.45,0.202,0.45,0.452
			V444.831z"/>
		<rect x="827.419" y="415.15" fill="#364B60" width="2.719" height="28.888"/>
		<path fill="#364B60" d="M832.843,450.521c-0.075-0.074-0.174-0.118-0.276-0.118c-0.106,0-0.197-0.086-0.197-0.194v-8.224
			c0-1.907-1.547-3.451-3.449-3.451c-1.907,0-3.451,1.544-3.451,3.451v8.224c0,0.108-0.088,0.194-0.193,0.194
			c-0.108,0-0.208,0.044-0.28,0.118l-2.072,2.068l12.007,0.017L832.843,450.521z"/>
		<path fill="#364B60" d="M829.761,394.881c0,0.594-0.482,1.073-1.079,1.073c-0.592,0-1.072-0.479-1.072-1.073
			c0-0.596,0.48-1.076,1.072-1.076C829.278,393.805,829.761,394.285,829.761,394.881z"/>
		<path fill="#364B60" d="M832.588,399.651c0-2.128-1.726-3.849-3.849-3.849c-2.122,0-3.846,1.721-3.846,3.849v0.527h7.694V399.651z
			"/>
		<path fill="#7EA0C8" d="M834.435,400.141h-11.236l0,0c0,0.395,0.319,0.715,0.714,0.715h9.805
			C834.114,400.855,834.435,400.535,834.435,400.141L834.435,400.141z"/>
		<path fill="#6487AB" d="M833.586,400.799h-9.559l0,0c0,0.396,0.319,0.717,0.716,0.717h8.127
			C833.269,401.516,833.586,401.194,833.586,400.799L833.586,400.799z"/>
		<path fill="#FFFF97" d="M825.072,402.084v6.005c0,1.115,0.445,2.196,1.232,2.993c0.937,0.945,1.465,2.233,1.458,3.561
			l-0.003,0.697l2.044-0.02v-0.635c0-1.342,0.532-2.637,1.473-3.594c0.789-0.803,1.23-1.889,1.23-3.016v-5.992H825.072z"/>
		<path fill="#587597" d="M833.04,401.459h-8.506l0,0c0,0.396,0.321,0.717,0.717,0.717h7.071
			C832.717,402.176,833.04,401.854,833.04,401.459L833.04,401.459z"/>
		<rect x="827.739" y="410.738" fill="#446387" width="2.114" height="2.507"/>
		<g>
			<path fill="#FFFFFF" d="M830.461,408.157c0-0.925-0.753-1.676-1.681-1.676c-0.926,0-1.675,0.751-1.675,1.676
				c0,0.286,0.072,0.556,0.198,0.791c0.139,0.268,0.278,0.546,0.278,0.848v0.839c0,0.67,0.544,1.211,1.21,1.211
				c0.671,0,1.215-0.541,1.215-1.211v-0.871c0-0.295,0.131-0.573,0.265-0.836C830.392,408.696,830.461,408.436,830.461,408.157z"/>
			<path fill="#708EB8" d="M829.99,410.918c0,0.67-0.534,1.205-1.202,1.205c-0.664,0-1.206-0.535-1.206-1.205v-0.112h2.408V410.918z
				"/>
		</g>
		<path fill="#708EB8" d="M830.35,413.564c-0.122-0.12-0.196-0.284-0.196-0.458v-0.03c0-0.062-0.052-0.113-0.113-0.113h-2.487
			c-0.064,0-0.116,0.051-0.116,0.113v0.03c0,0.174-0.066,0.338-0.19,0.46l-0.189,0.186c-0.052,0.049-0.079,0.121-0.079,0.191v1.812
			c0,0.498,0.404,0.902,0.906,0.902h1.846c0.501,0,0.906-0.404,0.906-0.902v-1.812c0-0.07-0.029-0.141-0.084-0.191L830.35,413.564z"
			/>
	</g>
</g>
<g>
	<g>
		<g>
			<g>
				<g>
					<g>
						<path fill="#775A20" d="M769.772,393.962l-4.048-4.269c-1.221-1.262-2.758-2.869-2.624-7.512V363.26h-0.68v19.716
							c0,4.446,1.073,5.956,2.936,7.879c2.727,2.814,3.423,3.896,4.622,5.141v-1.526L769.772,393.962z"/>
					</g>
				</g>
			</g>
		</g>
	</g>
	<g>
		<g>
			<g>
				<g>
					<g>
						<path fill="#775A20" d="M768.666,370.038l3.12,0.081l1.762,79.981c0,0-0.353,1.178-3.467,1.178
							c-3.196,0-3.358-1.139-3.358-1.139L768.666,370.038z"/>
					</g>
				</g>
			</g>
		</g>
	</g>
	<g>
		<g>
			<g>
				<g>
					<g>
						<path fill="#775A20" d="M772.673,399.057L772.673,399.057c1.377-1.435,2.162-3.389,2.162-5.414v-24.055h1.06v24.666
							c0,3.19-1.232,6.271-3.411,8.529l0,0L772.673,399.057z"/>
					</g>
				</g>
			</g>
		</g>
	</g>
	<g>
		<g>
			<g>
				<g>
					<g>
						<path fill="#C4B08D" d="M775.939,384.432l2.902-3.053c0.869-0.906,1.97-2.056,1.878-5.382v-13.549h0.484v14.116
							c0,3.186-0.77,4.266-2.105,5.639c-1.949,2.016-2.449,2.796-3.307,3.685v-1.089L775.939,384.432z"/>
					</g>
				</g>
			</g>
		</g>
	</g>
	<g>
		<g>
			<g>
				<g>
					<g>
						<path fill="#2D960F" d="M805.878,359.322c0-3.958-2.758-7.249-6.389-7.932c-0.297-7.217-6.026-12.981-13.062-12.981
							c-0.995,0-1.958,0.126-2.887,0.345c-1.056-3.982-4.552-6.91-8.725-6.91c-2.083,0-3.996,0.736-5.525,1.964
							c-2.084-2.462-5.138-4.021-8.546-4.021c-6.177,0-11.196,5.106-11.374,11.464c-0.166-0.006-0.335-0.025-0.496-0.025
							c-5.731,0-10.37,4.817-10.37,10.754c0,0.256,0.015,0.5,0.038,0.752c-2.891,1.479-4.879,4.555-4.879,8.113
							c0,4.037,2.554,7.458,6.078,8.625c-0.008,0.2-0.029,0.393-0.029,0.596c0,9.208,7.188,16.669,16.069,16.669
							c1.869,0,3.648-0.349,5.315-0.954c2.342,3.055,5.924,5.005,9.939,5.005c5.111,0,9.514-3.169,11.553-7.735
							c1.365,0.498,2.828,0.785,4.36,0.785c7.229,0,13.092-6.078,13.092-13.578c0-1.043-0.126-2.06-0.343-3.038
							C803.226,366.451,805.878,363.207,805.878,359.322z"/>
					</g>
				</g>
			</g>
		</g>
	</g>
	<g opacity="0.32">
		<g>
			<g>
				<g>
					<g>
						<path opacity="0.62" fill="#F5F5F5" d="M754.739,352.081c-0.006-0.162-0.013-0.318-0.013-0.481
							c0-4.578,3.581-8.298,7.999-8.298c3.281,0,6.098,2.044,7.334,4.976c1.033-0.902,2.928-2.256,4.145-2.512
							c10.88-2.33,10.913,10.605,11.25,10.296c0.495-0.45,1.993-7.586-2.791-11.553c-6.908-5.731-11.844-1.829-12.949-1.435
							c-1.239-2.924-4.669-5.549-7.944-5.549c-4.422,0-7.825,2.968-7.825,7.547c0,0.162-0.305,2.686-0.291,2.841
							c-2.419,0.537-6.935,3.297-6.935,8.177c0,1.635,0.345,3.183,0.953,4.58C748.354,356.657,751.1,353.385,754.739,352.081z"/>
					</g>
				</g>
			</g>
		</g>
	</g>
	<g>
		<g>
			<g>
				<g>
					<g>
						<path opacity="0.32" fill="#F5F5F5" d="M773.361,356.932c3.042,1.102,5.02,3.948,5.256,7.086
							c1.456-0.705,4.278,0.314,5.43,0.729c4.972,1.798,6.565,6.808,5.07,12.107c0.905-0.946,1.627-2.105,2.08-3.447
							c1.632-4.848-0.837-10.152-5.509-11.844c-0.967-0.35-1.949-0.514-2.913-0.519c-0.196-2.628-1.859-5.018-4.413-5.941
							c-2.385-0.861-4.918-0.226-6.649,1.436C772.256,356.605,772.815,356.732,773.361,356.932z"/>
					</g>
				</g>
			</g>
		</g>
	</g>
</g>
<g>
	<g>
		<g>
			<g>
				<g>
					<g>
						<g>
							<path fill="#44960F" d="M527.75,428.068c0,11.483-2.459,12.658-5.486,12.658c-3.034,0-5.489-1.175-5.489-12.658
								c0-11.48,2.455-20.787,5.489-20.787C525.291,407.281,527.75,416.588,527.75,428.068z"/>
						</g>
					</g>
				</g>
			</g>
		</g>
		<g>
			<g>
				<g>
					<g>
						<g>
							<path fill="#5EB725" d="M522.231,440.727c0.895-1.428,1.771-3.513,2.409-5.905c1.261-4.704,1.134-8.804-0.287-9.157
								c-0.123-0.03-0.254-0.02-0.396,0.008c0.032-0.154,0.065-0.303,0.095-0.453c0.871-4.784,0.416-8.863-1.026-9.109
								c-0.069-0.011-0.146-0.006-0.22,0c0.006-0.229,0.013-0.461,0.013-0.695c0-3.157-0.483-5.988-1.247-7.962
								c-2.704,1.288-4.797,10.024-4.797,20.616C516.774,439.514,519.216,440.721,522.231,440.727z"/>
						</g>
					</g>
				</g>
			</g>
		</g>
	</g>
	<path fill="#7F4822" d="M516.539,437.677v4.124c0,2.193,1.889,3.969,4.218,3.969h3.012c2.328,0,4.218-1.775,4.218-3.969v-4.124
		H516.539z"/>
	<g>
		<g>
			<g>
				<g>
					<g>
						<g>
							<path fill="#44960F" d="M571.835,428.068c0,11.483-2.457,12.658-5.485,12.658c-3.034,0-5.49-1.175-5.49-12.658
								c0-11.48,2.456-20.787,5.49-20.787C569.378,407.281,571.835,416.588,571.835,428.068z"/>
						</g>
					</g>
				</g>
			</g>
		</g>
		<g>
			<g>
				<g>
					<g>
						<g>
							<path fill="#5EB725" d="M566.316,440.727c0.896-1.428,1.77-3.513,2.407-5.905c1.264-4.704,1.135-8.804-0.285-9.157
								c-0.124-0.03-0.256-0.02-0.396,0.008c0.034-0.154,0.064-0.303,0.093-0.453c0.874-4.784,0.418-8.863-1.023-9.109
								c-0.069-0.011-0.146-0.006-0.222,0c0.005-0.229,0.013-0.461,0.013-0.695c0-3.157-0.48-5.988-1.247-7.962
								c-2.703,1.288-4.796,10.024-4.796,20.616C560.859,439.514,563.302,440.721,566.316,440.727z"/>
						</g>
					</g>
				</g>
			</g>
		</g>
	</g>
	<path fill="#7F4822" d="M560.622,437.677v4.124c0,2.193,1.889,3.969,4.219,3.969h3.012c2.329,0,4.219-1.775,4.219-3.969v-4.124
		H560.622z"/>
</g>
</svg>
