<?xml version="1.0" encoding="utf-8"?>
<!-- Generator: Adobe Illustrator 16.0.0, SVG Export Plug-In . SVG Version: 6.00 Build 0)  -->
<!DOCTYPE svg PUBLIC "-//W3C//DTD SVG 1.1//EN" "http://www.w3.org/Graphics/SVG/1.1/DTD/svg11.dtd">
<svg version="1.1" id="Layer_1" xmlns="http://www.w3.org/2000/svg" xmlns:xlink="http://www.w3.org/1999/xlink" x="0px" y="0px"
	 width="1280px" height="800px" viewBox="0 0 1280 800" enable-background="new 0 0 1280 800" xml:space="preserve">
<g>
	<g>
		<g>
			<g>
				<g>
					<g>
						<path fill="#605113" d="M638.897,508.502c0.207,4.918,9.171,4.182,9.171-0.406l0.099-86.473c0-2.49-2.07-4.512-4.618-4.498
							c-2.537,0-4.603,2.029-4.587,4.515l-0.125,64.867c0,0.198,0.034,0.383,0.061,0.584V508.502z"/>
					</g>
				</g>
			</g>
		</g>
	</g>
	<g>
		<g>
			<g>
				<g>
					<g>
						<path fill="#4C4114" d="M662.638,386.732v-9.477h-3.521v9.477c0,3.854,0.394,7.031,5.384,10.01l5.688,2.617l1.556-2.879
							l-5.56-2.55C663.032,391.899,662.507,390.826,662.638,386.732z"/>
					</g>
				</g>
			</g>
		</g>
	</g>
	<g>
		<g>
			<g>
				<g>
					<g>
						<path fill="#1F7F1F" d="M664.654,344.371c0,0-1.697-2.22-0.939-9.29c0.308-2.914,0.378-11.317,0.378-11.317
							c0-5.949-3.233-10.502-8.363-11.52c-2.192-0.427-3.044-4.641-3.424-7.673c-0.335-2.692-1.139-9.089-1.139-9.089
							c0-3.646-2.201-7.363-5.629-7.363c-3.424,0-4.825,1.705-5.963,4.736c0,0-0.953,7.273-3.866,8.008
							c-4.171,1.047-7.758,3.686-7.758,8.244c0,0-0.033,7.104,0.027,9c0.213,7.477-3.768,6.459-3.993,6.471
							c-5.32,0.197-8.173,5.463-8.173,12.316l1.474,20.387c0,0,0.197,2.825-3.182,3.051c-4.732,0.312-10.459,4.042-9.886,24.648
							l0.573,16.77c0,16.769,9.83,18.312,9.83,18.312l0.992,10.215c0,5.285,1.603,10.867,6.283,10.867
							c3.609,0,3.797,4.04,3.797,4.04c0.198,7.88,8.551,11.716,15.589,11.716c10.831,0,12.541-5.656,16.534-10.1
							c7.606-0.807,9.887-7.881,11.215-20.607c0,0,3.419,0.201,4.755-10.708c0.96-7.868,2.85-43.233,2.85-43.233
							C678.153,362.353,676.133,345.281,664.654,344.371z"/>
					</g>
				</g>
			</g>
		</g>
	</g>
	<g opacity="0.61">
		<g>
			<g>
				<g>
					<g>
						<path fill="#60A860" d="M658.365,352.455c0,0-2.222,6.871-0.889-26.669c0.062-1.569,1.777-12.123-5.512-10.634
							c-2.243,0.456-2.473-7.549-2.473-7.549c0-2.817-0.103-5.146-2.753-5.146c-2.646,0-3.715,1.312-4.602,3.65
							c0,0-0.731,5.616-2.981,6.186c-3.215,0.803-5.991,2.843-5.991,6.355c0,0-0.012,5.486,0.023,6.953
							c0.179,5.768-2.905,4.979-3.084,4.987c-4.098,0.155-6.296,4.219-6.296,9.511l0.827,7.908c0-3.514,2.352-13.58,8.213-12.321
							c2.273,0.485,3.771-5.05,3.771-5.05c0.879-2.338,2.014-4.45,4.663-4.45c2.642,0,2.882,4.056,2.882,6.873
							c0,0,0.23,8.005,2.478,7.548c7.288-1.488,5.508,9.064,5.508,10.636c0,30.505,4.438,22.423,4.438,22.423
							c5.547-7.067,10.209,6.669,8.823,19.171c0,0-0.71,13.17-1.382,23.252c2.302-4.976,3.978-11.039,4.512-15.351
							c0.739-6.068,2.198-33.355,2.198-33.355C672.12,354.878,663.69,344.778,658.365,352.455z"/>
					</g>
				</g>
			</g>
		</g>
	</g>
	<g opacity="0.61">
		<g>
			<g>
				<g>
					<g>
						<path fill="#60A860" d="M638.622,378.715c-0.651-4.695-4.439-15.758-15.98-12.116c-8.051,2.533-8.271,7.366-8.271,7.366
							s-8.599-0.348-7.041,12.432c0.663,5.45,2.892,8.887,2.892,8.887c0.839-0.6-1.058-1.652,0-11.717
							c0.88-8.486,11.963-11,16.408-9.697c6.22,1.817,6.885,9.294,6.885,9.294c2.222,17.575,12.647-3.233,14.353,14.886
							c0,0,1.416,15.564,1.812,12.297c0.594-4.922,1.246-9.866,1.361-13.85C651.603,378.305,639.899,387.936,638.622,378.715z"/>
					</g>
				</g>
			</g>
		</g>
	</g>
</g>
</svg>
